%TF.GenerationSoftware,KiCad,Pcbnew,(6.0.4-0)*%
%TF.CreationDate,2022-12-03T14:45:52-05:00*%
%TF.ProjectId,christmas,63687269-7374-46d6-9173-2e6b69636164,rev?*%
%TF.SameCoordinates,Original*%
%TF.FileFunction,Soldermask,Top*%
%TF.FilePolarity,Negative*%
%FSLAX46Y46*%
G04 Gerber Fmt 4.6, Leading zero omitted, Abs format (unit mm)*
G04 Created by KiCad (PCBNEW (6.0.4-0)) date 2022-12-03 14:45:52*
%MOMM*%
%LPD*%
G01*
G04 APERTURE LIST*
G04 Aperture macros list*
%AMRoundRect*
0 Rectangle with rounded corners*
0 $1 Rounding radius*
0 $2 $3 $4 $5 $6 $7 $8 $9 X,Y pos of 4 corners*
0 Add a 4 corners polygon primitive as box body*
4,1,4,$2,$3,$4,$5,$6,$7,$8,$9,$2,$3,0*
0 Add four circle primitives for the rounded corners*
1,1,$1+$1,$2,$3*
1,1,$1+$1,$4,$5*
1,1,$1+$1,$6,$7*
1,1,$1+$1,$8,$9*
0 Add four rect primitives between the rounded corners*
20,1,$1+$1,$2,$3,$4,$5,0*
20,1,$1+$1,$4,$5,$6,$7,0*
20,1,$1+$1,$6,$7,$8,$9,0*
20,1,$1+$1,$8,$9,$2,$3,0*%
G04 Aperture macros list end*
%ADD10RoundRect,0.237500X-0.250000X-0.237500X0.250000X-0.237500X0.250000X0.237500X-0.250000X0.237500X0*%
%ADD11RoundRect,0.237500X0.237500X-0.250000X0.237500X0.250000X-0.237500X0.250000X-0.237500X-0.250000X0*%
%ADD12RoundRect,0.237500X0.300000X0.237500X-0.300000X0.237500X-0.300000X-0.237500X0.300000X-0.237500X0*%
%ADD13RoundRect,0.237500X-0.300000X-0.237500X0.300000X-0.237500X0.300000X0.237500X-0.300000X0.237500X0*%
%ADD14R,1.500000X1.000000*%
G04 APERTURE END LIST*
D10*
%TO.C,R2*%
X107592500Y-165100000D03*
X105767500Y-165100000D03*
%TD*%
D11*
%TO.C,R1*%
X81280000Y-131167500D03*
X81280000Y-132992500D03*
%TD*%
D12*
%TO.C,C15*%
X107542500Y-154940000D03*
X105817500Y-154940000D03*
%TD*%
%TO.C,C14*%
X146457500Y-157480000D03*
X148182500Y-157480000D03*
%TD*%
D13*
%TO.C,C13*%
X176937500Y-139700000D03*
X178662500Y-139700000D03*
%TD*%
%TO.C,C12*%
X196442500Y-104140000D03*
X194717500Y-104140000D03*
%TD*%
%TO.C,C11*%
X191452500Y-64960000D03*
X189727500Y-64960000D03*
%TD*%
D12*
%TO.C,C10*%
X161697500Y-45720000D03*
X163422500Y-45720000D03*
%TD*%
%TO.C,C9*%
X123597500Y-38100000D03*
X125322500Y-38100000D03*
%TD*%
%TO.C,C8*%
X85497500Y-55880000D03*
X87222500Y-55880000D03*
%TD*%
%TO.C,C7*%
X65087500Y-93040000D03*
X66812500Y-93040000D03*
%TD*%
D13*
%TO.C,C6*%
X75337500Y-127000000D03*
X77062500Y-127000000D03*
%TD*%
D14*
%TO.C,D10*%
X109130000Y-161620000D03*
X109130000Y-158420000D03*
X104230000Y-158420000D03*
X104230000Y-161620000D03*
%TD*%
%TO.C,D9*%
X144870000Y-164160000D03*
X144870000Y-160960000D03*
X149770000Y-160960000D03*
X149770000Y-164160000D03*
%TD*%
%TO.C,D8*%
X180250000Y-146380000D03*
X180250000Y-143180000D03*
X175350000Y-143180000D03*
X175350000Y-146380000D03*
%TD*%
%TO.C,D7*%
X193130000Y-110820000D03*
X193130000Y-107620000D03*
X198030000Y-107620000D03*
X198030000Y-110820000D03*
%TD*%
%TO.C,D6*%
X192950000Y-71640000D03*
X192950000Y-68440000D03*
X188050000Y-68440000D03*
X188050000Y-71640000D03*
%TD*%
%TO.C,D5*%
X165010000Y-39040000D03*
X165010000Y-42240000D03*
X160110000Y-42240000D03*
X160110000Y-39040000D03*
%TD*%
%TO.C,D4*%
X126910000Y-31420000D03*
X126910000Y-34620000D03*
X122010000Y-34620000D03*
X122010000Y-31420000D03*
%TD*%
%TO.C,D3*%
X88810000Y-49200000D03*
X88810000Y-52400000D03*
X83910000Y-52400000D03*
X83910000Y-49200000D03*
%TD*%
%TO.C,D2*%
X68490000Y-87300000D03*
X68490000Y-90500000D03*
X63590000Y-90500000D03*
X63590000Y-87300000D03*
%TD*%
%TO.C,D1*%
X78650000Y-133680000D03*
X78650000Y-130480000D03*
X73750000Y-130480000D03*
X73750000Y-133680000D03*
%TD*%
M02*
