%TF.GenerationSoftware,KiCad,Pcbnew,(6.0.4-0)*%
%TF.CreationDate,2022-12-03T14:45:52-05:00*%
%TF.ProjectId,christmas,63687269-7374-46d6-9173-2e6b69636164,rev?*%
%TF.SameCoordinates,Original*%
%TF.FileFunction,Legend,Bot*%
%TF.FilePolarity,Positive*%
%FSLAX46Y46*%
G04 Gerber Fmt 4.6, Leading zero omitted, Abs format (unit mm)*
G04 Created by KiCad (PCBNEW (6.0.4-0)) date 2022-12-03 14:45:52*
%MOMM*%
%LPD*%
G01*
G04 APERTURE LIST*
%ADD10C,0.150000*%
%ADD11C,0.100000*%
%ADD12C,0.120000*%
G04 APERTURE END LIST*
D10*
%TO.C,TP1*%
X153661904Y-45852380D02*
X153090476Y-45852380D01*
X153376190Y-46852380D02*
X153376190Y-45852380D01*
X152757142Y-46852380D02*
X152757142Y-45852380D01*
X152376190Y-45852380D01*
X152280952Y-45900000D01*
X152233333Y-45947619D01*
X152185714Y-46042857D01*
X152185714Y-46185714D01*
X152233333Y-46280952D01*
X152280952Y-46328571D01*
X152376190Y-46376190D01*
X152757142Y-46376190D01*
X151233333Y-46852380D02*
X151804761Y-46852380D01*
X151519047Y-46852380D02*
X151519047Y-45852380D01*
X151614285Y-45995238D01*
X151709523Y-46090476D01*
X151804761Y-46138095D01*
%TO.C,TP2*%
X158741904Y-45852380D02*
X158170476Y-45852380D01*
X158456190Y-46852380D02*
X158456190Y-45852380D01*
X157837142Y-46852380D02*
X157837142Y-45852380D01*
X157456190Y-45852380D01*
X157360952Y-45900000D01*
X157313333Y-45947619D01*
X157265714Y-46042857D01*
X157265714Y-46185714D01*
X157313333Y-46280952D01*
X157360952Y-46328571D01*
X157456190Y-46376190D01*
X157837142Y-46376190D01*
X156884761Y-45947619D02*
X156837142Y-45900000D01*
X156741904Y-45852380D01*
X156503809Y-45852380D01*
X156408571Y-45900000D01*
X156360952Y-45947619D01*
X156313333Y-46042857D01*
X156313333Y-46138095D01*
X156360952Y-46280952D01*
X156932380Y-46852380D01*
X156313333Y-46852380D01*
%TO.C,C5*%
X137326666Y-60207142D02*
X137374285Y-60254761D01*
X137517142Y-60302380D01*
X137612380Y-60302380D01*
X137755238Y-60254761D01*
X137850476Y-60159523D01*
X137898095Y-60064285D01*
X137945714Y-59873809D01*
X137945714Y-59730952D01*
X137898095Y-59540476D01*
X137850476Y-59445238D01*
X137755238Y-59350000D01*
X137612380Y-59302380D01*
X137517142Y-59302380D01*
X137374285Y-59350000D01*
X137326666Y-59397619D01*
X136421904Y-59302380D02*
X136898095Y-59302380D01*
X136945714Y-59778571D01*
X136898095Y-59730952D01*
X136802857Y-59683333D01*
X136564761Y-59683333D01*
X136469523Y-59730952D01*
X136421904Y-59778571D01*
X136374285Y-59873809D01*
X136374285Y-60111904D01*
X136421904Y-60207142D01*
X136469523Y-60254761D01*
X136564761Y-60302380D01*
X136802857Y-60302380D01*
X136898095Y-60254761D01*
X136945714Y-60207142D01*
%TO.C,C4*%
X151704166Y-57347142D02*
X151751785Y-57394761D01*
X151894642Y-57442380D01*
X151989880Y-57442380D01*
X152132738Y-57394761D01*
X152227976Y-57299523D01*
X152275595Y-57204285D01*
X152323214Y-57013809D01*
X152323214Y-56870952D01*
X152275595Y-56680476D01*
X152227976Y-56585238D01*
X152132738Y-56490000D01*
X151989880Y-56442380D01*
X151894642Y-56442380D01*
X151751785Y-56490000D01*
X151704166Y-56537619D01*
X150847023Y-56775714D02*
X150847023Y-57442380D01*
X151085119Y-56394761D02*
X151323214Y-57109047D01*
X150704166Y-57109047D01*
%TO.C,C3*%
X151704166Y-52267142D02*
X151751785Y-52314761D01*
X151894642Y-52362380D01*
X151989880Y-52362380D01*
X152132738Y-52314761D01*
X152227976Y-52219523D01*
X152275595Y-52124285D01*
X152323214Y-51933809D01*
X152323214Y-51790952D01*
X152275595Y-51600476D01*
X152227976Y-51505238D01*
X152132738Y-51410000D01*
X151989880Y-51362380D01*
X151894642Y-51362380D01*
X151751785Y-51410000D01*
X151704166Y-51457619D01*
X151370833Y-51362380D02*
X150751785Y-51362380D01*
X151085119Y-51743333D01*
X150942261Y-51743333D01*
X150847023Y-51790952D01*
X150799404Y-51838571D01*
X150751785Y-51933809D01*
X150751785Y-52171904D01*
X150799404Y-52267142D01*
X150847023Y-52314761D01*
X150942261Y-52362380D01*
X151227976Y-52362380D01*
X151323214Y-52314761D01*
X151370833Y-52267142D01*
%TO.C,C2*%
X144946666Y-39567142D02*
X144994285Y-39614761D01*
X145137142Y-39662380D01*
X145232380Y-39662380D01*
X145375238Y-39614761D01*
X145470476Y-39519523D01*
X145518095Y-39424285D01*
X145565714Y-39233809D01*
X145565714Y-39090952D01*
X145518095Y-38900476D01*
X145470476Y-38805238D01*
X145375238Y-38710000D01*
X145232380Y-38662380D01*
X145137142Y-38662380D01*
X144994285Y-38710000D01*
X144946666Y-38757619D01*
X144565714Y-38757619D02*
X144518095Y-38710000D01*
X144422857Y-38662380D01*
X144184761Y-38662380D01*
X144089523Y-38710000D01*
X144041904Y-38757619D01*
X143994285Y-38852857D01*
X143994285Y-38948095D01*
X144041904Y-39090952D01*
X144613333Y-39662380D01*
X143994285Y-39662380D01*
%TO.C,C1*%
X137326666Y-55127142D02*
X137374285Y-55174761D01*
X137517142Y-55222380D01*
X137612380Y-55222380D01*
X137755238Y-55174761D01*
X137850476Y-55079523D01*
X137898095Y-54984285D01*
X137945714Y-54793809D01*
X137945714Y-54650952D01*
X137898095Y-54460476D01*
X137850476Y-54365238D01*
X137755238Y-54270000D01*
X137612380Y-54222380D01*
X137517142Y-54222380D01*
X137374285Y-54270000D01*
X137326666Y-54317619D01*
X136374285Y-55222380D02*
X136945714Y-55222380D01*
X136660000Y-55222380D02*
X136660000Y-54222380D01*
X136755238Y-54365238D01*
X136850476Y-54460476D01*
X136945714Y-54508095D01*
%TO.C,U1*%
X145404404Y-41772380D02*
X145404404Y-42581904D01*
X145356785Y-42677142D01*
X145309166Y-42724761D01*
X145213928Y-42772380D01*
X145023452Y-42772380D01*
X144928214Y-42724761D01*
X144880595Y-42677142D01*
X144832976Y-42581904D01*
X144832976Y-41772380D01*
X143832976Y-42772380D02*
X144404404Y-42772380D01*
X144118690Y-42772380D02*
X144118690Y-41772380D01*
X144213928Y-41915238D01*
X144309166Y-42010476D01*
X144404404Y-42058095D01*
%TO.C,U2*%
X144679404Y-51832380D02*
X144679404Y-52641904D01*
X144631785Y-52737142D01*
X144584166Y-52784761D01*
X144488928Y-52832380D01*
X144298452Y-52832380D01*
X144203214Y-52784761D01*
X144155595Y-52737142D01*
X144107976Y-52641904D01*
X144107976Y-51832380D01*
X143679404Y-51927619D02*
X143631785Y-51880000D01*
X143536547Y-51832380D01*
X143298452Y-51832380D01*
X143203214Y-51880000D01*
X143155595Y-51927619D01*
X143107976Y-52022857D01*
X143107976Y-52118095D01*
X143155595Y-52260952D01*
X143727023Y-52832380D01*
X143107976Y-52832380D01*
D11*
%TO.C,TP1*%
X150640000Y-47260000D02*
X151140000Y-47260000D01*
X150640000Y-47260000D02*
X150640000Y-47760000D01*
X154150000Y-47250000D02*
X153650000Y-47250000D01*
X154150000Y-47250000D02*
X154150000Y-47750000D01*
X154180000Y-49220000D02*
X153680000Y-49220000D01*
X154180000Y-48720000D02*
X154180000Y-49220000D01*
X150620000Y-49240000D02*
X151120000Y-49240000D01*
X150620000Y-49240000D02*
X150620000Y-48740000D01*
%TO.C,TP2*%
X155700000Y-49240000D02*
X155700000Y-48740000D01*
X155700000Y-49240000D02*
X156200000Y-49240000D01*
X159260000Y-48720000D02*
X159260000Y-49220000D01*
X159260000Y-49220000D02*
X158760000Y-49220000D01*
X159230000Y-47250000D02*
X159230000Y-47750000D01*
X159230000Y-47250000D02*
X158730000Y-47250000D01*
X155720000Y-47260000D02*
X155720000Y-47760000D01*
X155720000Y-47260000D02*
X156220000Y-47260000D01*
D12*
%TO.C,C5*%
X137013733Y-57910000D02*
X137306267Y-57910000D01*
X137013733Y-58930000D02*
X137306267Y-58930000D01*
%TO.C,C4*%
X151683767Y-58930000D02*
X151391233Y-58930000D01*
X151683767Y-57910000D02*
X151391233Y-57910000D01*
%TO.C,C3*%
X151683767Y-53850000D02*
X151391233Y-53850000D01*
X151683767Y-52830000D02*
X151391233Y-52830000D01*
%TO.C,C2*%
X144926267Y-40130000D02*
X144633733Y-40130000D01*
X144926267Y-41150000D02*
X144633733Y-41150000D01*
%TO.C,C1*%
X137013733Y-52830000D02*
X137306267Y-52830000D01*
X137013733Y-53850000D02*
X137306267Y-53850000D01*
%TO.C,U1*%
X144642500Y-48280000D02*
X146592500Y-48280000D01*
X144642500Y-43160000D02*
X148092500Y-43160000D01*
X144642500Y-48280000D02*
X142692500Y-48280000D01*
X144642500Y-43160000D02*
X142692500Y-43160000D01*
%TO.C,U2*%
X145277500Y-58240000D02*
X145277500Y-57910000D01*
X142557500Y-58240000D02*
X145277500Y-58240000D01*
X147457500Y-53850000D02*
X145277500Y-53850000D01*
X142557500Y-53520000D02*
X142557500Y-53850000D01*
X145277500Y-53520000D02*
X145277500Y-53850000D01*
X142557500Y-57910000D02*
X142557500Y-58240000D01*
X145277500Y-53520000D02*
X142557500Y-53520000D01*
%TD*%
M02*
