M48
; DRILL file {KiCad (6.0.4-0)} date Saturday, December 03, 2022 at 02:45:57 PM
; FORMAT={-:-/ absolute / inch / decimal}
; #@! TF.CreationDate,2022-12-03T14:45:57-05:00
; #@! TF.GenerationSoftware,Kicad,Pcbnew,(6.0.4-0)
; #@! TF.FileFunction,Plated,1,2,PTH
FMAT,2
INCH
; #@! TA.AperFunction,Plated,PTH,ViaDrill
T1C0.0157
%
G90
G05
T1
X2.5Y-3.3
X2.5Y-3.7
X3.1Y-5.0
X3.1Y-5.4
X3.2Y-1.9
X3.2Y-5.3
X3.3Y-2.2
X4.1Y-6.1
X4.3Y-6.5
X4.7Y-1.2
X4.8Y-1.5
X5.3Y-2.1
X5.3Y-2.3
X5.7Y-6.2
X5.8Y-1.6
X5.9Y-6.6
X6.3Y-1.4
X6.3Y-1.8
X7.1Y-5.5
X7.2Y-5.8
X7.6Y-2.5575
X7.7Y-2.8575
X7.8Y-4.1
X7.9Y-4.4
T0
M30
