%TF.GenerationSoftware,KiCad,Pcbnew,(6.0.4-0)*%
%TF.CreationDate,2022-12-03T14:45:52-05:00*%
%TF.ProjectId,christmas,63687269-7374-46d6-9173-2e6b69636164,rev?*%
%TF.SameCoordinates,Original*%
%TF.FileFunction,Copper,L1,Top*%
%TF.FilePolarity,Positive*%
%FSLAX46Y46*%
G04 Gerber Fmt 4.6, Leading zero omitted, Abs format (unit mm)*
G04 Created by KiCad (PCBNEW (6.0.4-0)) date 2022-12-03 14:45:52*
%MOMM*%
%LPD*%
G01*
G04 APERTURE LIST*
G04 Aperture macros list*
%AMRoundRect*
0 Rectangle with rounded corners*
0 $1 Rounding radius*
0 $2 $3 $4 $5 $6 $7 $8 $9 X,Y pos of 4 corners*
0 Add a 4 corners polygon primitive as box body*
4,1,4,$2,$3,$4,$5,$6,$7,$8,$9,$2,$3,0*
0 Add four circle primitives for the rounded corners*
1,1,$1+$1,$2,$3*
1,1,$1+$1,$4,$5*
1,1,$1+$1,$6,$7*
1,1,$1+$1,$8,$9*
0 Add four rect primitives between the rounded corners*
20,1,$1+$1,$2,$3,$4,$5,0*
20,1,$1+$1,$4,$5,$6,$7,0*
20,1,$1+$1,$6,$7,$8,$9,0*
20,1,$1+$1,$8,$9,$2,$3,0*%
G04 Aperture macros list end*
%TA.AperFunction,SMDPad,CuDef*%
%ADD10RoundRect,0.237500X-0.250000X-0.237500X0.250000X-0.237500X0.250000X0.237500X-0.250000X0.237500X0*%
%TD*%
%TA.AperFunction,SMDPad,CuDef*%
%ADD11RoundRect,0.237500X0.237500X-0.250000X0.237500X0.250000X-0.237500X0.250000X-0.237500X-0.250000X0*%
%TD*%
%TA.AperFunction,SMDPad,CuDef*%
%ADD12RoundRect,0.237500X0.300000X0.237500X-0.300000X0.237500X-0.300000X-0.237500X0.300000X-0.237500X0*%
%TD*%
%TA.AperFunction,SMDPad,CuDef*%
%ADD13RoundRect,0.237500X-0.300000X-0.237500X0.300000X-0.237500X0.300000X0.237500X-0.300000X0.237500X0*%
%TD*%
%TA.AperFunction,SMDPad,CuDef*%
%ADD14R,1.500000X1.000000*%
%TD*%
%TA.AperFunction,ViaPad*%
%ADD15C,0.800000*%
%TD*%
%TA.AperFunction,Conductor*%
%ADD16C,0.250000*%
%TD*%
G04 APERTURE END LIST*
D10*
%TO.P,R2,2*%
%TO.N,GND*%
X107592500Y-165100000D03*
%TO.P,R2,1*%
%TO.N,Net-(D10-Pad4)*%
X105767500Y-165100000D03*
%TD*%
D11*
%TO.P,R1,2*%
%TO.N,Net-(D1-Pad2)*%
X81280000Y-131167500D03*
%TO.P,R1,1*%
%TO.N,LED_DATA*%
X81280000Y-132992500D03*
%TD*%
D12*
%TO.P,C15,1*%
%TO.N,+5V*%
X107542500Y-154940000D03*
%TO.P,C15,2*%
%TO.N,GND*%
X105817500Y-154940000D03*
%TD*%
%TO.P,C14,2*%
%TO.N,GND*%
X146457500Y-157480000D03*
%TO.P,C14,1*%
%TO.N,+5V*%
X148182500Y-157480000D03*
%TD*%
D13*
%TO.P,C13,1*%
%TO.N,+5V*%
X176937500Y-139700000D03*
%TO.P,C13,2*%
%TO.N,GND*%
X178662500Y-139700000D03*
%TD*%
%TO.P,C12,2*%
%TO.N,GND*%
X196442500Y-104140000D03*
%TO.P,C12,1*%
%TO.N,+5V*%
X194717500Y-104140000D03*
%TD*%
%TO.P,C11,2*%
%TO.N,GND*%
X191452500Y-64960000D03*
%TO.P,C11,1*%
%TO.N,+5V*%
X189727500Y-64960000D03*
%TD*%
D12*
%TO.P,C10,2*%
%TO.N,GND*%
X161697500Y-45720000D03*
%TO.P,C10,1*%
%TO.N,+5V*%
X163422500Y-45720000D03*
%TD*%
%TO.P,C9,2*%
%TO.N,GND*%
X123597500Y-38100000D03*
%TO.P,C9,1*%
%TO.N,+5V*%
X125322500Y-38100000D03*
%TD*%
%TO.P,C8,2*%
%TO.N,GND*%
X85497500Y-55880000D03*
%TO.P,C8,1*%
%TO.N,+5V*%
X87222500Y-55880000D03*
%TD*%
%TO.P,C7,2*%
%TO.N,GND*%
X65087500Y-93040000D03*
%TO.P,C7,1*%
%TO.N,+5V*%
X66812500Y-93040000D03*
%TD*%
D13*
%TO.P,C6,1*%
%TO.N,+5V*%
X75337500Y-127000000D03*
%TO.P,C6,2*%
%TO.N,GND*%
X77062500Y-127000000D03*
%TD*%
D14*
%TO.P,D10,1,VSS*%
%TO.N,GND*%
X109130000Y-161620000D03*
%TO.P,D10,2,DIN*%
%TO.N,Net-(D10-Pad2)*%
X109130000Y-158420000D03*
%TO.P,D10,3,VDD*%
%TO.N,+5V*%
X104230000Y-158420000D03*
%TO.P,D10,4,DO*%
%TO.N,Net-(D10-Pad4)*%
X104230000Y-161620000D03*
%TD*%
%TO.P,D9,4,DO*%
%TO.N,Net-(D10-Pad2)*%
X144870000Y-164160000D03*
%TO.P,D9,3,VDD*%
%TO.N,+5V*%
X144870000Y-160960000D03*
%TO.P,D9,2,DIN*%
%TO.N,Net-(D8-Pad4)*%
X149770000Y-160960000D03*
%TO.P,D9,1,VSS*%
%TO.N,GND*%
X149770000Y-164160000D03*
%TD*%
%TO.P,D8,1,VSS*%
%TO.N,GND*%
X180250000Y-146380000D03*
%TO.P,D8,2,DIN*%
%TO.N,Net-(D7-Pad4)*%
X180250000Y-143180000D03*
%TO.P,D8,3,VDD*%
%TO.N,+5V*%
X175350000Y-143180000D03*
%TO.P,D8,4,DO*%
%TO.N,Net-(D8-Pad4)*%
X175350000Y-146380000D03*
%TD*%
%TO.P,D7,4,DO*%
%TO.N,Net-(D7-Pad4)*%
X193130000Y-110820000D03*
%TO.P,D7,3,VDD*%
%TO.N,+5V*%
X193130000Y-107620000D03*
%TO.P,D7,2,DIN*%
%TO.N,Net-(D6-Pad4)*%
X198030000Y-107620000D03*
%TO.P,D7,1,VSS*%
%TO.N,GND*%
X198030000Y-110820000D03*
%TD*%
%TO.P,D6,1,VSS*%
%TO.N,GND*%
X192950000Y-71640000D03*
%TO.P,D6,2,DIN*%
%TO.N,Net-(D5-Pad4)*%
X192950000Y-68440000D03*
%TO.P,D6,3,VDD*%
%TO.N,+5V*%
X188050000Y-68440000D03*
%TO.P,D6,4,DO*%
%TO.N,Net-(D6-Pad4)*%
X188050000Y-71640000D03*
%TD*%
%TO.P,D5,4,DO*%
%TO.N,Net-(D5-Pad4)*%
X165010000Y-39040000D03*
%TO.P,D5,3,VDD*%
%TO.N,+5V*%
X165010000Y-42240000D03*
%TO.P,D5,2,DIN*%
%TO.N,Net-(D4-Pad4)*%
X160110000Y-42240000D03*
%TO.P,D5,1,VSS*%
%TO.N,GND*%
X160110000Y-39040000D03*
%TD*%
%TO.P,D4,4,DO*%
%TO.N,Net-(D4-Pad4)*%
X126910000Y-31420000D03*
%TO.P,D4,3,VDD*%
%TO.N,+5V*%
X126910000Y-34620000D03*
%TO.P,D4,2,DIN*%
%TO.N,Net-(D3-Pad4)*%
X122010000Y-34620000D03*
%TO.P,D4,1,VSS*%
%TO.N,GND*%
X122010000Y-31420000D03*
%TD*%
%TO.P,D3,4,DO*%
%TO.N,Net-(D3-Pad4)*%
X88810000Y-49200000D03*
%TO.P,D3,3,VDD*%
%TO.N,+5V*%
X88810000Y-52400000D03*
%TO.P,D3,2,DIN*%
%TO.N,Net-(D2-Pad4)*%
X83910000Y-52400000D03*
%TO.P,D3,1,VSS*%
%TO.N,GND*%
X83910000Y-49200000D03*
%TD*%
%TO.P,D2,4,DO*%
%TO.N,Net-(D2-Pad4)*%
X68490000Y-87300000D03*
%TO.P,D2,3,VDD*%
%TO.N,+5V*%
X68490000Y-90500000D03*
%TO.P,D2,2,DIN*%
%TO.N,Net-(D1-Pad4)*%
X63590000Y-90500000D03*
%TO.P,D2,1,VSS*%
%TO.N,GND*%
X63590000Y-87300000D03*
%TD*%
%TO.P,D1,1,VSS*%
%TO.N,GND*%
X78650000Y-133680000D03*
%TO.P,D1,2,DIN*%
%TO.N,Net-(D1-Pad2)*%
X78650000Y-130480000D03*
%TO.P,D1,3,VDD*%
%TO.N,+5V*%
X73750000Y-130480000D03*
%TO.P,D1,4,DO*%
%TO.N,Net-(D1-Pad4)*%
X73750000Y-133680000D03*
%TD*%
D15*
%TO.N,LED_DATA*%
X81280000Y-134620000D03*
%TO.N,+5V*%
X134620000Y-58420000D03*
X134620000Y-53340000D03*
X147320000Y-40640000D03*
%TO.N,GND*%
X160020000Y-45720000D03*
X160020000Y-35560000D03*
X195580000Y-72580000D03*
X193040000Y-64960000D03*
X200660000Y-111760000D03*
X198120000Y-104140000D03*
X182880000Y-147320000D03*
X180340000Y-139700000D03*
X144780000Y-157480000D03*
X149860000Y-167640000D03*
X104140000Y-154940000D03*
X109220000Y-165100000D03*
X78740000Y-127000000D03*
X78740000Y-137160000D03*
X63500000Y-93980000D03*
X63500000Y-83820000D03*
X83820000Y-55880000D03*
X81280000Y-48260000D03*
X121920000Y-38100000D03*
X119380000Y-30480000D03*
%TD*%
D16*
%TO.N,+5V*%
X66812500Y-93040000D02*
X68490000Y-91362500D01*
X68490000Y-91362500D02*
X68490000Y-90500000D01*
%TO.N,LED_DATA*%
X81280000Y-132992500D02*
X81280000Y-134620000D01*
%TO.N,Net-(D1-Pad2)*%
X78650000Y-130480000D02*
X80592500Y-130480000D01*
X80592500Y-130480000D02*
X81280000Y-131167500D01*
%TO.N,Net-(D10-Pad4)*%
X104230000Y-161620000D02*
X104230000Y-163562500D01*
X104230000Y-163562500D02*
X105767500Y-165100000D01*
%TO.N,Net-(D10-Pad2)*%
X144870000Y-164160000D02*
X114870000Y-164160000D01*
X114870000Y-164160000D02*
X109130000Y-158420000D01*
%TO.N,Net-(D8-Pad4)*%
X175350000Y-146380000D02*
X164350000Y-146380000D01*
X164350000Y-146380000D02*
X149770000Y-160960000D01*
%TO.N,Net-(D7-Pad4)*%
X193130000Y-110820000D02*
X193130000Y-130300000D01*
X193130000Y-130300000D02*
X180250000Y-143180000D01*
%TO.N,Net-(D6-Pad4)*%
X200660000Y-104140000D02*
X200660000Y-106680000D01*
X188050000Y-71640000D02*
X188050000Y-91530000D01*
X199720000Y-107620000D02*
X198030000Y-107620000D01*
X188050000Y-91530000D02*
X200660000Y-104140000D01*
X200660000Y-106680000D02*
X199720000Y-107620000D01*
%TO.N,Net-(D5-Pad4)*%
X192950000Y-68440000D02*
X193764511Y-67625489D01*
X193764511Y-67625489D02*
X193764511Y-64224511D01*
X193764511Y-64224511D02*
X168580000Y-39040000D01*
X168580000Y-39040000D02*
X165010000Y-39040000D01*
%TO.N,Net-(D4-Pad4)*%
X126910000Y-31420000D02*
X149290000Y-31420000D01*
X149290000Y-31420000D02*
X160110000Y-42240000D01*
%TO.N,Net-(D3-Pad4)*%
X88810000Y-49200000D02*
X107430000Y-49200000D01*
X107430000Y-49200000D02*
X122010000Y-34620000D01*
%TO.N,Net-(D1-Pad4)*%
X62775489Y-98335489D02*
X63500000Y-99060000D01*
X62775489Y-91314511D02*
X62775489Y-98335489D01*
X63590000Y-90500000D02*
X62775489Y-91314511D01*
X63500000Y-99060000D02*
X63500000Y-123430000D01*
X63500000Y-123430000D02*
X73750000Y-133680000D01*
%TO.N,Net-(D2-Pad4)*%
X83910000Y-52400000D02*
X68490000Y-67820000D01*
X68490000Y-67820000D02*
X68490000Y-87300000D01*
%TO.N,GND*%
X109130000Y-161620000D02*
X109130000Y-165010000D01*
X109130000Y-165010000D02*
X109220000Y-165100000D01*
%TO.N,Net-(D1-Pad4)*%
X63879816Y-90500000D02*
X63590000Y-90500000D01*
%TO.N,GND*%
X160020000Y-45720000D02*
X161697500Y-45720000D01*
X160020000Y-35560000D02*
X160110000Y-35650000D01*
X160110000Y-35650000D02*
X160110000Y-39040000D01*
X119380000Y-30480000D02*
X120320000Y-31420000D01*
X120320000Y-31420000D02*
X122010000Y-31420000D01*
X121920000Y-38100000D02*
X123597500Y-38100000D01*
X81280000Y-48260000D02*
X82220000Y-49200000D01*
X82220000Y-49200000D02*
X83910000Y-49200000D01*
X83820000Y-55880000D02*
X85497500Y-55880000D01*
X63500000Y-83820000D02*
X63590000Y-83910000D01*
X63590000Y-83910000D02*
X63590000Y-87300000D01*
X63500000Y-93980000D02*
X64147500Y-93980000D01*
X64147500Y-93980000D02*
X65087500Y-93040000D01*
X78740000Y-127000000D02*
X77062500Y-127000000D01*
X78650000Y-137070000D02*
X78740000Y-137160000D01*
X78650000Y-133680000D02*
X78650000Y-137070000D01*
X104140000Y-154940000D02*
X104230000Y-155030000D01*
X109220000Y-165100000D02*
X107592500Y-165100000D01*
X104140000Y-154940000D02*
X105817500Y-154940000D01*
X144780000Y-157480000D02*
X146457500Y-157480000D01*
X149860000Y-167640000D02*
X149770000Y-167550000D01*
X149770000Y-167550000D02*
X149770000Y-164160000D01*
X180340000Y-139700000D02*
X178662500Y-139700000D01*
X182880000Y-147320000D02*
X181940000Y-146380000D01*
X181940000Y-146380000D02*
X180250000Y-146380000D01*
X199720000Y-110820000D02*
X200660000Y-111760000D01*
X198030000Y-110820000D02*
X199720000Y-110820000D01*
X196442500Y-104140000D02*
X198120000Y-104140000D01*
X191452500Y-64960000D02*
X193040000Y-64960000D01*
X192950000Y-71640000D02*
X194640000Y-71640000D01*
X194640000Y-71640000D02*
X195580000Y-72580000D01*
%TD*%
%TA.AperFunction,Conductor*%
%TO.N,+5V*%
G36*
X149844384Y-35558265D02*
G01*
X149874712Y-35565517D01*
X154113001Y-37154875D01*
X154157851Y-37183755D01*
X156528673Y-39554578D01*
X158814595Y-41840500D01*
X158848621Y-41902812D01*
X158851500Y-41929595D01*
X158851500Y-42788134D01*
X158858255Y-42850316D01*
X158909385Y-42986705D01*
X158996739Y-43103261D01*
X159113295Y-43190615D01*
X159249684Y-43241745D01*
X159311866Y-43248500D01*
X160908134Y-43248500D01*
X160970316Y-43241745D01*
X161106705Y-43190615D01*
X161223261Y-43103261D01*
X161310615Y-42986705D01*
X161361745Y-42850316D01*
X161368500Y-42788134D01*
X161368500Y-42784669D01*
X163752001Y-42784669D01*
X163752371Y-42791490D01*
X163757895Y-42842352D01*
X163761521Y-42857604D01*
X163806676Y-42978054D01*
X163815214Y-42993649D01*
X163891715Y-43095724D01*
X163904276Y-43108285D01*
X164006351Y-43184786D01*
X164021946Y-43193324D01*
X164142394Y-43238478D01*
X164157649Y-43242105D01*
X164208514Y-43247631D01*
X164215328Y-43248000D01*
X164737885Y-43248000D01*
X164753124Y-43243525D01*
X164754329Y-43242135D01*
X164756000Y-43234452D01*
X164756000Y-43229884D01*
X165264000Y-43229884D01*
X165268475Y-43245123D01*
X165269865Y-43246328D01*
X165277548Y-43247999D01*
X165804669Y-43247999D01*
X165811490Y-43247629D01*
X165862352Y-43242105D01*
X165877604Y-43238479D01*
X165998054Y-43193324D01*
X166013649Y-43184786D01*
X166115724Y-43108285D01*
X166128285Y-43095724D01*
X166204786Y-42993649D01*
X166213324Y-42978054D01*
X166258478Y-42857606D01*
X166262105Y-42842351D01*
X166267631Y-42791486D01*
X166268000Y-42784672D01*
X166268000Y-42512115D01*
X166263525Y-42496876D01*
X166262135Y-42495671D01*
X166254452Y-42494000D01*
X165282115Y-42494000D01*
X165266876Y-42498475D01*
X165265671Y-42499865D01*
X165264000Y-42507548D01*
X165264000Y-43229884D01*
X164756000Y-43229884D01*
X164756000Y-42512115D01*
X164751525Y-42496876D01*
X164750135Y-42495671D01*
X164742452Y-42494000D01*
X163770116Y-42494000D01*
X163754877Y-42498475D01*
X163753672Y-42499865D01*
X163752001Y-42507548D01*
X163752001Y-42784669D01*
X161368500Y-42784669D01*
X161368500Y-41691866D01*
X161361745Y-41629684D01*
X161310615Y-41493295D01*
X161223261Y-41376739D01*
X161106705Y-41289385D01*
X160970316Y-41238255D01*
X160908134Y-41231500D01*
X160049594Y-41231500D01*
X159981473Y-41211498D01*
X159960499Y-41194595D01*
X158939874Y-40173970D01*
X158905848Y-40111658D01*
X158910913Y-40040843D01*
X158953460Y-39984007D01*
X159019980Y-39959196D01*
X159089354Y-39974287D01*
X159104534Y-39984049D01*
X159113295Y-39990615D01*
X159249684Y-40041745D01*
X159311866Y-40048500D01*
X160908134Y-40048500D01*
X160970316Y-40041745D01*
X161106705Y-39990615D01*
X161223261Y-39903261D01*
X161226111Y-39899458D01*
X161286559Y-39866450D01*
X161357584Y-39871594D01*
X164334730Y-40988024D01*
X164391490Y-41030671D01*
X164416183Y-41097235D01*
X164400968Y-41166582D01*
X164350677Y-41216695D01*
X164290488Y-41232001D01*
X164215331Y-41232001D01*
X164208510Y-41232371D01*
X164157648Y-41237895D01*
X164142396Y-41241521D01*
X164021946Y-41286676D01*
X164006351Y-41295214D01*
X163904276Y-41371715D01*
X163891715Y-41384276D01*
X163815214Y-41486351D01*
X163806676Y-41501946D01*
X163761522Y-41622394D01*
X163757895Y-41637649D01*
X163752369Y-41688514D01*
X163752000Y-41695328D01*
X163752000Y-41967885D01*
X163756475Y-41983124D01*
X163757865Y-41984329D01*
X163765548Y-41986000D01*
X166249884Y-41986000D01*
X166265123Y-41981525D01*
X166266328Y-41980135D01*
X166267999Y-41972452D01*
X166267999Y-41894818D01*
X166288001Y-41826697D01*
X166341657Y-41780204D01*
X166411931Y-41770100D01*
X166438241Y-41776841D01*
X168398973Y-42512115D01*
X170154447Y-43170418D01*
X170199299Y-43199299D01*
X190850151Y-63850151D01*
X190884177Y-63912463D01*
X190879112Y-63983278D01*
X190836565Y-64040114D01*
X190827385Y-64046373D01*
X190685969Y-64133884D01*
X190680797Y-64139065D01*
X190678727Y-64141139D01*
X190676962Y-64142105D01*
X190675059Y-64143613D01*
X190674801Y-64143287D01*
X190616446Y-64175219D01*
X190545625Y-64170218D01*
X190500530Y-64141292D01*
X190497869Y-64138636D01*
X190486460Y-64129625D01*
X190350937Y-64046088D01*
X190337759Y-64039944D01*
X190186234Y-63989685D01*
X190172868Y-63986819D01*
X190080230Y-63977328D01*
X190073815Y-63977000D01*
X189999615Y-63977000D01*
X189984376Y-63981475D01*
X189983171Y-63982865D01*
X189981500Y-63990548D01*
X189981500Y-65924885D01*
X189985975Y-65940124D01*
X189987365Y-65941329D01*
X189995048Y-65943000D01*
X190073766Y-65943000D01*
X190080282Y-65942663D01*
X190174132Y-65932925D01*
X190187528Y-65930032D01*
X190338953Y-65879512D01*
X190352115Y-65873347D01*
X190487492Y-65789574D01*
X190498894Y-65780536D01*
X190500567Y-65778861D01*
X190501993Y-65778081D01*
X190504627Y-65775993D01*
X190504984Y-65776444D01*
X190562849Y-65744781D01*
X190633669Y-65749784D01*
X190678754Y-65778701D01*
X190681421Y-65781363D01*
X190686997Y-65786929D01*
X190835080Y-65878209D01*
X191000191Y-65932974D01*
X191007027Y-65933674D01*
X191007030Y-65933675D01*
X191054370Y-65938525D01*
X191102928Y-65943500D01*
X191802072Y-65943500D01*
X191805318Y-65943163D01*
X191805322Y-65943163D01*
X191899235Y-65933419D01*
X191899239Y-65933418D01*
X191906093Y-65932707D01*
X191912629Y-65930526D01*
X191912631Y-65930526D01*
X192045395Y-65886232D01*
X192071107Y-65877654D01*
X192219031Y-65786116D01*
X192316297Y-65688680D01*
X192378578Y-65654601D01*
X192449398Y-65659604D01*
X192479529Y-65675762D01*
X192583248Y-65751118D01*
X192589276Y-65753802D01*
X192589278Y-65753803D01*
X192652062Y-65781756D01*
X192757712Y-65828794D01*
X192807446Y-65839365D01*
X192811476Y-65840222D01*
X192874374Y-65874374D01*
X193094106Y-66094106D01*
X193128132Y-66156418D01*
X193131011Y-66183201D01*
X193131011Y-67305500D01*
X193111009Y-67373621D01*
X193057353Y-67420114D01*
X193005011Y-67431500D01*
X192151866Y-67431500D01*
X192089684Y-67438255D01*
X191953295Y-67489385D01*
X191836739Y-67576739D01*
X191749385Y-67693295D01*
X191698255Y-67829684D01*
X191691500Y-67891866D01*
X191691500Y-68988134D01*
X191698255Y-69050316D01*
X191749385Y-69186705D01*
X191836739Y-69303261D01*
X191953295Y-69390615D01*
X192089684Y-69441745D01*
X192151866Y-69448500D01*
X193748134Y-69448500D01*
X193810316Y-69441745D01*
X193946705Y-69390615D01*
X194063261Y-69303261D01*
X194150615Y-69186705D01*
X194201745Y-69050316D01*
X194208500Y-68988134D01*
X194208500Y-68128956D01*
X194228502Y-68060835D01*
X194239101Y-68046803D01*
X194240646Y-68045258D01*
X194243068Y-68042135D01*
X194243074Y-68042129D01*
X194243123Y-68042065D01*
X194250828Y-68033044D01*
X194275670Y-68006589D01*
X194281097Y-68000810D01*
X194284918Y-67993860D01*
X194290857Y-67983057D01*
X194301713Y-67966530D01*
X194309268Y-67956791D01*
X194309269Y-67956789D01*
X194314125Y-67950529D01*
X194331685Y-67909949D01*
X194336902Y-67899301D01*
X194354386Y-67867498D01*
X194354387Y-67867496D01*
X194358206Y-67860549D01*
X194363244Y-67840926D01*
X194369648Y-67822223D01*
X194374544Y-67810909D01*
X194374544Y-67810908D01*
X194377692Y-67803634D01*
X194378931Y-67795811D01*
X194378934Y-67795801D01*
X194384610Y-67759965D01*
X194387016Y-67748345D01*
X194396039Y-67713200D01*
X194396039Y-67713199D01*
X194398011Y-67705519D01*
X194398011Y-67697590D01*
X194399004Y-67689729D01*
X194401578Y-67690054D01*
X194418013Y-67634080D01*
X194471669Y-67587587D01*
X194541943Y-67577483D01*
X194606523Y-67606977D01*
X194613106Y-67613106D01*
X195546125Y-68546125D01*
X195580151Y-68608437D01*
X195582813Y-68627821D01*
X195754005Y-71538101D01*
X195738037Y-71607279D01*
X195687204Y-71656842D01*
X195628222Y-71671500D01*
X195619595Y-71671500D01*
X195551474Y-71651498D01*
X195530500Y-71634595D01*
X195143652Y-71247747D01*
X195136112Y-71239461D01*
X195132000Y-71232982D01*
X195082348Y-71186356D01*
X195079507Y-71183602D01*
X195059770Y-71163865D01*
X195056573Y-71161385D01*
X195047551Y-71153680D01*
X195021100Y-71128841D01*
X195015321Y-71123414D01*
X195008375Y-71119595D01*
X195008372Y-71119593D01*
X194997566Y-71113652D01*
X194981047Y-71102801D01*
X194971354Y-71095283D01*
X194965041Y-71090386D01*
X194957772Y-71087241D01*
X194957768Y-71087238D01*
X194924463Y-71072826D01*
X194913813Y-71067609D01*
X194875060Y-71046305D01*
X194855437Y-71041267D01*
X194836734Y-71034863D01*
X194825420Y-71029967D01*
X194825419Y-71029967D01*
X194818145Y-71026819D01*
X194810322Y-71025580D01*
X194810312Y-71025577D01*
X194774476Y-71019901D01*
X194762856Y-71017495D01*
X194727711Y-71008472D01*
X194727710Y-71008472D01*
X194720030Y-71006500D01*
X194699776Y-71006500D01*
X194680065Y-71004949D01*
X194667886Y-71003020D01*
X194660057Y-71001780D01*
X194652165Y-71002526D01*
X194616039Y-71005941D01*
X194604181Y-71006500D01*
X194280382Y-71006500D01*
X194212261Y-70986498D01*
X194165768Y-70932842D01*
X194162401Y-70924731D01*
X194153769Y-70901707D01*
X194153767Y-70901703D01*
X194150615Y-70893295D01*
X194063261Y-70776739D01*
X193946705Y-70689385D01*
X193810316Y-70638255D01*
X193748134Y-70631500D01*
X192151866Y-70631500D01*
X192089684Y-70638255D01*
X191953295Y-70689385D01*
X191836739Y-70776739D01*
X191749385Y-70893295D01*
X191698255Y-71029684D01*
X191691500Y-71091866D01*
X191691500Y-72188134D01*
X191698255Y-72250316D01*
X191749385Y-72386705D01*
X191836739Y-72503261D01*
X191953295Y-72590615D01*
X192089684Y-72641745D01*
X192151866Y-72648500D01*
X193748134Y-72648500D01*
X193810316Y-72641745D01*
X193946705Y-72590615D01*
X194063261Y-72503261D01*
X194150615Y-72386705D01*
X194153769Y-72378293D01*
X194162401Y-72355269D01*
X194205043Y-72298505D01*
X194271605Y-72273806D01*
X194280382Y-72273500D01*
X194325406Y-72273500D01*
X194393527Y-72293502D01*
X194414501Y-72310405D01*
X194632878Y-72528782D01*
X194666904Y-72591094D01*
X194669092Y-72604703D01*
X194686458Y-72769928D01*
X194745473Y-72951556D01*
X194840960Y-73116944D01*
X194968747Y-73258866D01*
X195123248Y-73371118D01*
X195129276Y-73373802D01*
X195129278Y-73373803D01*
X195291681Y-73446109D01*
X195297712Y-73448794D01*
X195391112Y-73468647D01*
X195478056Y-73487128D01*
X195478061Y-73487128D01*
X195484513Y-73488500D01*
X195675487Y-73488500D01*
X195681939Y-73487128D01*
X195681944Y-73487128D01*
X195722976Y-73478406D01*
X195793767Y-73483808D01*
X195850400Y-73526625D01*
X195874956Y-73594254D01*
X197409545Y-99682269D01*
X197393577Y-99751447D01*
X197342744Y-99801010D01*
X197273185Y-99815223D01*
X197206984Y-99789573D01*
X197194667Y-99778763D01*
X194785891Y-97369986D01*
X188720405Y-91304500D01*
X188686379Y-91242188D01*
X188683500Y-91215405D01*
X188683500Y-72774500D01*
X188703502Y-72706379D01*
X188757158Y-72659886D01*
X188809500Y-72648500D01*
X188848134Y-72648500D01*
X188910316Y-72641745D01*
X189046705Y-72590615D01*
X189163261Y-72503261D01*
X189250615Y-72386705D01*
X189301745Y-72250316D01*
X189308500Y-72188134D01*
X189308500Y-71091866D01*
X189301745Y-71029684D01*
X189250615Y-70893295D01*
X189163261Y-70776739D01*
X189046705Y-70689385D01*
X188910316Y-70638255D01*
X188848134Y-70631500D01*
X187251866Y-70631500D01*
X187189684Y-70638255D01*
X187053295Y-70689385D01*
X186936739Y-70776739D01*
X186849385Y-70893295D01*
X186798255Y-71029684D01*
X186791500Y-71091866D01*
X186791500Y-72188134D01*
X186798255Y-72250316D01*
X186849385Y-72386705D01*
X186936739Y-72503261D01*
X187053295Y-72590615D01*
X187189684Y-72641745D01*
X187251866Y-72648500D01*
X187290500Y-72648500D01*
X187358621Y-72668502D01*
X187405114Y-72722158D01*
X187416500Y-72774500D01*
X187416500Y-91451233D01*
X187415973Y-91462416D01*
X187414298Y-91469909D01*
X187414547Y-91477835D01*
X187414547Y-91477836D01*
X187416438Y-91537986D01*
X187416500Y-91541945D01*
X187416500Y-91569856D01*
X187416997Y-91573790D01*
X187416997Y-91573791D01*
X187417005Y-91573856D01*
X187417938Y-91585693D01*
X187419327Y-91629889D01*
X187424978Y-91649339D01*
X187428987Y-91668700D01*
X187431526Y-91688797D01*
X187434445Y-91696168D01*
X187434445Y-91696170D01*
X187447804Y-91729912D01*
X187451649Y-91741142D01*
X187463982Y-91783593D01*
X187468015Y-91790412D01*
X187468017Y-91790417D01*
X187474293Y-91801028D01*
X187482988Y-91818776D01*
X187490448Y-91837617D01*
X187495110Y-91844033D01*
X187495110Y-91844034D01*
X187516436Y-91873387D01*
X187522952Y-91883307D01*
X187545458Y-91921362D01*
X187559779Y-91935683D01*
X187572619Y-91950716D01*
X187584528Y-91967107D01*
X187590634Y-91972158D01*
X187618605Y-91995298D01*
X187627384Y-92003288D01*
X197507119Y-101883024D01*
X197541145Y-101945336D01*
X197543807Y-101964720D01*
X197618039Y-103226653D01*
X197622739Y-103306557D01*
X197606771Y-103375735D01*
X197571017Y-103415892D01*
X197508747Y-103461134D01*
X197507551Y-103459488D01*
X197452220Y-103486035D01*
X197381767Y-103477263D01*
X197333930Y-103440516D01*
X197331116Y-103435969D01*
X197250225Y-103355219D01*
X197213184Y-103318242D01*
X197213179Y-103318238D01*
X197208003Y-103313071D01*
X197201772Y-103309230D01*
X197066150Y-103225631D01*
X197066148Y-103225630D01*
X197059920Y-103221791D01*
X196894809Y-103167026D01*
X196887973Y-103166326D01*
X196887970Y-103166325D01*
X196836474Y-103161049D01*
X196792072Y-103156500D01*
X196092928Y-103156500D01*
X196089682Y-103156837D01*
X196089678Y-103156837D01*
X195995765Y-103166581D01*
X195995761Y-103166582D01*
X195988907Y-103167293D01*
X195982371Y-103169474D01*
X195982369Y-103169474D01*
X195849605Y-103213768D01*
X195823893Y-103222346D01*
X195675969Y-103313884D01*
X195670797Y-103319065D01*
X195668727Y-103321139D01*
X195666962Y-103322105D01*
X195665059Y-103323613D01*
X195664801Y-103323287D01*
X195606446Y-103355219D01*
X195535625Y-103350218D01*
X195490530Y-103321292D01*
X195487869Y-103318636D01*
X195476460Y-103309625D01*
X195340937Y-103226088D01*
X195327759Y-103219944D01*
X195176234Y-103169685D01*
X195162868Y-103166819D01*
X195070230Y-103157328D01*
X195063815Y-103157000D01*
X194989615Y-103157000D01*
X194974376Y-103161475D01*
X194973171Y-103162865D01*
X194971500Y-103170548D01*
X194971500Y-105104885D01*
X194975975Y-105120124D01*
X194977365Y-105121329D01*
X194985048Y-105123000D01*
X195063766Y-105123000D01*
X195070282Y-105122663D01*
X195164132Y-105112925D01*
X195177528Y-105110032D01*
X195328953Y-105059512D01*
X195342115Y-105053347D01*
X195477492Y-104969574D01*
X195488894Y-104960536D01*
X195490567Y-104958861D01*
X195491993Y-104958081D01*
X195494627Y-104955993D01*
X195494984Y-104956444D01*
X195552849Y-104924781D01*
X195623669Y-104929784D01*
X195668754Y-104958701D01*
X195671421Y-104961363D01*
X195676997Y-104966929D01*
X195683227Y-104970769D01*
X195683228Y-104970770D01*
X195786030Y-105034138D01*
X195825080Y-105058209D01*
X195990191Y-105112974D01*
X195997027Y-105113674D01*
X195997030Y-105113675D01*
X196044370Y-105118525D01*
X196092928Y-105123500D01*
X196792072Y-105123500D01*
X196795318Y-105123163D01*
X196795322Y-105123163D01*
X196889235Y-105113419D01*
X196889239Y-105113418D01*
X196896093Y-105112707D01*
X196902629Y-105110526D01*
X196902631Y-105110526D01*
X197035395Y-105066232D01*
X197061107Y-105057654D01*
X197209031Y-104966116D01*
X197331929Y-104843003D01*
X197334106Y-104839471D01*
X197390957Y-104799162D01*
X197461880Y-104795929D01*
X197507775Y-104820204D01*
X197508747Y-104818866D01*
X197663248Y-104931118D01*
X197663215Y-104931163D01*
X197710383Y-104980627D01*
X197724175Y-105030967D01*
X197729618Y-105123500D01*
X197809300Y-106478101D01*
X197793332Y-106547279D01*
X197742499Y-106596842D01*
X197683517Y-106611500D01*
X197231866Y-106611500D01*
X197169684Y-106618255D01*
X197033295Y-106669385D01*
X196916739Y-106756739D01*
X196829385Y-106873295D01*
X196778255Y-107009684D01*
X196771500Y-107071866D01*
X196771500Y-108168134D01*
X196778255Y-108230316D01*
X196829385Y-108366705D01*
X196916739Y-108483261D01*
X197033295Y-108570615D01*
X197169684Y-108621745D01*
X197231866Y-108628500D01*
X197816988Y-108628500D01*
X197885109Y-108648502D01*
X197931602Y-108702158D01*
X197942771Y-108747101D01*
X197997535Y-109678101D01*
X197981567Y-109747279D01*
X197930734Y-109796842D01*
X197871752Y-109811500D01*
X197231866Y-109811500D01*
X197169684Y-109818255D01*
X197033295Y-109869385D01*
X196916739Y-109956739D01*
X196829385Y-110073295D01*
X196778255Y-110209684D01*
X196771500Y-110271866D01*
X196771500Y-111368134D01*
X196778255Y-111430316D01*
X196829385Y-111566705D01*
X196916739Y-111683261D01*
X197033295Y-111770615D01*
X197169684Y-111821745D01*
X197231866Y-111828500D01*
X197941497Y-111828500D01*
X198009618Y-111848502D01*
X198056111Y-111902158D01*
X198066215Y-111972432D01*
X198063735Y-111985059D01*
X194011738Y-128193048D01*
X193975811Y-128254284D01*
X193912482Y-128286375D01*
X193841855Y-128279134D01*
X193786356Y-128234858D01*
X193763500Y-128162489D01*
X193763500Y-111954500D01*
X193783502Y-111886379D01*
X193837158Y-111839886D01*
X193889500Y-111828500D01*
X193928134Y-111828500D01*
X193990316Y-111821745D01*
X194126705Y-111770615D01*
X194243261Y-111683261D01*
X194330615Y-111566705D01*
X194381745Y-111430316D01*
X194388500Y-111368134D01*
X194388500Y-110271866D01*
X194381745Y-110209684D01*
X194330615Y-110073295D01*
X194243261Y-109956739D01*
X194126705Y-109869385D01*
X193990316Y-109818255D01*
X193928134Y-109811500D01*
X192331866Y-109811500D01*
X192269684Y-109818255D01*
X192133295Y-109869385D01*
X192016739Y-109956739D01*
X191929385Y-110073295D01*
X191878255Y-110209684D01*
X191871500Y-110271866D01*
X191871500Y-111368134D01*
X191878255Y-111430316D01*
X191929385Y-111566705D01*
X192016739Y-111683261D01*
X192133295Y-111770615D01*
X192269684Y-111821745D01*
X192331866Y-111828500D01*
X192370500Y-111828500D01*
X192438621Y-111848502D01*
X192485114Y-111902158D01*
X192496500Y-111954500D01*
X192496500Y-129985406D01*
X192476498Y-130053527D01*
X192459595Y-130074501D01*
X180399500Y-142134595D01*
X180337188Y-142168621D01*
X180310405Y-142171500D01*
X179451866Y-142171500D01*
X179389684Y-142178255D01*
X179253295Y-142229385D01*
X179136739Y-142316739D01*
X179049385Y-142433295D01*
X178998255Y-142569684D01*
X178991500Y-142631866D01*
X178991500Y-143728134D01*
X178998255Y-143790316D01*
X179049385Y-143926705D01*
X179136739Y-144043261D01*
X179253295Y-144130615D01*
X179389684Y-144181745D01*
X179451866Y-144188500D01*
X180627310Y-144188500D01*
X180695431Y-144208502D01*
X180741924Y-144262158D01*
X180752028Y-144332432D01*
X180722534Y-144397012D01*
X180716405Y-144403595D01*
X179785405Y-145334595D01*
X179723093Y-145368621D01*
X179696310Y-145371500D01*
X179451866Y-145371500D01*
X179389684Y-145378255D01*
X179253295Y-145429385D01*
X179136739Y-145516739D01*
X179049385Y-145633295D01*
X178998255Y-145769684D01*
X178991500Y-145831866D01*
X178991500Y-146076310D01*
X178971498Y-146144431D01*
X178954595Y-146165405D01*
X172738288Y-152381712D01*
X172695988Y-152409605D01*
X151201295Y-161007482D01*
X151130618Y-161014210D01*
X151067523Y-160981659D01*
X151032043Y-160920164D01*
X151028500Y-160890494D01*
X151028500Y-160649594D01*
X151048502Y-160581473D01*
X151065405Y-160560499D01*
X164575500Y-147050405D01*
X164637812Y-147016379D01*
X164664595Y-147013500D01*
X174019618Y-147013500D01*
X174087739Y-147033502D01*
X174134232Y-147087158D01*
X174137599Y-147095269D01*
X174146231Y-147118293D01*
X174149385Y-147126705D01*
X174236739Y-147243261D01*
X174353295Y-147330615D01*
X174489684Y-147381745D01*
X174551866Y-147388500D01*
X176148134Y-147388500D01*
X176210316Y-147381745D01*
X176346705Y-147330615D01*
X176463261Y-147243261D01*
X176550615Y-147126705D01*
X176601745Y-146990316D01*
X176608500Y-146928134D01*
X176608500Y-145831866D01*
X176601745Y-145769684D01*
X176550615Y-145633295D01*
X176463261Y-145516739D01*
X176346705Y-145429385D01*
X176210316Y-145378255D01*
X176148134Y-145371500D01*
X174551866Y-145371500D01*
X174489684Y-145378255D01*
X174353295Y-145429385D01*
X174236739Y-145516739D01*
X174149385Y-145633295D01*
X174146233Y-145641703D01*
X174146231Y-145641707D01*
X174137599Y-145664731D01*
X174094957Y-145721495D01*
X174028395Y-145746194D01*
X174019618Y-145746500D01*
X164428768Y-145746500D01*
X164417585Y-145745973D01*
X164410092Y-145744298D01*
X164402166Y-145744547D01*
X164402165Y-145744547D01*
X164342002Y-145746438D01*
X164338044Y-145746500D01*
X164310144Y-145746500D01*
X164306154Y-145747004D01*
X164294320Y-145747936D01*
X164250111Y-145749326D01*
X164242497Y-145751538D01*
X164242492Y-145751539D01*
X164230659Y-145754977D01*
X164211296Y-145758988D01*
X164191203Y-145761526D01*
X164183836Y-145764443D01*
X164183831Y-145764444D01*
X164150092Y-145777802D01*
X164138865Y-145781646D01*
X164096407Y-145793982D01*
X164089581Y-145798019D01*
X164078972Y-145804293D01*
X164061224Y-145812988D01*
X164042383Y-145820448D01*
X164035967Y-145825110D01*
X164035966Y-145825110D01*
X164006613Y-145846436D01*
X163996693Y-145852952D01*
X163965465Y-145871420D01*
X163965462Y-145871422D01*
X163958638Y-145875458D01*
X163944317Y-145889779D01*
X163929284Y-145902619D01*
X163912893Y-145914528D01*
X163907842Y-145920634D01*
X163884702Y-145948605D01*
X163876712Y-145957384D01*
X149919500Y-159914595D01*
X149857188Y-159948621D01*
X149830405Y-159951500D01*
X148971866Y-159951500D01*
X148909684Y-159958255D01*
X148773295Y-160009385D01*
X148656739Y-160096739D01*
X148569385Y-160213295D01*
X148518255Y-160349684D01*
X148511500Y-160411866D01*
X148511500Y-161508134D01*
X148518255Y-161570316D01*
X148569385Y-161706705D01*
X148656739Y-161823261D01*
X148663919Y-161828642D01*
X148667224Y-161831947D01*
X148701250Y-161894259D01*
X148696185Y-161965074D01*
X148653638Y-162021910D01*
X148624924Y-162038030D01*
X147342530Y-162550988D01*
X147295735Y-162560000D01*
X116869745Y-162560000D01*
X116813396Y-162546698D01*
X114729338Y-161504669D01*
X143612001Y-161504669D01*
X143612371Y-161511490D01*
X143617895Y-161562352D01*
X143621521Y-161577604D01*
X143666676Y-161698054D01*
X143675214Y-161713649D01*
X143751715Y-161815724D01*
X143764276Y-161828285D01*
X143866351Y-161904786D01*
X143881946Y-161913324D01*
X144002394Y-161958478D01*
X144017649Y-161962105D01*
X144068514Y-161967631D01*
X144075328Y-161968000D01*
X144597885Y-161968000D01*
X144613124Y-161963525D01*
X144614329Y-161962135D01*
X144616000Y-161954452D01*
X144616000Y-161949884D01*
X145124000Y-161949884D01*
X145128475Y-161965123D01*
X145129865Y-161966328D01*
X145137548Y-161967999D01*
X145664669Y-161967999D01*
X145671490Y-161967629D01*
X145722352Y-161962105D01*
X145737604Y-161958479D01*
X145858054Y-161913324D01*
X145873649Y-161904786D01*
X145975724Y-161828285D01*
X145988285Y-161815724D01*
X146064786Y-161713649D01*
X146073324Y-161698054D01*
X146118478Y-161577606D01*
X146122105Y-161562351D01*
X146127631Y-161511486D01*
X146128000Y-161504672D01*
X146128000Y-161232115D01*
X146123525Y-161216876D01*
X146122135Y-161215671D01*
X146114452Y-161214000D01*
X145142115Y-161214000D01*
X145126876Y-161218475D01*
X145125671Y-161219865D01*
X145124000Y-161227548D01*
X145124000Y-161949884D01*
X144616000Y-161949884D01*
X144616000Y-161232115D01*
X144611525Y-161216876D01*
X144610135Y-161215671D01*
X144602452Y-161214000D01*
X143630116Y-161214000D01*
X143614877Y-161218475D01*
X143613672Y-161219865D01*
X143612001Y-161227548D01*
X143612001Y-161504669D01*
X114729338Y-161504669D01*
X113095770Y-160687885D01*
X143612000Y-160687885D01*
X143616475Y-160703124D01*
X143617865Y-160704329D01*
X143625548Y-160706000D01*
X144597885Y-160706000D01*
X144613124Y-160701525D01*
X144614329Y-160700135D01*
X144616000Y-160692452D01*
X144616000Y-160687885D01*
X145124000Y-160687885D01*
X145128475Y-160703124D01*
X145129865Y-160704329D01*
X145137548Y-160706000D01*
X146109884Y-160706000D01*
X146125123Y-160701525D01*
X146126328Y-160700135D01*
X146127999Y-160692452D01*
X146127999Y-160415331D01*
X146127629Y-160408510D01*
X146122105Y-160357648D01*
X146118479Y-160342396D01*
X146073324Y-160221946D01*
X146064786Y-160206351D01*
X145988285Y-160104276D01*
X145975724Y-160091715D01*
X145873649Y-160015214D01*
X145858054Y-160006676D01*
X145737606Y-159961522D01*
X145722351Y-159957895D01*
X145671486Y-159952369D01*
X145664672Y-159952000D01*
X145142115Y-159952000D01*
X145126876Y-159956475D01*
X145125671Y-159957865D01*
X145124000Y-159965548D01*
X145124000Y-160687885D01*
X144616000Y-160687885D01*
X144616000Y-159970116D01*
X144611525Y-159954877D01*
X144610135Y-159953672D01*
X144602452Y-159952001D01*
X144075331Y-159952001D01*
X144068510Y-159952371D01*
X144017648Y-159957895D01*
X144002396Y-159961521D01*
X143881946Y-160006676D01*
X143866351Y-160015214D01*
X143764276Y-160091715D01*
X143751715Y-160104276D01*
X143675214Y-160206351D01*
X143666676Y-160221946D01*
X143621522Y-160342394D01*
X143617895Y-160357649D01*
X143612369Y-160408514D01*
X143612000Y-160415328D01*
X143612000Y-160687885D01*
X113095770Y-160687885D01*
X111510096Y-159895048D01*
X111477350Y-159871445D01*
X110425405Y-158819500D01*
X110391379Y-158757188D01*
X110388500Y-158730405D01*
X110388500Y-157871866D01*
X110381745Y-157809684D01*
X110330615Y-157673295D01*
X110243261Y-157556739D01*
X110140869Y-157480000D01*
X143866496Y-157480000D01*
X143886458Y-157669928D01*
X143945473Y-157851556D01*
X144040960Y-158016944D01*
X144045378Y-158021851D01*
X144045379Y-158021852D01*
X144062563Y-158040937D01*
X144168747Y-158158866D01*
X144323248Y-158271118D01*
X144329276Y-158273802D01*
X144329278Y-158273803D01*
X144401855Y-158306116D01*
X144497712Y-158348794D01*
X144591113Y-158368647D01*
X144678056Y-158387128D01*
X144678061Y-158387128D01*
X144684513Y-158388500D01*
X144875487Y-158388500D01*
X144881939Y-158387128D01*
X144881944Y-158387128D01*
X144968887Y-158368647D01*
X145062288Y-158348794D01*
X145158145Y-158306116D01*
X145230722Y-158273803D01*
X145230724Y-158273802D01*
X145236752Y-158271118D01*
X145356617Y-158184031D01*
X145391253Y-158158866D01*
X145392449Y-158160512D01*
X145447780Y-158133965D01*
X145518233Y-158142737D01*
X145566070Y-158179484D01*
X145568884Y-158184031D01*
X145574065Y-158189203D01*
X145686816Y-158301758D01*
X145686821Y-158301762D01*
X145691997Y-158306929D01*
X145840080Y-158398209D01*
X146005191Y-158452974D01*
X146012027Y-158453674D01*
X146012030Y-158453675D01*
X146059370Y-158458525D01*
X146107928Y-158463500D01*
X146807072Y-158463500D01*
X146810318Y-158463163D01*
X146810322Y-158463163D01*
X146904235Y-158453419D01*
X146904239Y-158453418D01*
X146911093Y-158452707D01*
X146917629Y-158450526D01*
X146917631Y-158450526D01*
X147050395Y-158406232D01*
X147076107Y-158397654D01*
X147224031Y-158306116D01*
X147231274Y-158298861D01*
X147233038Y-158297895D01*
X147234941Y-158296387D01*
X147235199Y-158296713D01*
X147293554Y-158264781D01*
X147364375Y-158269782D01*
X147409470Y-158298708D01*
X147412131Y-158301364D01*
X147423540Y-158310375D01*
X147559063Y-158393912D01*
X147572241Y-158400056D01*
X147723766Y-158450315D01*
X147737132Y-158453181D01*
X147829770Y-158462672D01*
X147836185Y-158463000D01*
X147910385Y-158463000D01*
X147925624Y-158458525D01*
X147926829Y-158457135D01*
X147928500Y-158449452D01*
X147928500Y-158444885D01*
X148436500Y-158444885D01*
X148440975Y-158460124D01*
X148442365Y-158461329D01*
X148450048Y-158463000D01*
X148528766Y-158463000D01*
X148535282Y-158462663D01*
X148629132Y-158452925D01*
X148642528Y-158450032D01*
X148793953Y-158399512D01*
X148807115Y-158393347D01*
X148942492Y-158309574D01*
X148953890Y-158300540D01*
X149066363Y-158187871D01*
X149075375Y-158176460D01*
X149158912Y-158040937D01*
X149165056Y-158027759D01*
X149215315Y-157876234D01*
X149218181Y-157862868D01*
X149227672Y-157770230D01*
X149228000Y-157763815D01*
X149228000Y-157752115D01*
X149223525Y-157736876D01*
X149222135Y-157735671D01*
X149214452Y-157734000D01*
X148454615Y-157734000D01*
X148439376Y-157738475D01*
X148438171Y-157739865D01*
X148436500Y-157747548D01*
X148436500Y-158444885D01*
X147928500Y-158444885D01*
X147928500Y-157207885D01*
X148436500Y-157207885D01*
X148440975Y-157223124D01*
X148442365Y-157224329D01*
X148450048Y-157226000D01*
X149209885Y-157226000D01*
X149225124Y-157221525D01*
X149226329Y-157220135D01*
X149228000Y-157212452D01*
X149228000Y-157196234D01*
X149227663Y-157189718D01*
X149217925Y-157095868D01*
X149215032Y-157082472D01*
X149164512Y-156931047D01*
X149158347Y-156917885D01*
X149074574Y-156782508D01*
X149065540Y-156771110D01*
X148952871Y-156658637D01*
X148941460Y-156649625D01*
X148805937Y-156566088D01*
X148792759Y-156559944D01*
X148641234Y-156509685D01*
X148627868Y-156506819D01*
X148535230Y-156497328D01*
X148528815Y-156497000D01*
X148454615Y-156497000D01*
X148439376Y-156501475D01*
X148438171Y-156502865D01*
X148436500Y-156510548D01*
X148436500Y-157207885D01*
X147928500Y-157207885D01*
X147928500Y-156515115D01*
X147924025Y-156499876D01*
X147922635Y-156498671D01*
X147914952Y-156497000D01*
X147836234Y-156497000D01*
X147829718Y-156497337D01*
X147735868Y-156507075D01*
X147722472Y-156509968D01*
X147571047Y-156560488D01*
X147557885Y-156566653D01*
X147422508Y-156650426D01*
X147411106Y-156659464D01*
X147409433Y-156661139D01*
X147408007Y-156661919D01*
X147405373Y-156664007D01*
X147405016Y-156663556D01*
X147347151Y-156695219D01*
X147276331Y-156690216D01*
X147231246Y-156661299D01*
X147228185Y-156658244D01*
X147223003Y-156653071D01*
X147216772Y-156649230D01*
X147081150Y-156565631D01*
X147081148Y-156565630D01*
X147074920Y-156561791D01*
X146909809Y-156507026D01*
X146902973Y-156506326D01*
X146902970Y-156506325D01*
X146851474Y-156501049D01*
X146807072Y-156496500D01*
X146107928Y-156496500D01*
X146104682Y-156496837D01*
X146104678Y-156496837D01*
X146010765Y-156506581D01*
X146010761Y-156506582D01*
X146003907Y-156507293D01*
X145997371Y-156509474D01*
X145997369Y-156509474D01*
X145864605Y-156553768D01*
X145838893Y-156562346D01*
X145690969Y-156653884D01*
X145568071Y-156776997D01*
X145565894Y-156780529D01*
X145509043Y-156820838D01*
X145438120Y-156824071D01*
X145392225Y-156799796D01*
X145391253Y-156801134D01*
X145242094Y-156692763D01*
X145242093Y-156692762D01*
X145236752Y-156688882D01*
X145230724Y-156686198D01*
X145230722Y-156686197D01*
X145068319Y-156613891D01*
X145068318Y-156613891D01*
X145062288Y-156611206D01*
X144968888Y-156591353D01*
X144881944Y-156572872D01*
X144881939Y-156572872D01*
X144875487Y-156571500D01*
X144684513Y-156571500D01*
X144678061Y-156572872D01*
X144678056Y-156572872D01*
X144591112Y-156591353D01*
X144497712Y-156611206D01*
X144491682Y-156613891D01*
X144491681Y-156613891D01*
X144329278Y-156686197D01*
X144329276Y-156686198D01*
X144323248Y-156688882D01*
X144168747Y-156801134D01*
X144040960Y-156943056D01*
X143945473Y-157108444D01*
X143886458Y-157290072D01*
X143885768Y-157296633D01*
X143885768Y-157296635D01*
X143873665Y-157411789D01*
X143866496Y-157480000D01*
X110140869Y-157480000D01*
X110126705Y-157469385D01*
X109990316Y-157418255D01*
X109928134Y-157411500D01*
X108331866Y-157411500D01*
X108269684Y-157418255D01*
X108133295Y-157469385D01*
X108016739Y-157556739D01*
X107929385Y-157673295D01*
X107878255Y-157809684D01*
X107871500Y-157871866D01*
X107871500Y-157875282D01*
X107871316Y-157878680D01*
X107869531Y-157878583D01*
X107851498Y-157939999D01*
X107797842Y-157986492D01*
X107727568Y-157996596D01*
X107689154Y-157984577D01*
X103834850Y-156057425D01*
X103782867Y-156009071D01*
X103765278Y-155940288D01*
X103787669Y-155872914D01*
X103842929Y-155828341D01*
X103917397Y-155821481D01*
X104038056Y-155847128D01*
X104038061Y-155847128D01*
X104044513Y-155848500D01*
X104235487Y-155848500D01*
X104241939Y-155847128D01*
X104241944Y-155847128D01*
X104330327Y-155828341D01*
X104422288Y-155808794D01*
X104518145Y-155766116D01*
X104590722Y-155733803D01*
X104590724Y-155733802D01*
X104596752Y-155731118D01*
X104716617Y-155644031D01*
X104751253Y-155618866D01*
X104752449Y-155620512D01*
X104807780Y-155593965D01*
X104878233Y-155602737D01*
X104926070Y-155639484D01*
X104928884Y-155644031D01*
X104934065Y-155649203D01*
X105046816Y-155761758D01*
X105046821Y-155761762D01*
X105051997Y-155766929D01*
X105200080Y-155858209D01*
X105365191Y-155912974D01*
X105372027Y-155913674D01*
X105372030Y-155913675D01*
X105419370Y-155918525D01*
X105467928Y-155923500D01*
X106167072Y-155923500D01*
X106170318Y-155923163D01*
X106170322Y-155923163D01*
X106264235Y-155913419D01*
X106264239Y-155913418D01*
X106271093Y-155912707D01*
X106277629Y-155910526D01*
X106277631Y-155910526D01*
X106423959Y-155861707D01*
X106436107Y-155857654D01*
X106584031Y-155766116D01*
X106591274Y-155758861D01*
X106593038Y-155757895D01*
X106594941Y-155756387D01*
X106595199Y-155756713D01*
X106653554Y-155724781D01*
X106724375Y-155729782D01*
X106769470Y-155758708D01*
X106772131Y-155761364D01*
X106783540Y-155770375D01*
X106919063Y-155853912D01*
X106932241Y-155860056D01*
X107083766Y-155910315D01*
X107097132Y-155913181D01*
X107189770Y-155922672D01*
X107196185Y-155923000D01*
X107270385Y-155923000D01*
X107285624Y-155918525D01*
X107286829Y-155917135D01*
X107288500Y-155909452D01*
X107288500Y-155904885D01*
X107796500Y-155904885D01*
X107800975Y-155920124D01*
X107802365Y-155921329D01*
X107810048Y-155923000D01*
X107888766Y-155923000D01*
X107895282Y-155922663D01*
X107989132Y-155912925D01*
X108002528Y-155910032D01*
X108153953Y-155859512D01*
X108167115Y-155853347D01*
X108302492Y-155769574D01*
X108313890Y-155760540D01*
X108426363Y-155647871D01*
X108435375Y-155636460D01*
X108518912Y-155500937D01*
X108525056Y-155487759D01*
X108575315Y-155336234D01*
X108578181Y-155322868D01*
X108587672Y-155230230D01*
X108588000Y-155223815D01*
X108588000Y-155212115D01*
X108583525Y-155196876D01*
X108582135Y-155195671D01*
X108574452Y-155194000D01*
X107814615Y-155194000D01*
X107799376Y-155198475D01*
X107798171Y-155199865D01*
X107796500Y-155207548D01*
X107796500Y-155904885D01*
X107288500Y-155904885D01*
X107288500Y-154667885D01*
X107796500Y-154667885D01*
X107800975Y-154683124D01*
X107802365Y-154684329D01*
X107810048Y-154686000D01*
X108569885Y-154686000D01*
X108585124Y-154681525D01*
X108586329Y-154680135D01*
X108588000Y-154672452D01*
X108588000Y-154656234D01*
X108587663Y-154649718D01*
X108577925Y-154555868D01*
X108575032Y-154542472D01*
X108524512Y-154391047D01*
X108518347Y-154377885D01*
X108434574Y-154242508D01*
X108425540Y-154231110D01*
X108312871Y-154118637D01*
X108301460Y-154109625D01*
X108165937Y-154026088D01*
X108152759Y-154019944D01*
X108001234Y-153969685D01*
X107987868Y-153966819D01*
X107895230Y-153957328D01*
X107888815Y-153957000D01*
X107814615Y-153957000D01*
X107799376Y-153961475D01*
X107798171Y-153962865D01*
X107796500Y-153970548D01*
X107796500Y-154667885D01*
X107288500Y-154667885D01*
X107288500Y-153975115D01*
X107284025Y-153959876D01*
X107282635Y-153958671D01*
X107274952Y-153957000D01*
X107196234Y-153957000D01*
X107189718Y-153957337D01*
X107095868Y-153967075D01*
X107082472Y-153969968D01*
X106931047Y-154020488D01*
X106917885Y-154026653D01*
X106782508Y-154110426D01*
X106771106Y-154119464D01*
X106769433Y-154121139D01*
X106768007Y-154121919D01*
X106765373Y-154124007D01*
X106765016Y-154123556D01*
X106707151Y-154155219D01*
X106636331Y-154150216D01*
X106591246Y-154121299D01*
X106588185Y-154118244D01*
X106583003Y-154113071D01*
X106434920Y-154021791D01*
X106269809Y-153967026D01*
X106262973Y-153966326D01*
X106262970Y-153966325D01*
X106211474Y-153961049D01*
X106167072Y-153956500D01*
X105467928Y-153956500D01*
X105464682Y-153956837D01*
X105464678Y-153956837D01*
X105370765Y-153966581D01*
X105370761Y-153966582D01*
X105363907Y-153967293D01*
X105357371Y-153969474D01*
X105357369Y-153969474D01*
X105224605Y-154013768D01*
X105198893Y-154022346D01*
X105050969Y-154113884D01*
X104928071Y-154236997D01*
X104925894Y-154240529D01*
X104869043Y-154280838D01*
X104798120Y-154284071D01*
X104752225Y-154259796D01*
X104751253Y-154261134D01*
X104602094Y-154152763D01*
X104602093Y-154152762D01*
X104596752Y-154148882D01*
X104590724Y-154146198D01*
X104590722Y-154146197D01*
X104428319Y-154073891D01*
X104428318Y-154073891D01*
X104422288Y-154071206D01*
X104328887Y-154051353D01*
X104241944Y-154032872D01*
X104241939Y-154032872D01*
X104235487Y-154031500D01*
X104044513Y-154031500D01*
X104038061Y-154032872D01*
X104038056Y-154032872D01*
X103951113Y-154051353D01*
X103857712Y-154071206D01*
X103851682Y-154073891D01*
X103851681Y-154073891D01*
X103689278Y-154146197D01*
X103689276Y-154146198D01*
X103683248Y-154148882D01*
X103528747Y-154261134D01*
X103400960Y-154403056D01*
X103305473Y-154568444D01*
X103246458Y-154750072D01*
X103226496Y-154940000D01*
X103246458Y-155129928D01*
X103305473Y-155311556D01*
X103400960Y-155476944D01*
X103405378Y-155481851D01*
X103405379Y-155481852D01*
X103422563Y-155500937D01*
X103528747Y-155618866D01*
X103549522Y-155633960D01*
X103553768Y-155637045D01*
X103597122Y-155693268D01*
X103603197Y-155764004D01*
X103570065Y-155826796D01*
X103508245Y-155861707D01*
X103437364Y-155857653D01*
X103423358Y-155851679D01*
X91461050Y-149870525D01*
X91424167Y-149842584D01*
X85862426Y-143724669D01*
X174092001Y-143724669D01*
X174092371Y-143731490D01*
X174097895Y-143782352D01*
X174101521Y-143797604D01*
X174146676Y-143918054D01*
X174155214Y-143933649D01*
X174231715Y-144035724D01*
X174244276Y-144048285D01*
X174346351Y-144124786D01*
X174361946Y-144133324D01*
X174482394Y-144178478D01*
X174497649Y-144182105D01*
X174548514Y-144187631D01*
X174555328Y-144188000D01*
X175077885Y-144188000D01*
X175093124Y-144183525D01*
X175094329Y-144182135D01*
X175096000Y-144174452D01*
X175096000Y-144169884D01*
X175604000Y-144169884D01*
X175608475Y-144185123D01*
X175609865Y-144186328D01*
X175617548Y-144187999D01*
X176144669Y-144187999D01*
X176151490Y-144187629D01*
X176202352Y-144182105D01*
X176217604Y-144178479D01*
X176338054Y-144133324D01*
X176353649Y-144124786D01*
X176455724Y-144048285D01*
X176468285Y-144035724D01*
X176544786Y-143933649D01*
X176553324Y-143918054D01*
X176598478Y-143797606D01*
X176602105Y-143782351D01*
X176607631Y-143731486D01*
X176608000Y-143724672D01*
X176608000Y-143452115D01*
X176603525Y-143436876D01*
X176602135Y-143435671D01*
X176594452Y-143434000D01*
X175622115Y-143434000D01*
X175606876Y-143438475D01*
X175605671Y-143439865D01*
X175604000Y-143447548D01*
X175604000Y-144169884D01*
X175096000Y-144169884D01*
X175096000Y-143452115D01*
X175091525Y-143436876D01*
X175090135Y-143435671D01*
X175082452Y-143434000D01*
X174110116Y-143434000D01*
X174094877Y-143438475D01*
X174093672Y-143439865D01*
X174092001Y-143447548D01*
X174092001Y-143724669D01*
X85862426Y-143724669D01*
X85119895Y-142907885D01*
X174092000Y-142907885D01*
X174096475Y-142923124D01*
X174097865Y-142924329D01*
X174105548Y-142926000D01*
X175077885Y-142926000D01*
X175093124Y-142921525D01*
X175094329Y-142920135D01*
X175096000Y-142912452D01*
X175096000Y-142907885D01*
X175604000Y-142907885D01*
X175608475Y-142923124D01*
X175609865Y-142924329D01*
X175617548Y-142926000D01*
X176589884Y-142926000D01*
X176605123Y-142921525D01*
X176606328Y-142920135D01*
X176607999Y-142912452D01*
X176607999Y-142635331D01*
X176607629Y-142628510D01*
X176602105Y-142577648D01*
X176598479Y-142562396D01*
X176553324Y-142441946D01*
X176544786Y-142426351D01*
X176468285Y-142324276D01*
X176455724Y-142311715D01*
X176353649Y-142235214D01*
X176338054Y-142226676D01*
X176217606Y-142181522D01*
X176202351Y-142177895D01*
X176151486Y-142172369D01*
X176144672Y-142172000D01*
X175622115Y-142172000D01*
X175606876Y-142176475D01*
X175605671Y-142177865D01*
X175604000Y-142185548D01*
X175604000Y-142907885D01*
X175096000Y-142907885D01*
X175096000Y-142190116D01*
X175091525Y-142174877D01*
X175090135Y-142173672D01*
X175082452Y-142172001D01*
X174555331Y-142172001D01*
X174548510Y-142172371D01*
X174497648Y-142177895D01*
X174482396Y-142181521D01*
X174361946Y-142226676D01*
X174346351Y-142235214D01*
X174244276Y-142311715D01*
X174231715Y-142324276D01*
X174155214Y-142426351D01*
X174146676Y-142441946D01*
X174101522Y-142562394D01*
X174097895Y-142577649D01*
X174092369Y-142628514D01*
X174092000Y-142635328D01*
X174092000Y-142907885D01*
X85119895Y-142907885D01*
X82461605Y-139983766D01*
X175892000Y-139983766D01*
X175892337Y-139990282D01*
X175902075Y-140084132D01*
X175904968Y-140097528D01*
X175955488Y-140248953D01*
X175961653Y-140262115D01*
X176045426Y-140397492D01*
X176054460Y-140408890D01*
X176167129Y-140521363D01*
X176178540Y-140530375D01*
X176314063Y-140613912D01*
X176327241Y-140620056D01*
X176478766Y-140670315D01*
X176492132Y-140673181D01*
X176584770Y-140682672D01*
X176591185Y-140683000D01*
X176665385Y-140683000D01*
X176680624Y-140678525D01*
X176681829Y-140677135D01*
X176683500Y-140669452D01*
X176683500Y-140664885D01*
X177191500Y-140664885D01*
X177195975Y-140680124D01*
X177197365Y-140681329D01*
X177205048Y-140683000D01*
X177283766Y-140683000D01*
X177290282Y-140682663D01*
X177384132Y-140672925D01*
X177397528Y-140670032D01*
X177548953Y-140619512D01*
X177562115Y-140613347D01*
X177697492Y-140529574D01*
X177708894Y-140520536D01*
X177710567Y-140518861D01*
X177711993Y-140518081D01*
X177714627Y-140515993D01*
X177714984Y-140516444D01*
X177772849Y-140484781D01*
X177843669Y-140489784D01*
X177888754Y-140518701D01*
X177891421Y-140521363D01*
X177896997Y-140526929D01*
X178045080Y-140618209D01*
X178210191Y-140672974D01*
X178217027Y-140673674D01*
X178217030Y-140673675D01*
X178264370Y-140678525D01*
X178312928Y-140683500D01*
X179012072Y-140683500D01*
X179015318Y-140683163D01*
X179015322Y-140683163D01*
X179109235Y-140673419D01*
X179109239Y-140673418D01*
X179116093Y-140672707D01*
X179122629Y-140670526D01*
X179122631Y-140670526D01*
X179255395Y-140626232D01*
X179281107Y-140617654D01*
X179429031Y-140526116D01*
X179551929Y-140403003D01*
X179554106Y-140399471D01*
X179610957Y-140359162D01*
X179681880Y-140355929D01*
X179727775Y-140380204D01*
X179728747Y-140378866D01*
X179763384Y-140404031D01*
X179883248Y-140491118D01*
X179889276Y-140493802D01*
X179889278Y-140493803D01*
X179952062Y-140521756D01*
X180057712Y-140568794D01*
X180151113Y-140588647D01*
X180238056Y-140607128D01*
X180238061Y-140607128D01*
X180244513Y-140608500D01*
X180435487Y-140608500D01*
X180441939Y-140607128D01*
X180441944Y-140607128D01*
X180528887Y-140588647D01*
X180622288Y-140568794D01*
X180727938Y-140521756D01*
X180790722Y-140493803D01*
X180790724Y-140493802D01*
X180796752Y-140491118D01*
X180951253Y-140378866D01*
X181079040Y-140236944D01*
X181174527Y-140071556D01*
X181233542Y-139889928D01*
X181253504Y-139700000D01*
X181233542Y-139510072D01*
X181174527Y-139328444D01*
X181079040Y-139163056D01*
X181062855Y-139145080D01*
X180955675Y-139026045D01*
X180955674Y-139026044D01*
X180951253Y-139021134D01*
X180796752Y-138908882D01*
X180790724Y-138906198D01*
X180790722Y-138906197D01*
X180628319Y-138833891D01*
X180628318Y-138833891D01*
X180622288Y-138831206D01*
X180528888Y-138811353D01*
X180441944Y-138792872D01*
X180441939Y-138792872D01*
X180435487Y-138791500D01*
X180244513Y-138791500D01*
X180238061Y-138792872D01*
X180238056Y-138792872D01*
X180151112Y-138811353D01*
X180057712Y-138831206D01*
X180051682Y-138833891D01*
X180051681Y-138833891D01*
X179889278Y-138906197D01*
X179889276Y-138906198D01*
X179883248Y-138908882D01*
X179877907Y-138912762D01*
X179877906Y-138912763D01*
X179761969Y-138996997D01*
X179728747Y-139021134D01*
X179727551Y-139019488D01*
X179672220Y-139046035D01*
X179601767Y-139037263D01*
X179553930Y-139000516D01*
X179551116Y-138995969D01*
X179529652Y-138974542D01*
X179433184Y-138878242D01*
X179433179Y-138878238D01*
X179428003Y-138873071D01*
X179279920Y-138781791D01*
X179114809Y-138727026D01*
X179107973Y-138726326D01*
X179107970Y-138726325D01*
X179056474Y-138721049D01*
X179012072Y-138716500D01*
X178312928Y-138716500D01*
X178309682Y-138716837D01*
X178309678Y-138716837D01*
X178215765Y-138726581D01*
X178215761Y-138726582D01*
X178208907Y-138727293D01*
X178202371Y-138729474D01*
X178202369Y-138729474D01*
X178069605Y-138773768D01*
X178043893Y-138782346D01*
X177895969Y-138873884D01*
X177890797Y-138879065D01*
X177888727Y-138881139D01*
X177886962Y-138882105D01*
X177885059Y-138883613D01*
X177884801Y-138883287D01*
X177826446Y-138915219D01*
X177755625Y-138910218D01*
X177710530Y-138881292D01*
X177707869Y-138878636D01*
X177696460Y-138869625D01*
X177560937Y-138786088D01*
X177547759Y-138779944D01*
X177396234Y-138729685D01*
X177382868Y-138726819D01*
X177290230Y-138717328D01*
X177283815Y-138717000D01*
X177209615Y-138717000D01*
X177194376Y-138721475D01*
X177193171Y-138722865D01*
X177191500Y-138730548D01*
X177191500Y-140664885D01*
X176683500Y-140664885D01*
X176683500Y-139972115D01*
X176679025Y-139956876D01*
X176677635Y-139955671D01*
X176669952Y-139954000D01*
X175910115Y-139954000D01*
X175894876Y-139958475D01*
X175893671Y-139959865D01*
X175892000Y-139967548D01*
X175892000Y-139983766D01*
X82461605Y-139983766D01*
X81956259Y-139427885D01*
X175892000Y-139427885D01*
X175896475Y-139443124D01*
X175897865Y-139444329D01*
X175905548Y-139446000D01*
X176665385Y-139446000D01*
X176680624Y-139441525D01*
X176681829Y-139440135D01*
X176683500Y-139432452D01*
X176683500Y-138735115D01*
X176679025Y-138719876D01*
X176677635Y-138718671D01*
X176669952Y-138717000D01*
X176591234Y-138717000D01*
X176584718Y-138717337D01*
X176490868Y-138727075D01*
X176477472Y-138729968D01*
X176326047Y-138780488D01*
X176312885Y-138786653D01*
X176177508Y-138870426D01*
X176166110Y-138879460D01*
X176053637Y-138992129D01*
X176044625Y-139003540D01*
X175961088Y-139139063D01*
X175954944Y-139152241D01*
X175904685Y-139303766D01*
X175901819Y-139317132D01*
X175892328Y-139409770D01*
X175892000Y-139416185D01*
X175892000Y-139427885D01*
X81956259Y-139427885D01*
X79602631Y-136838894D01*
X79580238Y-136800318D01*
X79579253Y-136800756D01*
X79576568Y-136794725D01*
X79574527Y-136788444D01*
X79479040Y-136623056D01*
X79351253Y-136481134D01*
X79335437Y-136469643D01*
X79292084Y-136413420D01*
X79283500Y-136367708D01*
X79283500Y-134814500D01*
X79303502Y-134746379D01*
X79357158Y-134699886D01*
X79409500Y-134688500D01*
X79448134Y-134688500D01*
X79510316Y-134681745D01*
X79646705Y-134630615D01*
X79763261Y-134543261D01*
X79850615Y-134426705D01*
X79901745Y-134290316D01*
X79908500Y-134228134D01*
X79908500Y-133131866D01*
X79901745Y-133069684D01*
X79850615Y-132933295D01*
X79763261Y-132816739D01*
X79646705Y-132729385D01*
X79510316Y-132678255D01*
X79448134Y-132671500D01*
X77851866Y-132671500D01*
X77789684Y-132678255D01*
X77653295Y-132729385D01*
X77536739Y-132816739D01*
X77449385Y-132933295D01*
X77398255Y-133069684D01*
X77391500Y-133131866D01*
X77391500Y-134080738D01*
X77371498Y-134148859D01*
X77317842Y-134195352D01*
X77247568Y-134205456D01*
X77182988Y-134175962D01*
X77172268Y-134165495D01*
X74803454Y-131559800D01*
X74772432Y-131495941D01*
X74780859Y-131425446D01*
X74821122Y-131374218D01*
X74855723Y-131348286D01*
X74868285Y-131335724D01*
X74944786Y-131233649D01*
X74953324Y-131218054D01*
X74998478Y-131097606D01*
X75002105Y-131082351D01*
X75007631Y-131031486D01*
X75007813Y-131028134D01*
X77391500Y-131028134D01*
X77398255Y-131090316D01*
X77449385Y-131226705D01*
X77536739Y-131343261D01*
X77653295Y-131430615D01*
X77789684Y-131481745D01*
X77851866Y-131488500D01*
X79448134Y-131488500D01*
X79510316Y-131481745D01*
X79646705Y-131430615D01*
X79763261Y-131343261D01*
X79850615Y-131226705D01*
X79853769Y-131218293D01*
X79862401Y-131195269D01*
X79905043Y-131138505D01*
X79971605Y-131113806D01*
X79980382Y-131113500D01*
X80170500Y-131113500D01*
X80238621Y-131133502D01*
X80285114Y-131187158D01*
X80296500Y-131239500D01*
X80296500Y-131467072D01*
X80296837Y-131470318D01*
X80296837Y-131470322D01*
X80297735Y-131478971D01*
X80307293Y-131571093D01*
X80309474Y-131577629D01*
X80309474Y-131577631D01*
X80353768Y-131710395D01*
X80362346Y-131736107D01*
X80453884Y-131884031D01*
X80459066Y-131889204D01*
X80560786Y-131990747D01*
X80594865Y-132053030D01*
X80589862Y-132123850D01*
X80560941Y-132168937D01*
X80458246Y-132271812D01*
X80458242Y-132271817D01*
X80453071Y-132276997D01*
X80449231Y-132283227D01*
X80449230Y-132283228D01*
X80366364Y-132417662D01*
X80361791Y-132425080D01*
X80307026Y-132590191D01*
X80296500Y-132692928D01*
X80296500Y-133292072D01*
X80307293Y-133396093D01*
X80362346Y-133561107D01*
X80453884Y-133709031D01*
X80576997Y-133831929D01*
X80583180Y-133835740D01*
X80624232Y-133893639D01*
X80627464Y-133964562D01*
X80598715Y-134018913D01*
X80540960Y-134083056D01*
X80445473Y-134248444D01*
X80386458Y-134430072D01*
X80366496Y-134620000D01*
X80367186Y-134626565D01*
X80373696Y-134688500D01*
X80386458Y-134809928D01*
X80445473Y-134991556D01*
X80540960Y-135156944D01*
X80668747Y-135298866D01*
X80823248Y-135411118D01*
X80829276Y-135413802D01*
X80829278Y-135413803D01*
X80991681Y-135486109D01*
X80997712Y-135488794D01*
X81091112Y-135508647D01*
X81178056Y-135527128D01*
X81178061Y-135527128D01*
X81184513Y-135528500D01*
X81375487Y-135528500D01*
X81381939Y-135527128D01*
X81381944Y-135527128D01*
X81468888Y-135508647D01*
X81562288Y-135488794D01*
X81568319Y-135486109D01*
X81730722Y-135413803D01*
X81730724Y-135413802D01*
X81736752Y-135411118D01*
X81891253Y-135298866D01*
X82019040Y-135156944D01*
X82114527Y-134991556D01*
X82173542Y-134809928D01*
X82186305Y-134688500D01*
X82192814Y-134626565D01*
X82193504Y-134620000D01*
X82173542Y-134430072D01*
X82114527Y-134248444D01*
X82019040Y-134083056D01*
X81961296Y-134018925D01*
X81930579Y-133954917D01*
X81939344Y-133884463D01*
X81976670Y-133835869D01*
X81977809Y-133834966D01*
X81984031Y-133831116D01*
X81989199Y-133825939D01*
X82101758Y-133713184D01*
X82101762Y-133713179D01*
X82106929Y-133708003D01*
X82187651Y-133577048D01*
X82194369Y-133566150D01*
X82194370Y-133566148D01*
X82198209Y-133559920D01*
X82252974Y-133394809D01*
X82263500Y-133292072D01*
X82263500Y-132692928D01*
X82263163Y-132689678D01*
X82253419Y-132595765D01*
X82253418Y-132595761D01*
X82252707Y-132588907D01*
X82197654Y-132423893D01*
X82106116Y-132275969D01*
X82100934Y-132270796D01*
X81999214Y-132169253D01*
X81965135Y-132106970D01*
X81970138Y-132036150D01*
X81999059Y-131991063D01*
X82101754Y-131888188D01*
X82101758Y-131888183D01*
X82106929Y-131883003D01*
X82110770Y-131876772D01*
X82194369Y-131741150D01*
X82194370Y-131741148D01*
X82198209Y-131734920D01*
X82252974Y-131569809D01*
X82254000Y-131559800D01*
X82260542Y-131495941D01*
X82263500Y-131467072D01*
X82263500Y-130867928D01*
X82252707Y-130763907D01*
X82237982Y-130719769D01*
X82199972Y-130605841D01*
X82197654Y-130598893D01*
X82106116Y-130450969D01*
X82035053Y-130380030D01*
X81988184Y-130333242D01*
X81988179Y-130333238D01*
X81983003Y-130328071D01*
X81834920Y-130236791D01*
X81669809Y-130182026D01*
X81662973Y-130181326D01*
X81662970Y-130181325D01*
X81611474Y-130176049D01*
X81567072Y-130171500D01*
X81232095Y-130171500D01*
X81163974Y-130151498D01*
X81143000Y-130134595D01*
X81096152Y-130087747D01*
X81088612Y-130079461D01*
X81084500Y-130072982D01*
X81034848Y-130026356D01*
X81032007Y-130023602D01*
X81012270Y-130003865D01*
X81009073Y-130001385D01*
X81000051Y-129993680D01*
X80973600Y-129968841D01*
X80967821Y-129963414D01*
X80960875Y-129959595D01*
X80960872Y-129959593D01*
X80950066Y-129953652D01*
X80933547Y-129942801D01*
X80923854Y-129935283D01*
X80917541Y-129930386D01*
X80910272Y-129927241D01*
X80910268Y-129927238D01*
X80876963Y-129912826D01*
X80866313Y-129907609D01*
X80827560Y-129886305D01*
X80807937Y-129881267D01*
X80789234Y-129874863D01*
X80777920Y-129869967D01*
X80777919Y-129869967D01*
X80770645Y-129866819D01*
X80762822Y-129865580D01*
X80762812Y-129865577D01*
X80726976Y-129859901D01*
X80715356Y-129857495D01*
X80680211Y-129848472D01*
X80680210Y-129848472D01*
X80672530Y-129846500D01*
X80652276Y-129846500D01*
X80632565Y-129844949D01*
X80620386Y-129843020D01*
X80612557Y-129841780D01*
X80604665Y-129842526D01*
X80568539Y-129845941D01*
X80556681Y-129846500D01*
X79980382Y-129846500D01*
X79912261Y-129826498D01*
X79865768Y-129772842D01*
X79862401Y-129764731D01*
X79853769Y-129741707D01*
X79853767Y-129741703D01*
X79850615Y-129733295D01*
X79763261Y-129616739D01*
X79646705Y-129529385D01*
X79510316Y-129478255D01*
X79448134Y-129471500D01*
X77851866Y-129471500D01*
X77789684Y-129478255D01*
X77653295Y-129529385D01*
X77536739Y-129616739D01*
X77449385Y-129733295D01*
X77398255Y-129869684D01*
X77391500Y-129931866D01*
X77391500Y-131028134D01*
X75007813Y-131028134D01*
X75008000Y-131024672D01*
X75008000Y-130752115D01*
X75003525Y-130736876D01*
X75002135Y-130735671D01*
X74994452Y-130734000D01*
X74052727Y-130734000D01*
X73574441Y-130207885D01*
X74004000Y-130207885D01*
X74008475Y-130223124D01*
X74009865Y-130224329D01*
X74017548Y-130226000D01*
X74989884Y-130226000D01*
X75005123Y-130221525D01*
X75006328Y-130220135D01*
X75007999Y-130212452D01*
X75007999Y-129935331D01*
X75007629Y-129928510D01*
X75002105Y-129877648D01*
X74998479Y-129862396D01*
X74953324Y-129741946D01*
X74944786Y-129726351D01*
X74868285Y-129624276D01*
X74855724Y-129611715D01*
X74753649Y-129535214D01*
X74738054Y-129526676D01*
X74617606Y-129481522D01*
X74602351Y-129477895D01*
X74551486Y-129472369D01*
X74544672Y-129472000D01*
X74022115Y-129472000D01*
X74006876Y-129476475D01*
X74005671Y-129477865D01*
X74004000Y-129485548D01*
X74004000Y-130207885D01*
X73574441Y-130207885D01*
X73496000Y-130121600D01*
X73496000Y-129490116D01*
X73491525Y-129474877D01*
X73490135Y-129473672D01*
X73482452Y-129472001D01*
X72961194Y-129472001D01*
X72893073Y-129451999D01*
X72867962Y-129430758D01*
X70916151Y-127283766D01*
X74292000Y-127283766D01*
X74292337Y-127290282D01*
X74302075Y-127384132D01*
X74304968Y-127397528D01*
X74355488Y-127548953D01*
X74361653Y-127562115D01*
X74445426Y-127697492D01*
X74454460Y-127708890D01*
X74567129Y-127821363D01*
X74578540Y-127830375D01*
X74714063Y-127913912D01*
X74727241Y-127920056D01*
X74878766Y-127970315D01*
X74892132Y-127973181D01*
X74984770Y-127982672D01*
X74991185Y-127983000D01*
X75065385Y-127983000D01*
X75080624Y-127978525D01*
X75081829Y-127977135D01*
X75083500Y-127969452D01*
X75083500Y-127964885D01*
X75591500Y-127964885D01*
X75595975Y-127980124D01*
X75597365Y-127981329D01*
X75605048Y-127983000D01*
X75683766Y-127983000D01*
X75690282Y-127982663D01*
X75784132Y-127972925D01*
X75797528Y-127970032D01*
X75948953Y-127919512D01*
X75962115Y-127913347D01*
X76097492Y-127829574D01*
X76108894Y-127820536D01*
X76110567Y-127818861D01*
X76111993Y-127818081D01*
X76114627Y-127815993D01*
X76114984Y-127816444D01*
X76172849Y-127784781D01*
X76243669Y-127789784D01*
X76288754Y-127818701D01*
X76291421Y-127821363D01*
X76296997Y-127826929D01*
X76445080Y-127918209D01*
X76610191Y-127972974D01*
X76617027Y-127973674D01*
X76617030Y-127973675D01*
X76664370Y-127978525D01*
X76712928Y-127983500D01*
X77412072Y-127983500D01*
X77415318Y-127983163D01*
X77415322Y-127983163D01*
X77509235Y-127973419D01*
X77509239Y-127973418D01*
X77516093Y-127972707D01*
X77522629Y-127970526D01*
X77522631Y-127970526D01*
X77655395Y-127926232D01*
X77681107Y-127917654D01*
X77829031Y-127826116D01*
X77951929Y-127703003D01*
X77954106Y-127699471D01*
X78010957Y-127659162D01*
X78081880Y-127655929D01*
X78127775Y-127680204D01*
X78128747Y-127678866D01*
X78163384Y-127704031D01*
X78283248Y-127791118D01*
X78289276Y-127793802D01*
X78289278Y-127793803D01*
X78352062Y-127821756D01*
X78457712Y-127868794D01*
X78551112Y-127888647D01*
X78638056Y-127907128D01*
X78638061Y-127907128D01*
X78644513Y-127908500D01*
X78835487Y-127908500D01*
X78841939Y-127907128D01*
X78841944Y-127907128D01*
X78928888Y-127888647D01*
X79022288Y-127868794D01*
X79127938Y-127821756D01*
X79190722Y-127793803D01*
X79190724Y-127793802D01*
X79196752Y-127791118D01*
X79351253Y-127678866D01*
X79479040Y-127536944D01*
X79574527Y-127371556D01*
X79633542Y-127189928D01*
X79653504Y-127000000D01*
X79633542Y-126810072D01*
X79574527Y-126628444D01*
X79479040Y-126463056D01*
X79462855Y-126445080D01*
X79355675Y-126326045D01*
X79355674Y-126326044D01*
X79351253Y-126321134D01*
X79196752Y-126208882D01*
X79190724Y-126206198D01*
X79190722Y-126206197D01*
X79028319Y-126133891D01*
X79028318Y-126133891D01*
X79022288Y-126131206D01*
X78928887Y-126111353D01*
X78841944Y-126092872D01*
X78841939Y-126092872D01*
X78835487Y-126091500D01*
X78644513Y-126091500D01*
X78638061Y-126092872D01*
X78638056Y-126092872D01*
X78551113Y-126111353D01*
X78457712Y-126131206D01*
X78451682Y-126133891D01*
X78451681Y-126133891D01*
X78289278Y-126206197D01*
X78289276Y-126206198D01*
X78283248Y-126208882D01*
X78277907Y-126212762D01*
X78277906Y-126212763D01*
X78161969Y-126296997D01*
X78128747Y-126321134D01*
X78127551Y-126319488D01*
X78072220Y-126346035D01*
X78001767Y-126337263D01*
X77953930Y-126300516D01*
X77951116Y-126295969D01*
X77870225Y-126215219D01*
X77833184Y-126178242D01*
X77833179Y-126178238D01*
X77828003Y-126173071D01*
X77679920Y-126081791D01*
X77514809Y-126027026D01*
X77507973Y-126026326D01*
X77507970Y-126026325D01*
X77456474Y-126021049D01*
X77412072Y-126016500D01*
X76712928Y-126016500D01*
X76709682Y-126016837D01*
X76709678Y-126016837D01*
X76615765Y-126026581D01*
X76615761Y-126026582D01*
X76608907Y-126027293D01*
X76602371Y-126029474D01*
X76602369Y-126029474D01*
X76469605Y-126073768D01*
X76443893Y-126082346D01*
X76295969Y-126173884D01*
X76290797Y-126179065D01*
X76288727Y-126181139D01*
X76286962Y-126182105D01*
X76285059Y-126183613D01*
X76284801Y-126183287D01*
X76226446Y-126215219D01*
X76155625Y-126210218D01*
X76110530Y-126181292D01*
X76107869Y-126178636D01*
X76096460Y-126169625D01*
X75960937Y-126086088D01*
X75947759Y-126079944D01*
X75796234Y-126029685D01*
X75782868Y-126026819D01*
X75690230Y-126017328D01*
X75683815Y-126017000D01*
X75609615Y-126017000D01*
X75594376Y-126021475D01*
X75593171Y-126022865D01*
X75591500Y-126030548D01*
X75591500Y-127964885D01*
X75083500Y-127964885D01*
X75083500Y-127272115D01*
X75079025Y-127256876D01*
X75077635Y-127255671D01*
X75069952Y-127254000D01*
X74310115Y-127254000D01*
X74294876Y-127258475D01*
X74293671Y-127259865D01*
X74292000Y-127267548D01*
X74292000Y-127283766D01*
X70916151Y-127283766D01*
X70410805Y-126727885D01*
X74292000Y-126727885D01*
X74296475Y-126743124D01*
X74297865Y-126744329D01*
X74305548Y-126746000D01*
X75065385Y-126746000D01*
X75080624Y-126741525D01*
X75081829Y-126740135D01*
X75083500Y-126732452D01*
X75083500Y-126035115D01*
X75079025Y-126019876D01*
X75077635Y-126018671D01*
X75069952Y-126017000D01*
X74991234Y-126017000D01*
X74984718Y-126017337D01*
X74890868Y-126027075D01*
X74877472Y-126029968D01*
X74726047Y-126080488D01*
X74712885Y-126086653D01*
X74577508Y-126170426D01*
X74566110Y-126179460D01*
X74453637Y-126292129D01*
X74444625Y-126303540D01*
X74361088Y-126439063D01*
X74354944Y-126452241D01*
X74304685Y-126603766D01*
X74301819Y-126617132D01*
X74292328Y-126709770D01*
X74292000Y-126716185D01*
X74292000Y-126727885D01*
X70410805Y-126727885D01*
X66072768Y-121956045D01*
X66041745Y-121892185D01*
X66040000Y-121871288D01*
X66040000Y-108164669D01*
X191872001Y-108164669D01*
X191872371Y-108171490D01*
X191877895Y-108222352D01*
X191881521Y-108237604D01*
X191926676Y-108358054D01*
X191935214Y-108373649D01*
X192011715Y-108475724D01*
X192024276Y-108488285D01*
X192126351Y-108564786D01*
X192141946Y-108573324D01*
X192262394Y-108618478D01*
X192277649Y-108622105D01*
X192328514Y-108627631D01*
X192335328Y-108628000D01*
X192857885Y-108628000D01*
X192873124Y-108623525D01*
X192874329Y-108622135D01*
X192876000Y-108614452D01*
X192876000Y-108609884D01*
X193384000Y-108609884D01*
X193388475Y-108625123D01*
X193389865Y-108626328D01*
X193397548Y-108627999D01*
X193924669Y-108627999D01*
X193931490Y-108627629D01*
X193982352Y-108622105D01*
X193997604Y-108618479D01*
X194118054Y-108573324D01*
X194133649Y-108564786D01*
X194235724Y-108488285D01*
X194248285Y-108475724D01*
X194324786Y-108373649D01*
X194333324Y-108358054D01*
X194378478Y-108237606D01*
X194382105Y-108222351D01*
X194387631Y-108171486D01*
X194388000Y-108164672D01*
X194388000Y-107892115D01*
X194383525Y-107876876D01*
X194382135Y-107875671D01*
X194374452Y-107874000D01*
X193402115Y-107874000D01*
X193386876Y-107878475D01*
X193385671Y-107879865D01*
X193384000Y-107887548D01*
X193384000Y-108609884D01*
X192876000Y-108609884D01*
X192876000Y-107892115D01*
X192871525Y-107876876D01*
X192870135Y-107875671D01*
X192862452Y-107874000D01*
X191890116Y-107874000D01*
X191874877Y-107878475D01*
X191873672Y-107879865D01*
X191872001Y-107887548D01*
X191872001Y-108164669D01*
X66040000Y-108164669D01*
X66040000Y-107347885D01*
X191872000Y-107347885D01*
X191876475Y-107363124D01*
X191877865Y-107364329D01*
X191885548Y-107366000D01*
X192857885Y-107366000D01*
X192873124Y-107361525D01*
X192874329Y-107360135D01*
X192876000Y-107352452D01*
X192876000Y-107347885D01*
X193384000Y-107347885D01*
X193388475Y-107363124D01*
X193389865Y-107364329D01*
X193397548Y-107366000D01*
X194369884Y-107366000D01*
X194385123Y-107361525D01*
X194386328Y-107360135D01*
X194387999Y-107352452D01*
X194387999Y-107075331D01*
X194387629Y-107068510D01*
X194382105Y-107017648D01*
X194378479Y-107002396D01*
X194333324Y-106881946D01*
X194324786Y-106866351D01*
X194248285Y-106764276D01*
X194235724Y-106751715D01*
X194133649Y-106675214D01*
X194118054Y-106666676D01*
X193997606Y-106621522D01*
X193982351Y-106617895D01*
X193931486Y-106612369D01*
X193924672Y-106612000D01*
X193402115Y-106612000D01*
X193386876Y-106616475D01*
X193385671Y-106617865D01*
X193384000Y-106625548D01*
X193384000Y-107347885D01*
X192876000Y-107347885D01*
X192876000Y-106630116D01*
X192871525Y-106614877D01*
X192870135Y-106613672D01*
X192862452Y-106612001D01*
X192335331Y-106612001D01*
X192328510Y-106612371D01*
X192277648Y-106617895D01*
X192262396Y-106621521D01*
X192141946Y-106666676D01*
X192126351Y-106675214D01*
X192024276Y-106751715D01*
X192011715Y-106764276D01*
X191935214Y-106866351D01*
X191926676Y-106881946D01*
X191881522Y-107002394D01*
X191877895Y-107017649D01*
X191872369Y-107068514D01*
X191872000Y-107075328D01*
X191872000Y-107347885D01*
X66040000Y-107347885D01*
X66040000Y-104423766D01*
X193672000Y-104423766D01*
X193672337Y-104430282D01*
X193682075Y-104524132D01*
X193684968Y-104537528D01*
X193735488Y-104688953D01*
X193741653Y-104702115D01*
X193825426Y-104837492D01*
X193834460Y-104848890D01*
X193947129Y-104961363D01*
X193958540Y-104970375D01*
X194094063Y-105053912D01*
X194107241Y-105060056D01*
X194258766Y-105110315D01*
X194272132Y-105113181D01*
X194364770Y-105122672D01*
X194371185Y-105123000D01*
X194445385Y-105123000D01*
X194460624Y-105118525D01*
X194461829Y-105117135D01*
X194463500Y-105109452D01*
X194463500Y-104412115D01*
X194459025Y-104396876D01*
X194457635Y-104395671D01*
X194449952Y-104394000D01*
X193690115Y-104394000D01*
X193674876Y-104398475D01*
X193673671Y-104399865D01*
X193672000Y-104407548D01*
X193672000Y-104423766D01*
X66040000Y-104423766D01*
X66040000Y-103867885D01*
X193672000Y-103867885D01*
X193676475Y-103883124D01*
X193677865Y-103884329D01*
X193685548Y-103886000D01*
X194445385Y-103886000D01*
X194460624Y-103881525D01*
X194461829Y-103880135D01*
X194463500Y-103872452D01*
X194463500Y-103175115D01*
X194459025Y-103159876D01*
X194457635Y-103158671D01*
X194449952Y-103157000D01*
X194371234Y-103157000D01*
X194364718Y-103157337D01*
X194270868Y-103167075D01*
X194257472Y-103169968D01*
X194106047Y-103220488D01*
X194092885Y-103226653D01*
X193957508Y-103310426D01*
X193946110Y-103319460D01*
X193833637Y-103432129D01*
X193824625Y-103443540D01*
X193741088Y-103579063D01*
X193734944Y-103592241D01*
X193684685Y-103743766D01*
X193681819Y-103757132D01*
X193672328Y-103849770D01*
X193672000Y-103856185D01*
X193672000Y-103867885D01*
X66040000Y-103867885D01*
X66040000Y-94080786D01*
X66060002Y-94012665D01*
X66113658Y-93966172D01*
X66183932Y-93956068D01*
X66205667Y-93961193D01*
X66353765Y-94010315D01*
X66367132Y-94013181D01*
X66459770Y-94022672D01*
X66466185Y-94023000D01*
X66540385Y-94023000D01*
X66555624Y-94018525D01*
X66556829Y-94017135D01*
X66558500Y-94009452D01*
X66558500Y-94004885D01*
X67066500Y-94004885D01*
X67070975Y-94020124D01*
X67072365Y-94021329D01*
X67080048Y-94023000D01*
X67158766Y-94023000D01*
X67165282Y-94022663D01*
X67259132Y-94012925D01*
X67272528Y-94010032D01*
X67423953Y-93959512D01*
X67437115Y-93953347D01*
X67572492Y-93869574D01*
X67583890Y-93860540D01*
X67696363Y-93747871D01*
X67705375Y-93736460D01*
X67788912Y-93600937D01*
X67795056Y-93587759D01*
X67845315Y-93436234D01*
X67848181Y-93422868D01*
X67857672Y-93330230D01*
X67858000Y-93323815D01*
X67858000Y-93312115D01*
X67853525Y-93296876D01*
X67852135Y-93295671D01*
X67844452Y-93294000D01*
X67084615Y-93294000D01*
X67069376Y-93298475D01*
X67068171Y-93299865D01*
X67066500Y-93307548D01*
X67066500Y-94004885D01*
X66558500Y-94004885D01*
X66558500Y-92767885D01*
X67066500Y-92767885D01*
X67070975Y-92783124D01*
X67072365Y-92784329D01*
X67080048Y-92786000D01*
X67839885Y-92786000D01*
X67855124Y-92781525D01*
X67856329Y-92780135D01*
X67858000Y-92772452D01*
X67858000Y-92756234D01*
X67857663Y-92749718D01*
X67847925Y-92655868D01*
X67845032Y-92642472D01*
X67794512Y-92491047D01*
X67788347Y-92477885D01*
X67704574Y-92342508D01*
X67695540Y-92331110D01*
X67582871Y-92218637D01*
X67571460Y-92209625D01*
X67435937Y-92126088D01*
X67422759Y-92119944D01*
X67271234Y-92069685D01*
X67257868Y-92066819D01*
X67165230Y-92057328D01*
X67158815Y-92057000D01*
X67084615Y-92057000D01*
X67069376Y-92061475D01*
X67068171Y-92062865D01*
X67066500Y-92070548D01*
X67066500Y-92767885D01*
X66558500Y-92767885D01*
X66558500Y-92075115D01*
X66554025Y-92059876D01*
X66552635Y-92058671D01*
X66544952Y-92057000D01*
X66466234Y-92057000D01*
X66459718Y-92057337D01*
X66365868Y-92067075D01*
X66352466Y-92069970D01*
X66205877Y-92118876D01*
X66134927Y-92121461D01*
X66073843Y-92085278D01*
X66042018Y-92021814D01*
X66040000Y-91999353D01*
X66040000Y-91469745D01*
X66053302Y-91413396D01*
X66237666Y-91044669D01*
X67232001Y-91044669D01*
X67232371Y-91051490D01*
X67237895Y-91102352D01*
X67241521Y-91117604D01*
X67286676Y-91238054D01*
X67295214Y-91253649D01*
X67371715Y-91355724D01*
X67384276Y-91368285D01*
X67486351Y-91444786D01*
X67501946Y-91453324D01*
X67622394Y-91498478D01*
X67637649Y-91502105D01*
X67688514Y-91507631D01*
X67695328Y-91508000D01*
X68217885Y-91508000D01*
X68233124Y-91503525D01*
X68234329Y-91502135D01*
X68236000Y-91494452D01*
X68236000Y-91489884D01*
X68744000Y-91489884D01*
X68748475Y-91505123D01*
X68749865Y-91506328D01*
X68757548Y-91507999D01*
X69284669Y-91507999D01*
X69291490Y-91507629D01*
X69342352Y-91502105D01*
X69357604Y-91498479D01*
X69478054Y-91453324D01*
X69493649Y-91444786D01*
X69595724Y-91368285D01*
X69608285Y-91355724D01*
X69684786Y-91253649D01*
X69693324Y-91238054D01*
X69738478Y-91117606D01*
X69742105Y-91102351D01*
X69747631Y-91051486D01*
X69748000Y-91044672D01*
X69748000Y-90772115D01*
X69743525Y-90756876D01*
X69742135Y-90755671D01*
X69734452Y-90754000D01*
X68762115Y-90754000D01*
X68746876Y-90758475D01*
X68745671Y-90759865D01*
X68744000Y-90767548D01*
X68744000Y-91489884D01*
X68236000Y-91489884D01*
X68236000Y-90772115D01*
X68231525Y-90756876D01*
X68230135Y-90755671D01*
X68222452Y-90754000D01*
X67250116Y-90754000D01*
X67234877Y-90758475D01*
X67233672Y-90759865D01*
X67232001Y-90767548D01*
X67232001Y-91044669D01*
X66237666Y-91044669D01*
X66646058Y-90227885D01*
X67232000Y-90227885D01*
X67236475Y-90243124D01*
X67237865Y-90244329D01*
X67245548Y-90246000D01*
X68217885Y-90246000D01*
X68233124Y-90241525D01*
X68234329Y-90240135D01*
X68236000Y-90232452D01*
X68236000Y-90227885D01*
X68744000Y-90227885D01*
X68748475Y-90243124D01*
X68749865Y-90244329D01*
X68757548Y-90246000D01*
X69729884Y-90246000D01*
X69745123Y-90241525D01*
X69746328Y-90240135D01*
X69747999Y-90232452D01*
X69747999Y-89955331D01*
X69747629Y-89948510D01*
X69742105Y-89897648D01*
X69738479Y-89882396D01*
X69693324Y-89761946D01*
X69684786Y-89746351D01*
X69608285Y-89644276D01*
X69595724Y-89631715D01*
X69493649Y-89555214D01*
X69478054Y-89546676D01*
X69357606Y-89501522D01*
X69342351Y-89497895D01*
X69291486Y-89492369D01*
X69284672Y-89492000D01*
X68762115Y-89492000D01*
X68746876Y-89496475D01*
X68745671Y-89497865D01*
X68744000Y-89505548D01*
X68744000Y-90227885D01*
X68236000Y-90227885D01*
X68236000Y-89510116D01*
X68231525Y-89494877D01*
X68230135Y-89493672D01*
X68222452Y-89492001D01*
X67695331Y-89492001D01*
X67688510Y-89492371D01*
X67637648Y-89497895D01*
X67622396Y-89501521D01*
X67501946Y-89546676D01*
X67486351Y-89555214D01*
X67384276Y-89631715D01*
X67371715Y-89644276D01*
X67295214Y-89746351D01*
X67286676Y-89761946D01*
X67241522Y-89882394D01*
X67237895Y-89897649D01*
X67232369Y-89948514D01*
X67232000Y-89955328D01*
X67232000Y-90227885D01*
X66646058Y-90227885D01*
X67571143Y-88377714D01*
X67619496Y-88325732D01*
X67690322Y-88308332D01*
X67691866Y-88308500D01*
X69288134Y-88308500D01*
X69350316Y-88301745D01*
X69486705Y-88250615D01*
X69603261Y-88163261D01*
X69690615Y-88046705D01*
X69741745Y-87910316D01*
X69748500Y-87848134D01*
X69748500Y-86751866D01*
X69741745Y-86689684D01*
X69690615Y-86553295D01*
X69603261Y-86436739D01*
X69486705Y-86349385D01*
X69350316Y-86298255D01*
X69288134Y-86291500D01*
X69249500Y-86291500D01*
X69181379Y-86271498D01*
X69134886Y-86217842D01*
X69123500Y-86165500D01*
X69123500Y-85302745D01*
X69136802Y-85246396D01*
X76197093Y-71125815D01*
X76203494Y-71114511D01*
X77559030Y-68984669D01*
X186792001Y-68984669D01*
X186792371Y-68991490D01*
X186797895Y-69042352D01*
X186801521Y-69057604D01*
X186846676Y-69178054D01*
X186855214Y-69193649D01*
X186931715Y-69295724D01*
X186944276Y-69308285D01*
X187046351Y-69384786D01*
X187061946Y-69393324D01*
X187182394Y-69438478D01*
X187197649Y-69442105D01*
X187248514Y-69447631D01*
X187255328Y-69448000D01*
X187777885Y-69448000D01*
X187793124Y-69443525D01*
X187794329Y-69442135D01*
X187796000Y-69434452D01*
X187796000Y-69429884D01*
X188304000Y-69429884D01*
X188308475Y-69445123D01*
X188309865Y-69446328D01*
X188317548Y-69447999D01*
X188844669Y-69447999D01*
X188851490Y-69447629D01*
X188902352Y-69442105D01*
X188917604Y-69438479D01*
X189038054Y-69393324D01*
X189053649Y-69384786D01*
X189155724Y-69308285D01*
X189168285Y-69295724D01*
X189244786Y-69193649D01*
X189253324Y-69178054D01*
X189298478Y-69057606D01*
X189302105Y-69042351D01*
X189307631Y-68991486D01*
X189308000Y-68984672D01*
X189308000Y-68712115D01*
X189303525Y-68696876D01*
X189302135Y-68695671D01*
X189294452Y-68694000D01*
X188322115Y-68694000D01*
X188306876Y-68698475D01*
X188305671Y-68699865D01*
X188304000Y-68707548D01*
X188304000Y-69429884D01*
X187796000Y-69429884D01*
X187796000Y-68712115D01*
X187791525Y-68696876D01*
X187790135Y-68695671D01*
X187782452Y-68694000D01*
X186810116Y-68694000D01*
X186794877Y-68698475D01*
X186793672Y-68699865D01*
X186792001Y-68707548D01*
X186792001Y-68984669D01*
X77559030Y-68984669D01*
X78078872Y-68167885D01*
X186792000Y-68167885D01*
X186796475Y-68183124D01*
X186797865Y-68184329D01*
X186805548Y-68186000D01*
X187777885Y-68186000D01*
X187793124Y-68181525D01*
X187794329Y-68180135D01*
X187796000Y-68172452D01*
X187796000Y-68167885D01*
X188304000Y-68167885D01*
X188308475Y-68183124D01*
X188309865Y-68184329D01*
X188317548Y-68186000D01*
X189289884Y-68186000D01*
X189305123Y-68181525D01*
X189306328Y-68180135D01*
X189307999Y-68172452D01*
X189307999Y-67895331D01*
X189307629Y-67888510D01*
X189302105Y-67837648D01*
X189298479Y-67822396D01*
X189253324Y-67701946D01*
X189244786Y-67686351D01*
X189168285Y-67584276D01*
X189155724Y-67571715D01*
X189053649Y-67495214D01*
X189038054Y-67486676D01*
X188917606Y-67441522D01*
X188902351Y-67437895D01*
X188851486Y-67432369D01*
X188844672Y-67432000D01*
X188322115Y-67432000D01*
X188306876Y-67436475D01*
X188305671Y-67437865D01*
X188304000Y-67445548D01*
X188304000Y-68167885D01*
X187796000Y-68167885D01*
X187796000Y-67450116D01*
X187791525Y-67434877D01*
X187790135Y-67433672D01*
X187782452Y-67432001D01*
X187255331Y-67432001D01*
X187248510Y-67432371D01*
X187197648Y-67437895D01*
X187182396Y-67441521D01*
X187061946Y-67486676D01*
X187046351Y-67495214D01*
X186944276Y-67571715D01*
X186931715Y-67584276D01*
X186855214Y-67686351D01*
X186846676Y-67701946D01*
X186801522Y-67822394D01*
X186797895Y-67837649D01*
X186792369Y-67888514D01*
X186792000Y-67895328D01*
X186792000Y-68167885D01*
X78078872Y-68167885D01*
X79939925Y-65243766D01*
X188682000Y-65243766D01*
X188682337Y-65250282D01*
X188692075Y-65344132D01*
X188694968Y-65357528D01*
X188745488Y-65508953D01*
X188751653Y-65522115D01*
X188835426Y-65657492D01*
X188844460Y-65668890D01*
X188957129Y-65781363D01*
X188968540Y-65790375D01*
X189104063Y-65873912D01*
X189117241Y-65880056D01*
X189268766Y-65930315D01*
X189282132Y-65933181D01*
X189374770Y-65942672D01*
X189381185Y-65943000D01*
X189455385Y-65943000D01*
X189470624Y-65938525D01*
X189471829Y-65937135D01*
X189473500Y-65929452D01*
X189473500Y-65232115D01*
X189469025Y-65216876D01*
X189467635Y-65215671D01*
X189459952Y-65214000D01*
X188700115Y-65214000D01*
X188684876Y-65218475D01*
X188683671Y-65219865D01*
X188682000Y-65227548D01*
X188682000Y-65243766D01*
X79939925Y-65243766D01*
X80293715Y-64687885D01*
X188682000Y-64687885D01*
X188686475Y-64703124D01*
X188687865Y-64704329D01*
X188695548Y-64706000D01*
X189455385Y-64706000D01*
X189470624Y-64701525D01*
X189471829Y-64700135D01*
X189473500Y-64692452D01*
X189473500Y-63995115D01*
X189469025Y-63979876D01*
X189467635Y-63978671D01*
X189459952Y-63977000D01*
X189381234Y-63977000D01*
X189374718Y-63977337D01*
X189280868Y-63987075D01*
X189267472Y-63989968D01*
X189116047Y-64040488D01*
X189102885Y-64046653D01*
X188967508Y-64130426D01*
X188956110Y-64139460D01*
X188843637Y-64252129D01*
X188834625Y-64263540D01*
X188751088Y-64399063D01*
X188744944Y-64412241D01*
X188694685Y-64563766D01*
X188691819Y-64577132D01*
X188682328Y-64669770D01*
X188682000Y-64676185D01*
X188682000Y-64687885D01*
X80293715Y-64687885D01*
X85236404Y-56921847D01*
X85289854Y-56875118D01*
X85342701Y-56863500D01*
X85847072Y-56863500D01*
X85850318Y-56863163D01*
X85850322Y-56863163D01*
X85944235Y-56853419D01*
X85944239Y-56853418D01*
X85951093Y-56852707D01*
X85957629Y-56850526D01*
X85957631Y-56850526D01*
X86109159Y-56799972D01*
X86116107Y-56797654D01*
X86264031Y-56706116D01*
X86271274Y-56698861D01*
X86273038Y-56697895D01*
X86274941Y-56696387D01*
X86275199Y-56696713D01*
X86333554Y-56664781D01*
X86404375Y-56669782D01*
X86449470Y-56698708D01*
X86452131Y-56701364D01*
X86463540Y-56710375D01*
X86599063Y-56793912D01*
X86612241Y-56800056D01*
X86763766Y-56850315D01*
X86777132Y-56853181D01*
X86869770Y-56862672D01*
X86876185Y-56863000D01*
X86950385Y-56863000D01*
X86965624Y-56858525D01*
X86966829Y-56857135D01*
X86968500Y-56849452D01*
X86968500Y-56844885D01*
X87476500Y-56844885D01*
X87480975Y-56860124D01*
X87482365Y-56861329D01*
X87490048Y-56863000D01*
X87568766Y-56863000D01*
X87575282Y-56862663D01*
X87669132Y-56852925D01*
X87682528Y-56850032D01*
X87833953Y-56799512D01*
X87847115Y-56793347D01*
X87982492Y-56709574D01*
X87993890Y-56700540D01*
X88106363Y-56587871D01*
X88115375Y-56576460D01*
X88198912Y-56440937D01*
X88205056Y-56427759D01*
X88255315Y-56276234D01*
X88258181Y-56262868D01*
X88267672Y-56170230D01*
X88268000Y-56163815D01*
X88268000Y-56152115D01*
X88263525Y-56136876D01*
X88262135Y-56135671D01*
X88254452Y-56134000D01*
X87494615Y-56134000D01*
X87479376Y-56138475D01*
X87478171Y-56139865D01*
X87476500Y-56147548D01*
X87476500Y-56844885D01*
X86968500Y-56844885D01*
X86968500Y-55607885D01*
X87476500Y-55607885D01*
X87480975Y-55623124D01*
X87482365Y-55624329D01*
X87490048Y-55626000D01*
X88249885Y-55626000D01*
X88265124Y-55621525D01*
X88266329Y-55620135D01*
X88268000Y-55612452D01*
X88268000Y-55596234D01*
X88267663Y-55589718D01*
X88257925Y-55495868D01*
X88255032Y-55482472D01*
X88204512Y-55331047D01*
X88198347Y-55317885D01*
X88114574Y-55182508D01*
X88105540Y-55171110D01*
X87992871Y-55058637D01*
X87981460Y-55049625D01*
X87845937Y-54966088D01*
X87832759Y-54959944D01*
X87681234Y-54909685D01*
X87667868Y-54906819D01*
X87575230Y-54897328D01*
X87568815Y-54897000D01*
X87494615Y-54897000D01*
X87479376Y-54901475D01*
X87478171Y-54902865D01*
X87476500Y-54910548D01*
X87476500Y-55607885D01*
X86968500Y-55607885D01*
X86968500Y-54915115D01*
X86964025Y-54899876D01*
X86962635Y-54898671D01*
X86954952Y-54897000D01*
X86876234Y-54897000D01*
X86869718Y-54897337D01*
X86775866Y-54907076D01*
X86772590Y-54907783D01*
X86770512Y-54907631D01*
X86769010Y-54907787D01*
X86768982Y-54907519D01*
X86701782Y-54902610D01*
X86645011Y-54859977D01*
X86620301Y-54793419D01*
X86635499Y-54724068D01*
X86639697Y-54716969D01*
X87534726Y-53310685D01*
X87588176Y-53263956D01*
X87658405Y-53253543D01*
X87716588Y-53277512D01*
X87806352Y-53344786D01*
X87821946Y-53353324D01*
X87942394Y-53398478D01*
X87957649Y-53402105D01*
X88008514Y-53407631D01*
X88015328Y-53408000D01*
X88537885Y-53408000D01*
X88553124Y-53403525D01*
X88554329Y-53402135D01*
X88556000Y-53394452D01*
X88556000Y-53389884D01*
X89064000Y-53389884D01*
X89068475Y-53405123D01*
X89069865Y-53406328D01*
X89077548Y-53407999D01*
X89604669Y-53407999D01*
X89611490Y-53407629D01*
X89662352Y-53402105D01*
X89677604Y-53398479D01*
X89798054Y-53353324D01*
X89813649Y-53344786D01*
X89915724Y-53268285D01*
X89928285Y-53255724D01*
X90004786Y-53153649D01*
X90013324Y-53138054D01*
X90058478Y-53017606D01*
X90062105Y-53002351D01*
X90067631Y-52951486D01*
X90068000Y-52944672D01*
X90068000Y-52672115D01*
X90063525Y-52656876D01*
X90062135Y-52655671D01*
X90054452Y-52654000D01*
X89082115Y-52654000D01*
X89066876Y-52658475D01*
X89065671Y-52659865D01*
X89064000Y-52667548D01*
X89064000Y-53389884D01*
X88556000Y-53389884D01*
X88556000Y-52272000D01*
X88576002Y-52203879D01*
X88629658Y-52157386D01*
X88682000Y-52146000D01*
X90049884Y-52146000D01*
X90065123Y-52141525D01*
X90066328Y-52140135D01*
X90067999Y-52132452D01*
X90067999Y-51855331D01*
X90067629Y-51848510D01*
X90062105Y-51797648D01*
X90058479Y-51782396D01*
X90013324Y-51661946D01*
X90004786Y-51646352D01*
X89953558Y-51577998D01*
X89928710Y-51511492D01*
X89943763Y-51442109D01*
X89993937Y-51391879D01*
X90050596Y-51376490D01*
X109201893Y-50800545D01*
X109201895Y-50800544D01*
X109220000Y-50800000D01*
X114300000Y-45720000D01*
X159106496Y-45720000D01*
X159107186Y-45726565D01*
X159120226Y-45850630D01*
X159126458Y-45909928D01*
X159185473Y-46091556D01*
X159280960Y-46256944D01*
X159285378Y-46261851D01*
X159285379Y-46261852D01*
X159302563Y-46280937D01*
X159408747Y-46398866D01*
X159563248Y-46511118D01*
X159569276Y-46513802D01*
X159569278Y-46513803D01*
X159641855Y-46546116D01*
X159737712Y-46588794D01*
X159831112Y-46608647D01*
X159918056Y-46627128D01*
X159918061Y-46627128D01*
X159924513Y-46628500D01*
X160115487Y-46628500D01*
X160121939Y-46627128D01*
X160121944Y-46627128D01*
X160208888Y-46608647D01*
X160302288Y-46588794D01*
X160398145Y-46546116D01*
X160470722Y-46513803D01*
X160470724Y-46513802D01*
X160476752Y-46511118D01*
X160596617Y-46424031D01*
X160631253Y-46398866D01*
X160632449Y-46400512D01*
X160687780Y-46373965D01*
X160758233Y-46382737D01*
X160806070Y-46419484D01*
X160808884Y-46424031D01*
X160814065Y-46429203D01*
X160926816Y-46541758D01*
X160926821Y-46541762D01*
X160931997Y-46546929D01*
X161080080Y-46638209D01*
X161245191Y-46692974D01*
X161252027Y-46693674D01*
X161252030Y-46693675D01*
X161299370Y-46698525D01*
X161347928Y-46703500D01*
X162047072Y-46703500D01*
X162050318Y-46703163D01*
X162050322Y-46703163D01*
X162144235Y-46693419D01*
X162144239Y-46693418D01*
X162151093Y-46692707D01*
X162157629Y-46690526D01*
X162157631Y-46690526D01*
X162290395Y-46646232D01*
X162316107Y-46637654D01*
X162464031Y-46546116D01*
X162471274Y-46538861D01*
X162473038Y-46537895D01*
X162474941Y-46536387D01*
X162475199Y-46536713D01*
X162533554Y-46504781D01*
X162604375Y-46509782D01*
X162649470Y-46538708D01*
X162652131Y-46541364D01*
X162663540Y-46550375D01*
X162799063Y-46633912D01*
X162812241Y-46640056D01*
X162963766Y-46690315D01*
X162977132Y-46693181D01*
X163069770Y-46702672D01*
X163076185Y-46703000D01*
X163150385Y-46703000D01*
X163165624Y-46698525D01*
X163166829Y-46697135D01*
X163168500Y-46689452D01*
X163168500Y-46684885D01*
X163676500Y-46684885D01*
X163680975Y-46700124D01*
X163682365Y-46701329D01*
X163690048Y-46703000D01*
X163768766Y-46703000D01*
X163775282Y-46702663D01*
X163869132Y-46692925D01*
X163882528Y-46690032D01*
X164033953Y-46639512D01*
X164047115Y-46633347D01*
X164182492Y-46549574D01*
X164193890Y-46540540D01*
X164306363Y-46427871D01*
X164315375Y-46416460D01*
X164398912Y-46280937D01*
X164405056Y-46267759D01*
X164455315Y-46116234D01*
X164458181Y-46102868D01*
X164467672Y-46010230D01*
X164468000Y-46003815D01*
X164468000Y-45992115D01*
X164463525Y-45976876D01*
X164462135Y-45975671D01*
X164454452Y-45974000D01*
X163694615Y-45974000D01*
X163679376Y-45978475D01*
X163678171Y-45979865D01*
X163676500Y-45987548D01*
X163676500Y-46684885D01*
X163168500Y-46684885D01*
X163168500Y-45447885D01*
X163676500Y-45447885D01*
X163680975Y-45463124D01*
X163682365Y-45464329D01*
X163690048Y-45466000D01*
X164449885Y-45466000D01*
X164465124Y-45461525D01*
X164466329Y-45460135D01*
X164468000Y-45452452D01*
X164468000Y-45436234D01*
X164467663Y-45429718D01*
X164457925Y-45335868D01*
X164455032Y-45322472D01*
X164404512Y-45171047D01*
X164398347Y-45157885D01*
X164314574Y-45022508D01*
X164305540Y-45011110D01*
X164192871Y-44898637D01*
X164181460Y-44889625D01*
X164045937Y-44806088D01*
X164032759Y-44799944D01*
X163881234Y-44749685D01*
X163867868Y-44746819D01*
X163775230Y-44737328D01*
X163768815Y-44737000D01*
X163694615Y-44737000D01*
X163679376Y-44741475D01*
X163678171Y-44742865D01*
X163676500Y-44750548D01*
X163676500Y-45447885D01*
X163168500Y-45447885D01*
X163168500Y-44755115D01*
X163164025Y-44739876D01*
X163162635Y-44738671D01*
X163154952Y-44737000D01*
X163076234Y-44737000D01*
X163069718Y-44737337D01*
X162975868Y-44747075D01*
X162962472Y-44749968D01*
X162811047Y-44800488D01*
X162797885Y-44806653D01*
X162662508Y-44890426D01*
X162651106Y-44899464D01*
X162649433Y-44901139D01*
X162648007Y-44901919D01*
X162645373Y-44904007D01*
X162645016Y-44903556D01*
X162587151Y-44935219D01*
X162516331Y-44930216D01*
X162471246Y-44901299D01*
X162468185Y-44898244D01*
X162463003Y-44893071D01*
X162314920Y-44801791D01*
X162149809Y-44747026D01*
X162142973Y-44746326D01*
X162142970Y-44746325D01*
X162091474Y-44741049D01*
X162047072Y-44736500D01*
X161347928Y-44736500D01*
X161344682Y-44736837D01*
X161344678Y-44736837D01*
X161250765Y-44746581D01*
X161250761Y-44746582D01*
X161243907Y-44747293D01*
X161237371Y-44749474D01*
X161237369Y-44749474D01*
X161211715Y-44758033D01*
X161078893Y-44802346D01*
X160930969Y-44893884D01*
X160808071Y-45016997D01*
X160805894Y-45020529D01*
X160749043Y-45060838D01*
X160678120Y-45064071D01*
X160632225Y-45039796D01*
X160631253Y-45041134D01*
X160482094Y-44932763D01*
X160482093Y-44932762D01*
X160476752Y-44928882D01*
X160470724Y-44926198D01*
X160470722Y-44926197D01*
X160308319Y-44853891D01*
X160308318Y-44853891D01*
X160302288Y-44851206D01*
X160208887Y-44831353D01*
X160121944Y-44812872D01*
X160121939Y-44812872D01*
X160115487Y-44811500D01*
X159924513Y-44811500D01*
X159918061Y-44812872D01*
X159918056Y-44812872D01*
X159831113Y-44831353D01*
X159737712Y-44851206D01*
X159731682Y-44853891D01*
X159731681Y-44853891D01*
X159569278Y-44926197D01*
X159569276Y-44926198D01*
X159563248Y-44928882D01*
X159408747Y-45041134D01*
X159280960Y-45183056D01*
X159185473Y-45348444D01*
X159126458Y-45530072D01*
X159106496Y-45720000D01*
X114300000Y-45720000D01*
X121193491Y-38826509D01*
X121255803Y-38792483D01*
X121326618Y-38797548D01*
X121356647Y-38813668D01*
X121436414Y-38871622D01*
X121463248Y-38891118D01*
X121469276Y-38893802D01*
X121469278Y-38893803D01*
X121631681Y-38966109D01*
X121637712Y-38968794D01*
X121731112Y-38988647D01*
X121818056Y-39007128D01*
X121818061Y-39007128D01*
X121824513Y-39008500D01*
X122015487Y-39008500D01*
X122021939Y-39007128D01*
X122021944Y-39007128D01*
X122108887Y-38988647D01*
X122202288Y-38968794D01*
X122208319Y-38966109D01*
X122370722Y-38893803D01*
X122370724Y-38893802D01*
X122376752Y-38891118D01*
X122496617Y-38804031D01*
X122531253Y-38778866D01*
X122532449Y-38780512D01*
X122587780Y-38753965D01*
X122658233Y-38762737D01*
X122706070Y-38799484D01*
X122708884Y-38804031D01*
X122714065Y-38809203D01*
X122826816Y-38921758D01*
X122826821Y-38921762D01*
X122831997Y-38926929D01*
X122838227Y-38930769D01*
X122838228Y-38930770D01*
X122967355Y-39010365D01*
X122980080Y-39018209D01*
X123145191Y-39072974D01*
X123152027Y-39073674D01*
X123152030Y-39073675D01*
X123199370Y-39078525D01*
X123247928Y-39083500D01*
X123947072Y-39083500D01*
X123950318Y-39083163D01*
X123950322Y-39083163D01*
X124044235Y-39073419D01*
X124044239Y-39073418D01*
X124051093Y-39072707D01*
X124057629Y-39070526D01*
X124057631Y-39070526D01*
X124190395Y-39026232D01*
X124216107Y-39017654D01*
X124364031Y-38926116D01*
X124371274Y-38918861D01*
X124373038Y-38917895D01*
X124374941Y-38916387D01*
X124375199Y-38916713D01*
X124433554Y-38884781D01*
X124504375Y-38889782D01*
X124549470Y-38918708D01*
X124552131Y-38921364D01*
X124563540Y-38930375D01*
X124699063Y-39013912D01*
X124712241Y-39020056D01*
X124863766Y-39070315D01*
X124877132Y-39073181D01*
X124969770Y-39082672D01*
X124976185Y-39083000D01*
X125050385Y-39083000D01*
X125065624Y-39078525D01*
X125066829Y-39077135D01*
X125068500Y-39069452D01*
X125068500Y-39064885D01*
X125576500Y-39064885D01*
X125580975Y-39080124D01*
X125582365Y-39081329D01*
X125590048Y-39083000D01*
X125668766Y-39083000D01*
X125675282Y-39082663D01*
X125769132Y-39072925D01*
X125782528Y-39070032D01*
X125933953Y-39019512D01*
X125947115Y-39013347D01*
X126082492Y-38929574D01*
X126093890Y-38920540D01*
X126206363Y-38807871D01*
X126215375Y-38796460D01*
X126298912Y-38660937D01*
X126305056Y-38647759D01*
X126355315Y-38496234D01*
X126358181Y-38482868D01*
X126367672Y-38390230D01*
X126368000Y-38383815D01*
X126368000Y-38372115D01*
X126363525Y-38356876D01*
X126362135Y-38355671D01*
X126354452Y-38354000D01*
X125594615Y-38354000D01*
X125579376Y-38358475D01*
X125578171Y-38359865D01*
X125576500Y-38367548D01*
X125576500Y-39064885D01*
X125068500Y-39064885D01*
X125068500Y-37827885D01*
X125576500Y-37827885D01*
X125580975Y-37843124D01*
X125582365Y-37844329D01*
X125590048Y-37846000D01*
X126349885Y-37846000D01*
X126365124Y-37841525D01*
X126366329Y-37840135D01*
X126368000Y-37832452D01*
X126368000Y-37816234D01*
X126367663Y-37809718D01*
X126357925Y-37715868D01*
X126355032Y-37702472D01*
X126304512Y-37551047D01*
X126298347Y-37537885D01*
X126214574Y-37402508D01*
X126205540Y-37391110D01*
X126092871Y-37278637D01*
X126081460Y-37269625D01*
X125945937Y-37186088D01*
X125932759Y-37179944D01*
X125781234Y-37129685D01*
X125767868Y-37126819D01*
X125675230Y-37117328D01*
X125668815Y-37117000D01*
X125594615Y-37117000D01*
X125579376Y-37121475D01*
X125578171Y-37122865D01*
X125576500Y-37130548D01*
X125576500Y-37827885D01*
X125068500Y-37827885D01*
X125068500Y-37135115D01*
X125064025Y-37119876D01*
X125062635Y-37118671D01*
X125054952Y-37117000D01*
X124976234Y-37117000D01*
X124969718Y-37117337D01*
X124875868Y-37127075D01*
X124862472Y-37129968D01*
X124711047Y-37180488D01*
X124697885Y-37186653D01*
X124562508Y-37270426D01*
X124551106Y-37279464D01*
X124549433Y-37281139D01*
X124548007Y-37281919D01*
X124545373Y-37284007D01*
X124545016Y-37283556D01*
X124487151Y-37315219D01*
X124416331Y-37310216D01*
X124371246Y-37281299D01*
X124368185Y-37278244D01*
X124363003Y-37273071D01*
X124214920Y-37181791D01*
X124049809Y-37127026D01*
X124042973Y-37126326D01*
X124042970Y-37126325D01*
X123991474Y-37121049D01*
X123947072Y-37116500D01*
X123247928Y-37116500D01*
X123244682Y-37116837D01*
X123244678Y-37116837D01*
X123229810Y-37118380D01*
X123216789Y-37119731D01*
X123146969Y-37106867D01*
X123095187Y-37058296D01*
X123077884Y-36989440D01*
X123100554Y-36922160D01*
X123114691Y-36905309D01*
X124855331Y-35164669D01*
X125652001Y-35164669D01*
X125652371Y-35171490D01*
X125657895Y-35222352D01*
X125661521Y-35237604D01*
X125706676Y-35358054D01*
X125715214Y-35373649D01*
X125791715Y-35475724D01*
X125804276Y-35488285D01*
X125906351Y-35564786D01*
X125921946Y-35573324D01*
X126042394Y-35618478D01*
X126057649Y-35622105D01*
X126108514Y-35627631D01*
X126115328Y-35628000D01*
X126637885Y-35628000D01*
X126653124Y-35623525D01*
X126654329Y-35622135D01*
X126656000Y-35614452D01*
X126656000Y-35609884D01*
X127164000Y-35609884D01*
X127168475Y-35625123D01*
X127169865Y-35626328D01*
X127177548Y-35627999D01*
X127704669Y-35627999D01*
X127711490Y-35627629D01*
X127762352Y-35622105D01*
X127777604Y-35618479D01*
X127898054Y-35573324D01*
X127913649Y-35564786D01*
X128015724Y-35488285D01*
X128028285Y-35475724D01*
X128104786Y-35373649D01*
X128113324Y-35358054D01*
X128158478Y-35237606D01*
X128162105Y-35222351D01*
X128167631Y-35171486D01*
X128168000Y-35164672D01*
X128168000Y-34892115D01*
X128163525Y-34876876D01*
X128162135Y-34875671D01*
X128154452Y-34874000D01*
X127182115Y-34874000D01*
X127166876Y-34878475D01*
X127165671Y-34879865D01*
X127164000Y-34887548D01*
X127164000Y-35609884D01*
X126656000Y-35609884D01*
X126656000Y-34892115D01*
X126651525Y-34876876D01*
X126650135Y-34875671D01*
X126642452Y-34874000D01*
X125670116Y-34874000D01*
X125654877Y-34878475D01*
X125653672Y-34879865D01*
X125652001Y-34887548D01*
X125652001Y-35164669D01*
X124855331Y-35164669D01*
X125612000Y-34408000D01*
X125614452Y-34410452D01*
X125643490Y-34381413D01*
X125703877Y-34366000D01*
X126637885Y-34366000D01*
X126653124Y-34361525D01*
X126654329Y-34360135D01*
X126656000Y-34352452D01*
X126656000Y-34347885D01*
X127164000Y-34347885D01*
X127168475Y-34363124D01*
X127169865Y-34364329D01*
X127177548Y-34366000D01*
X128149884Y-34366000D01*
X128165123Y-34361525D01*
X128166328Y-34360135D01*
X128167999Y-34352452D01*
X128167999Y-34075331D01*
X128167629Y-34068510D01*
X128162105Y-34017648D01*
X128158479Y-34002396D01*
X128113324Y-33881946D01*
X128104786Y-33866351D01*
X128028285Y-33764276D01*
X128015724Y-33751715D01*
X127913649Y-33675214D01*
X127898054Y-33666676D01*
X127777606Y-33621522D01*
X127762351Y-33617895D01*
X127711486Y-33612369D01*
X127704672Y-33612000D01*
X127182115Y-33612000D01*
X127166876Y-33616475D01*
X127165671Y-33617865D01*
X127164000Y-33625548D01*
X127164000Y-34347885D01*
X126656000Y-34347885D01*
X126656000Y-33630116D01*
X126651525Y-33614877D01*
X126625830Y-33592612D01*
X126626125Y-33592272D01*
X126613054Y-33585135D01*
X126579029Y-33522823D01*
X126584094Y-33452007D01*
X126613053Y-33406947D01*
X126957179Y-33062821D01*
X127019491Y-33028796D01*
X127060188Y-33026688D01*
X149844384Y-35558265D01*
G37*
%TD.AperFunction*%
%TD*%
M02*
