%TF.GenerationSoftware,KiCad,Pcbnew,(6.0.4-0)*%
%TF.CreationDate,2022-12-03T14:45:52-05:00*%
%TF.ProjectId,christmas,63687269-7374-46d6-9173-2e6b69636164,rev?*%
%TF.SameCoordinates,Original*%
%TF.FileFunction,Copper,L2,Bot*%
%TF.FilePolarity,Positive*%
%FSLAX46Y46*%
G04 Gerber Fmt 4.6, Leading zero omitted, Abs format (unit mm)*
G04 Created by KiCad (PCBNEW (6.0.4-0)) date 2022-12-03 14:45:52*
%MOMM*%
%LPD*%
G01*
G04 APERTURE LIST*
G04 Aperture macros list*
%AMRoundRect*
0 Rectangle with rounded corners*
0 $1 Rounding radius*
0 $2 $3 $4 $5 $6 $7 $8 $9 X,Y pos of 4 corners*
0 Add a 4 corners polygon primitive as box body*
4,1,4,$2,$3,$4,$5,$6,$7,$8,$9,$2,$3,0*
0 Add four circle primitives for the rounded corners*
1,1,$1+$1,$2,$3*
1,1,$1+$1,$4,$5*
1,1,$1+$1,$6,$7*
1,1,$1+$1,$8,$9*
0 Add four rect primitives between the rounded corners*
20,1,$1+$1,$2,$3,$4,$5,0*
20,1,$1+$1,$4,$5,$6,$7,0*
20,1,$1+$1,$6,$7,$8,$9,0*
20,1,$1+$1,$8,$9,$2,$3,0*%
%AMFreePoly0*
4,1,13,0.900000,0.500000,3.600000,0.500000,3.600000,-0.500000,0.900000,-0.500000,0.400000,-1.000000,-0.400000,-1.000000,-0.900000,-0.500000,-3.600000,-0.500000,-3.600000,0.500000,-0.900000,0.500000,-0.400000,1.000000,0.400000,1.000000,0.900000,0.500000,0.900000,0.500000,$1*%
G04 Aperture macros list end*
%TA.AperFunction,SMDPad,CuDef*%
%ADD10R,3.400000X1.800000*%
%TD*%
%TA.AperFunction,SMDPad,CuDef*%
%ADD11RoundRect,0.237500X-0.300000X-0.237500X0.300000X-0.237500X0.300000X0.237500X-0.300000X0.237500X0*%
%TD*%
%TA.AperFunction,SMDPad,CuDef*%
%ADD12RoundRect,0.237500X0.300000X0.237500X-0.300000X0.237500X-0.300000X-0.237500X0.300000X-0.237500X0*%
%TD*%
%TA.AperFunction,SMDPad,CuDef*%
%ADD13RoundRect,0.150000X0.825000X0.150000X-0.825000X0.150000X-0.825000X-0.150000X0.825000X-0.150000X0*%
%TD*%
%TA.AperFunction,SMDPad,CuDef*%
%ADD14R,2.500000X0.700000*%
%TD*%
%TA.AperFunction,SMDPad,CuDef*%
%ADD15FreePoly0,180.000000*%
%TD*%
%TA.AperFunction,ViaPad*%
%ADD16C,0.800000*%
%TD*%
%TA.AperFunction,Conductor*%
%ADD17C,0.250000*%
%TD*%
G04 APERTURE END LIST*
D10*
%TO.P,TP1,1*%
%TO.N,Net-(C3-Pad2)*%
X152400000Y-48260000D03*
%TD*%
%TO.P,TP2,1*%
%TO.N,GND*%
X157480000Y-48260000D03*
%TD*%
D11*
%TO.P,C5,2*%
%TO.N,GND*%
X138022500Y-58420000D03*
%TO.P,C5,1*%
%TO.N,+5V*%
X136297500Y-58420000D03*
%TD*%
D12*
%TO.P,C4,2*%
%TO.N,Net-(C3-Pad2)*%
X150675000Y-58420000D03*
%TO.P,C4,1*%
%TO.N,GND*%
X152400000Y-58420000D03*
%TD*%
%TO.P,C3,2*%
%TO.N,Net-(C3-Pad2)*%
X150675000Y-53340000D03*
%TO.P,C3,1*%
%TO.N,GND*%
X152400000Y-53340000D03*
%TD*%
%TO.P,C2,1*%
%TO.N,+5V*%
X145642500Y-40640000D03*
%TO.P,C2,2*%
%TO.N,GND*%
X143917500Y-40640000D03*
%TD*%
D11*
%TO.P,C1,2*%
%TO.N,GND*%
X138022500Y-53340000D03*
%TO.P,C1,1*%
%TO.N,+5V*%
X136297500Y-53340000D03*
%TD*%
D13*
%TO.P,U1,8,GND*%
%TO.N,GND*%
X142167500Y-43815000D03*
%TO.P,U1,7,PA3*%
%TO.N,unconnected-(U1-Pad7)*%
X142167500Y-45085000D03*
%TO.P,U1,6,~{RESET}/PA0*%
%TO.N,unconnected-(U1-Pad6)*%
X142167500Y-46355000D03*
%TO.P,U1,5,PA2*%
%TO.N,LED_DATA*%
X142167500Y-47625000D03*
%TO.P,U1,4,PA1*%
%TO.N,unconnected-(U1-Pad4)*%
X147117500Y-47625000D03*
%TO.P,U1,3,PA7*%
%TO.N,unconnected-(U1-Pad3)*%
X147117500Y-46355000D03*
%TO.P,U1,2,PA6*%
%TO.N,unconnected-(U1-Pad2)*%
X147117500Y-45085000D03*
%TO.P,U1,1,VCC*%
%TO.N,+5V*%
X147117500Y-43815000D03*
%TD*%
D14*
%TO.P,U2,5,VOUT*%
%TO.N,+5V*%
X141567500Y-54380000D03*
%TO.P,U2,4,NC*%
%TO.N,GND*%
X141567500Y-57380000D03*
%TO.P,U2,3,CE*%
%TO.N,Net-(C3-Pad2)*%
X146267500Y-57380000D03*
D15*
%TO.P,U2,2,GND*%
%TO.N,GND*%
X143917500Y-55880000D03*
D14*
%TO.P,U2,1,VIN*%
%TO.N,Net-(C3-Pad2)*%
X146267500Y-54380000D03*
%TD*%
D16*
%TO.N,LED_DATA*%
X81280000Y-134620000D03*
%TO.N,+5V*%
X134620000Y-58420000D03*
X134620000Y-53340000D03*
X147320000Y-40640000D03*
%TO.N,GND*%
X160020000Y-45720000D03*
X160020000Y-35560000D03*
X195580000Y-72580000D03*
X193040000Y-64960000D03*
X200660000Y-111760000D03*
X198120000Y-104140000D03*
X182880000Y-147320000D03*
X180340000Y-139700000D03*
X144780000Y-157480000D03*
X149860000Y-167640000D03*
X104140000Y-154940000D03*
X109220000Y-165100000D03*
X78740000Y-127000000D03*
X78740000Y-137160000D03*
X63500000Y-93980000D03*
X63500000Y-83820000D03*
X83820000Y-55880000D03*
X81280000Y-48260000D03*
X121920000Y-38100000D03*
X119380000Y-30480000D03*
%TD*%
D17*
%TO.N,LED_DATA*%
X81280000Y-105655386D02*
X81280000Y-134620000D01*
X139310386Y-47625000D02*
X81280000Y-105655386D01*
X142167500Y-47625000D02*
X139310386Y-47625000D01*
%TO.N,+5V*%
X136297500Y-58420000D02*
X134620000Y-58420000D01*
X136297500Y-53340000D02*
X134620000Y-53340000D01*
X147320000Y-40640000D02*
X145642500Y-40640000D01*
%TO.N,Net-(C3-Pad2)*%
X146267500Y-57380000D02*
X147167500Y-57380000D01*
X147167500Y-57380000D02*
X148207500Y-58420000D01*
X148207500Y-58420000D02*
X150675000Y-58420000D01*
%TO.N,GND*%
X141567500Y-57380000D02*
X141567500Y-57747500D01*
%TO.N,Net-(C3-Pad2)*%
X150675000Y-53340000D02*
X152400000Y-51615000D01*
X152400000Y-51615000D02*
X152400000Y-48260000D01*
%TO.N,+5V*%
X147117500Y-43815000D02*
X147117500Y-42115000D01*
X147117500Y-42115000D02*
X145642500Y-40640000D01*
%TO.N,Net-(C3-Pad2)*%
X150675000Y-53340000D02*
X149635000Y-54380000D01*
X149635000Y-54380000D02*
X146267500Y-54380000D01*
X150675000Y-53340000D02*
X150675000Y-58420000D01*
%TO.N,+5V*%
X136297500Y-58420000D02*
X136297500Y-53340000D01*
X141567500Y-54380000D02*
X140667500Y-54380000D01*
X140667500Y-54380000D02*
X138827980Y-52540480D01*
X138827980Y-52540480D02*
X137097020Y-52540480D01*
X137097020Y-52540480D02*
X136297500Y-53340000D01*
%TD*%
%TA.AperFunction,Conductor*%
%TO.N,GND*%
G36*
X126468001Y-25565823D02*
G01*
X126526973Y-25605355D01*
X126536732Y-25618775D01*
X126546831Y-25634781D01*
X126554969Y-25649863D01*
X126567208Y-25676782D01*
X126573069Y-25683584D01*
X126583970Y-25696235D01*
X126595073Y-25711239D01*
X126608776Y-25732958D01*
X126615501Y-25738897D01*
X126615504Y-25738901D01*
X126630938Y-25752532D01*
X126642982Y-25764724D01*
X126656427Y-25780327D01*
X126656430Y-25780329D01*
X126662287Y-25787127D01*
X126669816Y-25792007D01*
X126669817Y-25792008D01*
X126683835Y-25801094D01*
X126698709Y-25812385D01*
X126711217Y-25823431D01*
X126717951Y-25829378D01*
X126744711Y-25841942D01*
X126759691Y-25850263D01*
X126776983Y-25861471D01*
X126776988Y-25861473D01*
X126784515Y-25866352D01*
X126793108Y-25868922D01*
X126793113Y-25868924D01*
X126809120Y-25873711D01*
X126826564Y-25880372D01*
X126841676Y-25887467D01*
X126841678Y-25887468D01*
X126849800Y-25891281D01*
X126858667Y-25892662D01*
X126858668Y-25892662D01*
X126861353Y-25893080D01*
X126879017Y-25895830D01*
X126895732Y-25899613D01*
X126915466Y-25905515D01*
X126915472Y-25905516D01*
X126924066Y-25908086D01*
X126933037Y-25908141D01*
X126933038Y-25908141D01*
X126943097Y-25908202D01*
X126958506Y-25908296D01*
X126959289Y-25908329D01*
X126960386Y-25908500D01*
X126991377Y-25908500D01*
X126992147Y-25908502D01*
X127065785Y-25908952D01*
X127065786Y-25908952D01*
X127069721Y-25908976D01*
X127071065Y-25908592D01*
X127072410Y-25908500D01*
X130295613Y-25908500D01*
X130314772Y-25909965D01*
X159990968Y-30475534D01*
X160044065Y-30496846D01*
X185403110Y-48248177D01*
X185432239Y-48276586D01*
X199425175Y-67239357D01*
X199437657Y-67260225D01*
X199755516Y-67931145D01*
X199756711Y-67933742D01*
X200444338Y-69474556D01*
X200445471Y-69477175D01*
X200796080Y-70313280D01*
X200919752Y-70608205D01*
X200928059Y-70637579D01*
X204559394Y-94003391D01*
X205736269Y-101575992D01*
X205734537Y-101623673D01*
X204731543Y-105969980D01*
X198587296Y-132595051D01*
X198577236Y-132623038D01*
X198394059Y-132989634D01*
X198334598Y-133108634D01*
X198333291Y-133111177D01*
X197545071Y-134603011D01*
X197543707Y-134605523D01*
X196721844Y-136079091D01*
X196720423Y-136081572D01*
X196568364Y-136340234D01*
X196553398Y-136360669D01*
X175948660Y-159254822D01*
X175929333Y-159272274D01*
X175338573Y-159703854D01*
X175336250Y-159705510D01*
X174336341Y-160401761D01*
X174312813Y-160414661D01*
X145898062Y-172254141D01*
X145871804Y-172261861D01*
X144376062Y-172529640D01*
X144373243Y-172530112D01*
X143679245Y-172638168D01*
X143650883Y-172639348D01*
X117343833Y-170760274D01*
X110169181Y-170247799D01*
X110141008Y-170242517D01*
X109309630Y-169985958D01*
X109306971Y-169985104D01*
X108392512Y-169680017D01*
X108367563Y-169668538D01*
X83841992Y-154953195D01*
X83804917Y-154919261D01*
X70292897Y-136340234D01*
X69041818Y-134620000D01*
X80366496Y-134620000D01*
X80386458Y-134809928D01*
X80445473Y-134991556D01*
X80540960Y-135156944D01*
X80668747Y-135298866D01*
X80823248Y-135411118D01*
X80829276Y-135413802D01*
X80829278Y-135413803D01*
X80991681Y-135486109D01*
X80997712Y-135488794D01*
X81091112Y-135508647D01*
X81178056Y-135527128D01*
X81178061Y-135527128D01*
X81184513Y-135528500D01*
X81375487Y-135528500D01*
X81381939Y-135527128D01*
X81381944Y-135527128D01*
X81468888Y-135508647D01*
X81562288Y-135488794D01*
X81568319Y-135486109D01*
X81730722Y-135413803D01*
X81730724Y-135413802D01*
X81736752Y-135411118D01*
X81891253Y-135298866D01*
X82019040Y-135156944D01*
X82114527Y-134991556D01*
X82173542Y-134809928D01*
X82193504Y-134620000D01*
X82173542Y-134430072D01*
X82114527Y-134248444D01*
X82019040Y-134083056D01*
X81945863Y-134001785D01*
X81915147Y-133937779D01*
X81913500Y-133917476D01*
X81913500Y-105969980D01*
X81933502Y-105901859D01*
X81950405Y-105880885D01*
X133821843Y-54009447D01*
X133884155Y-53975421D01*
X133954970Y-53980486D01*
X133998762Y-54010276D01*
X133999423Y-54009541D01*
X134004325Y-54013954D01*
X134008747Y-54018866D01*
X134163248Y-54131118D01*
X134169276Y-54133802D01*
X134169278Y-54133803D01*
X134251421Y-54170375D01*
X134337712Y-54208794D01*
X134431112Y-54228647D01*
X134518056Y-54247128D01*
X134518061Y-54247128D01*
X134524513Y-54248500D01*
X134715487Y-54248500D01*
X134721939Y-54247128D01*
X134721944Y-54247128D01*
X134808888Y-54228647D01*
X134902288Y-54208794D01*
X134988579Y-54170375D01*
X135070722Y-54133803D01*
X135070724Y-54133802D01*
X135076752Y-54131118D01*
X135196617Y-54044031D01*
X135231253Y-54018866D01*
X135232449Y-54020512D01*
X135287780Y-53993965D01*
X135358233Y-54002737D01*
X135406070Y-54039484D01*
X135408884Y-54044031D01*
X135414065Y-54049203D01*
X135526816Y-54161758D01*
X135526821Y-54161762D01*
X135531997Y-54166929D01*
X135538227Y-54170769D01*
X135538228Y-54170770D01*
X135604116Y-54211384D01*
X135651609Y-54264156D01*
X135664000Y-54318644D01*
X135664000Y-57441360D01*
X135643998Y-57509481D01*
X135604304Y-57548503D01*
X135530969Y-57593884D01*
X135408071Y-57716997D01*
X135405894Y-57720529D01*
X135349043Y-57760838D01*
X135278120Y-57764071D01*
X135232225Y-57739796D01*
X135231253Y-57741134D01*
X135082094Y-57632763D01*
X135082093Y-57632762D01*
X135076752Y-57628882D01*
X135070724Y-57626198D01*
X135070722Y-57626197D01*
X134908319Y-57553891D01*
X134908318Y-57553891D01*
X134902288Y-57551206D01*
X134808887Y-57531353D01*
X134721944Y-57512872D01*
X134721939Y-57512872D01*
X134715487Y-57511500D01*
X134524513Y-57511500D01*
X134518061Y-57512872D01*
X134518056Y-57512872D01*
X134431113Y-57531353D01*
X134337712Y-57551206D01*
X134331682Y-57553891D01*
X134331681Y-57553891D01*
X134169278Y-57626197D01*
X134169276Y-57626198D01*
X134163248Y-57628882D01*
X134157907Y-57632762D01*
X134157906Y-57632763D01*
X134131271Y-57652115D01*
X134008747Y-57741134D01*
X133880960Y-57883056D01*
X133785473Y-58048444D01*
X133726458Y-58230072D01*
X133725768Y-58236633D01*
X133725768Y-58236635D01*
X133725625Y-58237999D01*
X133706496Y-58420000D01*
X133726458Y-58609928D01*
X133785473Y-58791556D01*
X133880960Y-58956944D01*
X133885378Y-58961851D01*
X133885379Y-58961852D01*
X133972149Y-59058220D01*
X134008747Y-59098866D01*
X134163248Y-59211118D01*
X134169276Y-59213802D01*
X134169278Y-59213803D01*
X134241855Y-59246116D01*
X134337712Y-59288794D01*
X134431113Y-59308647D01*
X134518056Y-59327128D01*
X134518061Y-59327128D01*
X134524513Y-59328500D01*
X134715487Y-59328500D01*
X134721939Y-59327128D01*
X134721944Y-59327128D01*
X134808887Y-59308647D01*
X134902288Y-59288794D01*
X134998145Y-59246116D01*
X135070722Y-59213803D01*
X135070724Y-59213802D01*
X135076752Y-59211118D01*
X135189497Y-59129204D01*
X135231253Y-59098866D01*
X135232449Y-59100512D01*
X135287780Y-59073965D01*
X135358233Y-59082737D01*
X135406070Y-59119484D01*
X135408884Y-59124031D01*
X135414065Y-59129203D01*
X135526816Y-59241758D01*
X135526821Y-59241762D01*
X135531997Y-59246929D01*
X135680080Y-59338209D01*
X135845191Y-59392974D01*
X135852027Y-59393674D01*
X135852030Y-59393675D01*
X135899370Y-59398525D01*
X135947928Y-59403500D01*
X136647072Y-59403500D01*
X136650318Y-59403163D01*
X136650322Y-59403163D01*
X136744235Y-59393419D01*
X136744239Y-59393418D01*
X136751093Y-59392707D01*
X136757629Y-59390526D01*
X136757631Y-59390526D01*
X136890395Y-59346232D01*
X136916107Y-59337654D01*
X137064031Y-59246116D01*
X137071274Y-59238861D01*
X137073038Y-59237895D01*
X137074941Y-59236387D01*
X137075199Y-59236713D01*
X137133554Y-59204781D01*
X137204375Y-59209782D01*
X137249470Y-59238708D01*
X137252131Y-59241364D01*
X137263540Y-59250375D01*
X137399063Y-59333912D01*
X137412241Y-59340056D01*
X137563766Y-59390315D01*
X137577132Y-59393181D01*
X137669770Y-59402672D01*
X137676185Y-59403000D01*
X137750385Y-59403000D01*
X137765624Y-59398525D01*
X137766829Y-59397135D01*
X137768500Y-59389452D01*
X137768500Y-59384885D01*
X138276500Y-59384885D01*
X138280975Y-59400124D01*
X138282365Y-59401329D01*
X138290048Y-59403000D01*
X138368766Y-59403000D01*
X138375282Y-59402663D01*
X138469132Y-59392925D01*
X138482528Y-59390032D01*
X138633953Y-59339512D01*
X138647115Y-59333347D01*
X138782492Y-59249574D01*
X138793890Y-59240540D01*
X138906363Y-59127871D01*
X138915375Y-59116460D01*
X138998912Y-58980937D01*
X139005056Y-58967759D01*
X139055315Y-58816234D01*
X139058181Y-58802868D01*
X139067672Y-58710230D01*
X139068000Y-58703815D01*
X139068000Y-58692115D01*
X139063525Y-58676876D01*
X139062135Y-58675671D01*
X139054452Y-58674000D01*
X138294615Y-58674000D01*
X138279376Y-58678475D01*
X138278171Y-58679865D01*
X138276500Y-58687548D01*
X138276500Y-59384885D01*
X137768500Y-59384885D01*
X137768500Y-58147885D01*
X138276500Y-58147885D01*
X138280975Y-58163124D01*
X138282365Y-58164329D01*
X138290048Y-58166000D01*
X139049885Y-58166000D01*
X139065124Y-58161525D01*
X139066329Y-58160135D01*
X139068000Y-58152452D01*
X139068000Y-58136234D01*
X139067663Y-58129718D01*
X139057925Y-58035868D01*
X139055032Y-58022472D01*
X139004512Y-57871047D01*
X138998347Y-57857885D01*
X138946852Y-57774669D01*
X139809501Y-57774669D01*
X139809871Y-57781490D01*
X139815395Y-57832352D01*
X139819021Y-57847604D01*
X139864176Y-57968054D01*
X139872714Y-57983649D01*
X139949215Y-58085724D01*
X139961776Y-58098285D01*
X140063851Y-58174786D01*
X140079446Y-58183324D01*
X140199894Y-58228478D01*
X140215149Y-58232105D01*
X140266014Y-58237631D01*
X140272828Y-58238000D01*
X141295385Y-58238000D01*
X141310624Y-58233525D01*
X141311829Y-58232135D01*
X141313500Y-58224452D01*
X141313500Y-58219884D01*
X141821500Y-58219884D01*
X141825975Y-58235123D01*
X141827365Y-58236328D01*
X141835048Y-58237999D01*
X142862169Y-58237999D01*
X142868990Y-58237629D01*
X142919852Y-58232105D01*
X142935104Y-58228479D01*
X143055554Y-58183324D01*
X143071149Y-58174786D01*
X143173224Y-58098285D01*
X143185785Y-58085724D01*
X143262286Y-57983649D01*
X143270824Y-57968054D01*
X143315978Y-57847606D01*
X143319605Y-57832351D01*
X143325131Y-57781486D01*
X143325313Y-57778134D01*
X144509000Y-57778134D01*
X144515755Y-57840316D01*
X144566885Y-57976705D01*
X144654239Y-58093261D01*
X144770795Y-58180615D01*
X144907184Y-58231745D01*
X144969366Y-58238500D01*
X147077905Y-58238500D01*
X147146026Y-58258502D01*
X147167001Y-58275405D01*
X147703853Y-58812258D01*
X147711387Y-58820537D01*
X147715500Y-58827018D01*
X147765151Y-58873643D01*
X147767993Y-58876398D01*
X147787730Y-58896135D01*
X147790927Y-58898615D01*
X147799947Y-58906318D01*
X147832179Y-58936586D01*
X147839125Y-58940405D01*
X147839128Y-58940407D01*
X147849934Y-58946348D01*
X147866453Y-58957199D01*
X147882459Y-58969614D01*
X147889728Y-58972759D01*
X147889732Y-58972762D01*
X147923037Y-58987174D01*
X147933687Y-58992391D01*
X147972440Y-59013695D01*
X147980115Y-59015666D01*
X147980116Y-59015666D01*
X147992062Y-59018733D01*
X148010767Y-59025137D01*
X148029355Y-59033181D01*
X148037178Y-59034420D01*
X148037188Y-59034423D01*
X148073024Y-59040099D01*
X148084644Y-59042505D01*
X148119789Y-59051528D01*
X148127470Y-59053500D01*
X148147724Y-59053500D01*
X148167434Y-59055051D01*
X148187443Y-59058220D01*
X148195335Y-59057474D01*
X148231461Y-59054059D01*
X148243319Y-59053500D01*
X149672536Y-59053500D01*
X149740657Y-59073502D01*
X149779679Y-59113196D01*
X149786384Y-59124031D01*
X149791565Y-59129203D01*
X149791566Y-59129204D01*
X149904316Y-59241758D01*
X149904321Y-59241762D01*
X149909497Y-59246929D01*
X150057580Y-59338209D01*
X150222691Y-59392974D01*
X150229527Y-59393674D01*
X150229530Y-59393675D01*
X150276870Y-59398525D01*
X150325428Y-59403500D01*
X151024572Y-59403500D01*
X151027818Y-59403163D01*
X151027822Y-59403163D01*
X151121735Y-59393419D01*
X151121739Y-59393418D01*
X151128593Y-59392707D01*
X151135129Y-59390526D01*
X151135131Y-59390526D01*
X151267895Y-59346232D01*
X151293607Y-59337654D01*
X151441531Y-59246116D01*
X151448774Y-59238861D01*
X151450538Y-59237895D01*
X151452441Y-59236387D01*
X151452699Y-59236713D01*
X151511054Y-59204781D01*
X151581875Y-59209782D01*
X151626970Y-59238708D01*
X151629631Y-59241364D01*
X151641040Y-59250375D01*
X151776563Y-59333912D01*
X151789741Y-59340056D01*
X151941266Y-59390315D01*
X151954632Y-59393181D01*
X152047270Y-59402672D01*
X152053685Y-59403000D01*
X152127885Y-59403000D01*
X152143124Y-59398525D01*
X152144329Y-59397135D01*
X152146000Y-59389452D01*
X152146000Y-59384885D01*
X152654000Y-59384885D01*
X152658475Y-59400124D01*
X152659865Y-59401329D01*
X152667548Y-59403000D01*
X152746266Y-59403000D01*
X152752782Y-59402663D01*
X152846632Y-59392925D01*
X152860028Y-59390032D01*
X153011453Y-59339512D01*
X153024615Y-59333347D01*
X153159992Y-59249574D01*
X153171390Y-59240540D01*
X153283863Y-59127871D01*
X153292875Y-59116460D01*
X153376412Y-58980937D01*
X153382556Y-58967759D01*
X153432815Y-58816234D01*
X153435681Y-58802868D01*
X153445172Y-58710230D01*
X153445500Y-58703815D01*
X153445500Y-58692115D01*
X153441025Y-58676876D01*
X153439635Y-58675671D01*
X153431952Y-58674000D01*
X152672115Y-58674000D01*
X152656876Y-58678475D01*
X152655671Y-58679865D01*
X152654000Y-58687548D01*
X152654000Y-59384885D01*
X152146000Y-59384885D01*
X152146000Y-58147885D01*
X152654000Y-58147885D01*
X152658475Y-58163124D01*
X152659865Y-58164329D01*
X152667548Y-58166000D01*
X153427385Y-58166000D01*
X153442624Y-58161525D01*
X153443829Y-58160135D01*
X153445500Y-58152452D01*
X153445500Y-58136234D01*
X153445163Y-58129718D01*
X153435425Y-58035868D01*
X153432532Y-58022472D01*
X153382012Y-57871047D01*
X153375847Y-57857885D01*
X153292074Y-57722508D01*
X153283040Y-57711110D01*
X153170371Y-57598637D01*
X153158960Y-57589625D01*
X153023437Y-57506088D01*
X153010259Y-57499944D01*
X152858734Y-57449685D01*
X152845368Y-57446819D01*
X152752730Y-57437328D01*
X152746315Y-57437000D01*
X152672115Y-57437000D01*
X152656876Y-57441475D01*
X152655671Y-57442865D01*
X152654000Y-57450548D01*
X152654000Y-58147885D01*
X152146000Y-58147885D01*
X152146000Y-57455115D01*
X152141525Y-57439876D01*
X152140135Y-57438671D01*
X152132452Y-57437000D01*
X152053734Y-57437000D01*
X152047218Y-57437337D01*
X151953368Y-57447075D01*
X151939972Y-57449968D01*
X151788547Y-57500488D01*
X151775385Y-57506653D01*
X151640008Y-57590426D01*
X151628606Y-57599464D01*
X151626933Y-57601139D01*
X151625507Y-57601919D01*
X151622873Y-57604007D01*
X151622516Y-57603556D01*
X151564651Y-57635219D01*
X151493831Y-57630216D01*
X151448746Y-57601299D01*
X151445685Y-57598244D01*
X151440503Y-57593071D01*
X151376942Y-57553891D01*
X151368384Y-57548616D01*
X151320891Y-57495844D01*
X151308500Y-57441356D01*
X151308500Y-54318640D01*
X151328502Y-54250519D01*
X151368196Y-54211497D01*
X151441531Y-54166116D01*
X151448774Y-54158861D01*
X151450538Y-54157895D01*
X151452441Y-54156387D01*
X151452699Y-54156713D01*
X151511054Y-54124781D01*
X151581875Y-54129782D01*
X151626970Y-54158708D01*
X151629631Y-54161364D01*
X151641040Y-54170375D01*
X151776563Y-54253912D01*
X151789741Y-54260056D01*
X151941266Y-54310315D01*
X151954632Y-54313181D01*
X152047270Y-54322672D01*
X152053685Y-54323000D01*
X152127885Y-54323000D01*
X152143124Y-54318525D01*
X152144329Y-54317135D01*
X152146000Y-54309452D01*
X152146000Y-54304885D01*
X152654000Y-54304885D01*
X152658475Y-54320124D01*
X152659865Y-54321329D01*
X152667548Y-54323000D01*
X152746266Y-54323000D01*
X152752782Y-54322663D01*
X152846632Y-54312925D01*
X152860028Y-54310032D01*
X153011453Y-54259512D01*
X153024615Y-54253347D01*
X153159992Y-54169574D01*
X153171390Y-54160540D01*
X153283863Y-54047871D01*
X153292875Y-54036460D01*
X153376412Y-53900937D01*
X153382556Y-53887759D01*
X153432815Y-53736234D01*
X153435681Y-53722868D01*
X153445172Y-53630230D01*
X153445500Y-53623815D01*
X153445500Y-53612115D01*
X153441025Y-53596876D01*
X153439635Y-53595671D01*
X153431952Y-53594000D01*
X152672115Y-53594000D01*
X152656876Y-53598475D01*
X152655671Y-53599865D01*
X152654000Y-53607548D01*
X152654000Y-54304885D01*
X152146000Y-54304885D01*
X152146000Y-53212000D01*
X152166002Y-53143879D01*
X152219658Y-53097386D01*
X152272000Y-53086000D01*
X153427385Y-53086000D01*
X153442624Y-53081525D01*
X153443829Y-53080135D01*
X153445500Y-53072452D01*
X153445500Y-53056234D01*
X153445163Y-53049718D01*
X153435425Y-52955868D01*
X153432532Y-52942472D01*
X153382012Y-52791047D01*
X153375847Y-52777885D01*
X153292074Y-52642508D01*
X153283040Y-52631110D01*
X153170371Y-52518637D01*
X153158960Y-52509625D01*
X153023437Y-52426088D01*
X153010259Y-52419944D01*
X152858734Y-52369685D01*
X152845367Y-52366819D01*
X152835761Y-52365835D01*
X152770034Y-52338994D01*
X152729252Y-52280880D01*
X152726362Y-52209942D01*
X152759508Y-52151396D01*
X152792247Y-52118657D01*
X152800537Y-52111113D01*
X152807018Y-52107000D01*
X152853659Y-52057332D01*
X152856413Y-52054491D01*
X152876134Y-52034770D01*
X152878612Y-52031575D01*
X152886318Y-52022553D01*
X152911158Y-51996101D01*
X152916586Y-51990321D01*
X152926346Y-51972568D01*
X152937199Y-51956045D01*
X152941422Y-51950601D01*
X152949613Y-51940041D01*
X152967176Y-51899457D01*
X152972383Y-51888827D01*
X152993695Y-51850060D01*
X152995666Y-51842383D01*
X152995668Y-51842378D01*
X152998732Y-51830442D01*
X153005138Y-51811730D01*
X153010034Y-51800417D01*
X153013181Y-51793145D01*
X153020097Y-51749481D01*
X153022504Y-51737860D01*
X153031528Y-51702711D01*
X153031528Y-51702710D01*
X153033500Y-51695030D01*
X153033500Y-51674769D01*
X153035051Y-51655058D01*
X153036979Y-51642885D01*
X153038219Y-51635057D01*
X153034059Y-51591046D01*
X153033500Y-51579189D01*
X153033500Y-49794500D01*
X153053502Y-49726379D01*
X153107158Y-49679886D01*
X153159500Y-49668500D01*
X154148134Y-49668500D01*
X154210316Y-49661745D01*
X154346705Y-49610615D01*
X154463261Y-49523261D01*
X154550615Y-49406705D01*
X154601745Y-49270316D01*
X154608500Y-49208134D01*
X154608500Y-49204669D01*
X155272001Y-49204669D01*
X155272371Y-49211490D01*
X155277895Y-49262352D01*
X155281521Y-49277604D01*
X155326676Y-49398054D01*
X155335214Y-49413649D01*
X155411715Y-49515724D01*
X155424276Y-49528285D01*
X155526351Y-49604786D01*
X155541946Y-49613324D01*
X155662394Y-49658478D01*
X155677649Y-49662105D01*
X155728514Y-49667631D01*
X155735328Y-49668000D01*
X157207885Y-49668000D01*
X157223124Y-49663525D01*
X157224329Y-49662135D01*
X157226000Y-49654452D01*
X157226000Y-49649884D01*
X157734000Y-49649884D01*
X157738475Y-49665123D01*
X157739865Y-49666328D01*
X157747548Y-49667999D01*
X159224669Y-49667999D01*
X159231490Y-49667629D01*
X159282352Y-49662105D01*
X159297604Y-49658479D01*
X159418054Y-49613324D01*
X159433649Y-49604786D01*
X159535724Y-49528285D01*
X159548285Y-49515724D01*
X159624786Y-49413649D01*
X159633324Y-49398054D01*
X159678478Y-49277606D01*
X159682105Y-49262351D01*
X159687631Y-49211486D01*
X159688000Y-49204672D01*
X159688000Y-48532115D01*
X159683525Y-48516876D01*
X159682135Y-48515671D01*
X159674452Y-48514000D01*
X157752115Y-48514000D01*
X157736876Y-48518475D01*
X157735671Y-48519865D01*
X157734000Y-48527548D01*
X157734000Y-49649884D01*
X157226000Y-49649884D01*
X157226000Y-48532115D01*
X157221525Y-48516876D01*
X157220135Y-48515671D01*
X157212452Y-48514000D01*
X155290116Y-48514000D01*
X155274877Y-48518475D01*
X155273672Y-48519865D01*
X155272001Y-48527548D01*
X155272001Y-49204669D01*
X154608500Y-49204669D01*
X154608500Y-47987885D01*
X155272000Y-47987885D01*
X155276475Y-48003124D01*
X155277865Y-48004329D01*
X155285548Y-48006000D01*
X157207885Y-48006000D01*
X157223124Y-48001525D01*
X157224329Y-48000135D01*
X157226000Y-47992452D01*
X157226000Y-47987885D01*
X157734000Y-47987885D01*
X157738475Y-48003124D01*
X157739865Y-48004329D01*
X157747548Y-48006000D01*
X159669884Y-48006000D01*
X159685123Y-48001525D01*
X159686328Y-48000135D01*
X159687999Y-47992452D01*
X159687999Y-47315331D01*
X159687629Y-47308510D01*
X159682105Y-47257648D01*
X159678479Y-47242396D01*
X159633324Y-47121946D01*
X159624786Y-47106351D01*
X159548285Y-47004276D01*
X159535724Y-46991715D01*
X159433649Y-46915214D01*
X159418054Y-46906676D01*
X159297606Y-46861522D01*
X159282351Y-46857895D01*
X159231486Y-46852369D01*
X159224672Y-46852000D01*
X157752115Y-46852000D01*
X157736876Y-46856475D01*
X157735671Y-46857865D01*
X157734000Y-46865548D01*
X157734000Y-47987885D01*
X157226000Y-47987885D01*
X157226000Y-46870116D01*
X157221525Y-46854877D01*
X157220135Y-46853672D01*
X157212452Y-46852001D01*
X155735331Y-46852001D01*
X155728510Y-46852371D01*
X155677648Y-46857895D01*
X155662396Y-46861521D01*
X155541946Y-46906676D01*
X155526351Y-46915214D01*
X155424276Y-46991715D01*
X155411715Y-47004276D01*
X155335214Y-47106351D01*
X155326676Y-47121946D01*
X155281522Y-47242394D01*
X155277895Y-47257649D01*
X155272369Y-47308514D01*
X155272000Y-47315328D01*
X155272000Y-47987885D01*
X154608500Y-47987885D01*
X154608500Y-47311866D01*
X154601745Y-47249684D01*
X154550615Y-47113295D01*
X154463261Y-46996739D01*
X154346705Y-46909385D01*
X154210316Y-46858255D01*
X154148134Y-46851500D01*
X150651866Y-46851500D01*
X150589684Y-46858255D01*
X150453295Y-46909385D01*
X150336739Y-46996739D01*
X150249385Y-47113295D01*
X150198255Y-47249684D01*
X150191500Y-47311866D01*
X150191500Y-49208134D01*
X150198255Y-49270316D01*
X150249385Y-49406705D01*
X150336739Y-49523261D01*
X150453295Y-49610615D01*
X150589684Y-49661745D01*
X150651866Y-49668500D01*
X151640500Y-49668500D01*
X151708621Y-49688502D01*
X151755114Y-49742158D01*
X151766500Y-49794500D01*
X151766500Y-51300405D01*
X151746498Y-51368526D01*
X151729595Y-51389500D01*
X150799500Y-52319595D01*
X150737188Y-52353621D01*
X150710405Y-52356500D01*
X150325428Y-52356500D01*
X150322182Y-52356837D01*
X150322178Y-52356837D01*
X150228265Y-52366581D01*
X150228261Y-52366582D01*
X150221407Y-52367293D01*
X150214871Y-52369474D01*
X150214869Y-52369474D01*
X150082105Y-52413768D01*
X150056393Y-52422346D01*
X149908469Y-52513884D01*
X149903296Y-52519066D01*
X149790742Y-52631816D01*
X149790738Y-52631821D01*
X149785571Y-52636997D01*
X149781731Y-52643227D01*
X149781730Y-52643228D01*
X149742729Y-52706500D01*
X149694291Y-52785080D01*
X149639526Y-52950191D01*
X149629000Y-53052928D01*
X149629000Y-53437905D01*
X149608998Y-53506026D01*
X149592095Y-53527000D01*
X149409500Y-53709595D01*
X149347188Y-53743621D01*
X149320405Y-53746500D01*
X148003566Y-53746500D01*
X147935445Y-53726498D01*
X147902742Y-53696068D01*
X147880761Y-53666739D01*
X147764205Y-53579385D01*
X147627816Y-53528255D01*
X147565634Y-53521500D01*
X144969366Y-53521500D01*
X144907184Y-53528255D01*
X144770795Y-53579385D01*
X144654239Y-53666739D01*
X144566885Y-53783295D01*
X144515755Y-53919684D01*
X144509000Y-53981866D01*
X144509000Y-54778134D01*
X144515755Y-54840316D01*
X144566885Y-54976705D01*
X144654239Y-55093261D01*
X144770795Y-55180615D01*
X144907184Y-55231745D01*
X144969366Y-55238500D01*
X147565634Y-55238500D01*
X147627816Y-55231745D01*
X147764205Y-55180615D01*
X147880761Y-55093261D01*
X147902741Y-55063933D01*
X147959600Y-55021420D01*
X148003566Y-55013500D01*
X149556233Y-55013500D01*
X149567416Y-55014027D01*
X149574909Y-55015702D01*
X149582835Y-55015453D01*
X149582836Y-55015453D01*
X149642986Y-55013562D01*
X149646945Y-55013500D01*
X149674856Y-55013500D01*
X149678791Y-55013003D01*
X149678856Y-55012995D01*
X149690693Y-55012062D01*
X149722951Y-55011048D01*
X149726970Y-55010922D01*
X149734889Y-55010673D01*
X149754343Y-55005021D01*
X149773700Y-55001013D01*
X149785930Y-54999468D01*
X149785931Y-54999468D01*
X149793797Y-54998474D01*
X149801168Y-54995555D01*
X149801170Y-54995555D01*
X149834912Y-54982196D01*
X149846132Y-54978354D01*
X149880349Y-54968413D01*
X149951342Y-54968615D01*
X150010959Y-55007168D01*
X150040268Y-55071833D01*
X150041500Y-55089410D01*
X150041500Y-57441360D01*
X150021498Y-57509481D01*
X149981804Y-57548503D01*
X149908469Y-57593884D01*
X149903296Y-57599066D01*
X149790742Y-57711816D01*
X149790738Y-57711821D01*
X149785571Y-57716997D01*
X149781731Y-57723227D01*
X149781730Y-57723228D01*
X149779643Y-57726614D01*
X149777614Y-57728441D01*
X149777193Y-57728973D01*
X149777102Y-57728901D01*
X149726872Y-57774108D01*
X149672382Y-57786500D01*
X148522095Y-57786500D01*
X148453974Y-57766498D01*
X148432999Y-57749595D01*
X148062904Y-57379499D01*
X148028879Y-57317187D01*
X148026000Y-57290404D01*
X148026000Y-56981866D01*
X148019245Y-56919684D01*
X147968115Y-56783295D01*
X147880761Y-56666739D01*
X147764205Y-56579385D01*
X147627816Y-56528255D01*
X147565634Y-56521500D01*
X144969366Y-56521500D01*
X144907184Y-56528255D01*
X144770795Y-56579385D01*
X144654239Y-56666739D01*
X144566885Y-56783295D01*
X144515755Y-56919684D01*
X144509000Y-56981866D01*
X144509000Y-57778134D01*
X143325313Y-57778134D01*
X143325500Y-57774672D01*
X143325500Y-57652115D01*
X143321025Y-57636876D01*
X143319635Y-57635671D01*
X143311952Y-57634000D01*
X141839615Y-57634000D01*
X141824376Y-57638475D01*
X141823171Y-57639865D01*
X141821500Y-57647548D01*
X141821500Y-58219884D01*
X141313500Y-58219884D01*
X141313500Y-57652115D01*
X141309025Y-57636876D01*
X141307635Y-57635671D01*
X141299952Y-57634000D01*
X139827616Y-57634000D01*
X139812377Y-57638475D01*
X139811172Y-57639865D01*
X139809501Y-57647548D01*
X139809501Y-57774669D01*
X138946852Y-57774669D01*
X138914574Y-57722508D01*
X138905540Y-57711110D01*
X138792871Y-57598637D01*
X138781460Y-57589625D01*
X138645937Y-57506088D01*
X138632759Y-57499944D01*
X138481234Y-57449685D01*
X138467868Y-57446819D01*
X138375230Y-57437328D01*
X138368815Y-57437000D01*
X138294615Y-57437000D01*
X138279376Y-57441475D01*
X138278171Y-57442865D01*
X138276500Y-57450548D01*
X138276500Y-58147885D01*
X137768500Y-58147885D01*
X137768500Y-57455115D01*
X137764025Y-57439876D01*
X137762635Y-57438671D01*
X137754952Y-57437000D01*
X137676234Y-57437000D01*
X137669718Y-57437337D01*
X137575868Y-57447075D01*
X137562472Y-57449968D01*
X137411047Y-57500488D01*
X137397885Y-57506653D01*
X137262508Y-57590426D01*
X137251106Y-57599464D01*
X137249433Y-57601139D01*
X137248007Y-57601919D01*
X137245373Y-57604007D01*
X137245016Y-57603556D01*
X137187151Y-57635219D01*
X137116331Y-57630216D01*
X137071246Y-57601299D01*
X137068185Y-57598244D01*
X137063003Y-57593071D01*
X136999442Y-57553891D01*
X136990884Y-57548616D01*
X136943391Y-57495844D01*
X136931000Y-57441356D01*
X136931000Y-57107885D01*
X139809500Y-57107885D01*
X139813975Y-57123124D01*
X139815365Y-57124329D01*
X139823048Y-57126000D01*
X141295385Y-57126000D01*
X141310624Y-57121525D01*
X141311829Y-57120135D01*
X141313500Y-57112452D01*
X141313500Y-57107885D01*
X141821500Y-57107885D01*
X141825975Y-57123124D01*
X141827365Y-57124329D01*
X141835048Y-57126000D01*
X143307384Y-57126000D01*
X143322623Y-57121525D01*
X143323828Y-57120135D01*
X143325499Y-57112452D01*
X143325499Y-56985331D01*
X143325129Y-56978510D01*
X143319605Y-56927648D01*
X143315979Y-56912396D01*
X143270824Y-56791946D01*
X143262286Y-56776351D01*
X143185785Y-56674276D01*
X143173224Y-56661715D01*
X143071149Y-56585214D01*
X143055554Y-56576676D01*
X142935106Y-56531522D01*
X142919851Y-56527895D01*
X142868986Y-56522369D01*
X142862172Y-56522000D01*
X141839615Y-56522000D01*
X141824376Y-56526475D01*
X141823171Y-56527865D01*
X141821500Y-56535548D01*
X141821500Y-57107885D01*
X141313500Y-57107885D01*
X141313500Y-56540116D01*
X141309025Y-56524877D01*
X141307635Y-56523672D01*
X141299952Y-56522001D01*
X140272831Y-56522001D01*
X140266010Y-56522371D01*
X140215148Y-56527895D01*
X140199896Y-56531521D01*
X140079446Y-56576676D01*
X140063851Y-56585214D01*
X139961776Y-56661715D01*
X139949215Y-56674276D01*
X139872714Y-56776351D01*
X139864176Y-56791946D01*
X139819022Y-56912394D01*
X139815395Y-56927649D01*
X139809869Y-56978514D01*
X139809500Y-56985328D01*
X139809500Y-57107885D01*
X136931000Y-57107885D01*
X136931000Y-54318640D01*
X136951002Y-54250519D01*
X136990696Y-54211497D01*
X137064031Y-54166116D01*
X137071274Y-54158861D01*
X137073038Y-54157895D01*
X137074941Y-54156387D01*
X137075199Y-54156713D01*
X137133554Y-54124781D01*
X137204375Y-54129782D01*
X137249470Y-54158708D01*
X137252131Y-54161364D01*
X137263540Y-54170375D01*
X137399063Y-54253912D01*
X137412241Y-54260056D01*
X137563766Y-54310315D01*
X137577132Y-54313181D01*
X137669770Y-54322672D01*
X137676185Y-54323000D01*
X137750385Y-54323000D01*
X137765624Y-54318525D01*
X137766829Y-54317135D01*
X137768500Y-54309452D01*
X137768500Y-53299980D01*
X137788502Y-53231859D01*
X137842158Y-53185366D01*
X137894500Y-53173980D01*
X138150500Y-53173980D01*
X138218621Y-53193982D01*
X138265114Y-53247638D01*
X138276500Y-53299980D01*
X138276500Y-54304885D01*
X138280975Y-54320124D01*
X138282365Y-54321329D01*
X138290048Y-54323000D01*
X138368766Y-54323000D01*
X138375282Y-54322663D01*
X138469132Y-54312925D01*
X138482528Y-54310032D01*
X138633953Y-54259512D01*
X138647115Y-54253347D01*
X138782492Y-54169574D01*
X138793890Y-54160540D01*
X138906363Y-54047871D01*
X138915375Y-54036460D01*
X138998912Y-53900937D01*
X139005055Y-53887762D01*
X139009087Y-53875607D01*
X139049518Y-53817247D01*
X139115083Y-53790011D01*
X139184964Y-53802545D01*
X139217775Y-53826180D01*
X139772095Y-54380500D01*
X139806121Y-54442812D01*
X139809000Y-54469595D01*
X139809000Y-54778134D01*
X139815755Y-54840316D01*
X139866885Y-54976705D01*
X139954239Y-55093261D01*
X140070795Y-55180615D01*
X140207184Y-55231745D01*
X140269366Y-55238500D01*
X142865634Y-55238500D01*
X142927816Y-55231745D01*
X143064205Y-55180615D01*
X143180761Y-55093261D01*
X143268115Y-54976705D01*
X143319245Y-54840316D01*
X143326000Y-54778134D01*
X143326000Y-53981866D01*
X143319245Y-53919684D01*
X143268115Y-53783295D01*
X143180761Y-53666739D01*
X143064205Y-53579385D01*
X142927816Y-53528255D01*
X142865634Y-53521500D01*
X140757094Y-53521500D01*
X140688973Y-53501498D01*
X140667999Y-53484595D01*
X139331632Y-52148227D01*
X139324092Y-52139941D01*
X139319980Y-52133462D01*
X139294014Y-52109078D01*
X139270329Y-52086837D01*
X139267487Y-52084082D01*
X139247750Y-52064345D01*
X139244553Y-52061865D01*
X139235531Y-52054160D01*
X139222102Y-52041549D01*
X139203301Y-52023894D01*
X139196355Y-52020075D01*
X139196352Y-52020073D01*
X139185546Y-52014132D01*
X139169027Y-52003281D01*
X139159770Y-51996101D01*
X139153021Y-51990866D01*
X139145752Y-51987721D01*
X139145748Y-51987718D01*
X139112443Y-51973306D01*
X139101793Y-51968089D01*
X139063040Y-51946785D01*
X139043417Y-51941747D01*
X139024714Y-51935343D01*
X139013400Y-51930447D01*
X139013399Y-51930447D01*
X139006125Y-51927299D01*
X138998302Y-51926060D01*
X138998292Y-51926057D01*
X138962456Y-51920381D01*
X138950836Y-51917975D01*
X138915691Y-51908952D01*
X138915690Y-51908952D01*
X138908010Y-51906980D01*
X138887756Y-51906980D01*
X138868045Y-51905429D01*
X138855866Y-51903500D01*
X138848037Y-51902260D01*
X138818766Y-51905027D01*
X138804019Y-51906421D01*
X138792161Y-51906980D01*
X137175787Y-51906980D01*
X137164604Y-51906453D01*
X137157111Y-51904778D01*
X137149185Y-51905027D01*
X137149184Y-51905027D01*
X137089034Y-51906918D01*
X137085075Y-51906980D01*
X137057164Y-51906980D01*
X137053230Y-51907477D01*
X137053229Y-51907477D01*
X137053164Y-51907485D01*
X137041327Y-51908418D01*
X137009069Y-51909432D01*
X137005050Y-51909558D01*
X136997131Y-51909807D01*
X136977677Y-51915459D01*
X136958320Y-51919467D01*
X136946090Y-51921012D01*
X136946089Y-51921012D01*
X136938223Y-51922006D01*
X136930852Y-51924925D01*
X136930850Y-51924925D01*
X136897108Y-51938284D01*
X136885878Y-51942129D01*
X136851037Y-51952251D01*
X136851036Y-51952251D01*
X136843427Y-51954462D01*
X136836608Y-51958495D01*
X136836603Y-51958497D01*
X136825992Y-51964773D01*
X136808244Y-51973468D01*
X136789403Y-51980928D01*
X136782987Y-51985590D01*
X136782986Y-51985590D01*
X136753633Y-52006916D01*
X136743713Y-52013432D01*
X136712485Y-52031900D01*
X136712482Y-52031902D01*
X136705658Y-52035938D01*
X136691337Y-52050259D01*
X136676304Y-52063099D01*
X136659913Y-52075008D01*
X136654862Y-52081113D01*
X136654857Y-52081118D01*
X136631726Y-52109078D01*
X136623739Y-52117856D01*
X136520775Y-52220821D01*
X136422001Y-52319595D01*
X136359689Y-52353620D01*
X136332905Y-52356500D01*
X135947928Y-52356500D01*
X135944682Y-52356837D01*
X135944678Y-52356837D01*
X135850765Y-52366581D01*
X135850761Y-52366582D01*
X135843907Y-52367293D01*
X135837373Y-52369473D01*
X135837368Y-52369474D01*
X135780401Y-52388480D01*
X135709451Y-52391064D01*
X135648367Y-52354880D01*
X135616543Y-52291416D01*
X135624082Y-52220821D01*
X135651430Y-52179861D01*
X139535886Y-48295405D01*
X139598198Y-48261379D01*
X139624981Y-48258500D01*
X140842550Y-48258500D01*
X140910671Y-48278502D01*
X140923771Y-48289059D01*
X140923825Y-48288989D01*
X140930084Y-48293844D01*
X140935693Y-48299453D01*
X140942517Y-48303489D01*
X140942520Y-48303491D01*
X141024682Y-48352081D01*
X141078899Y-48384145D01*
X141086510Y-48386356D01*
X141086512Y-48386357D01*
X141138731Y-48401528D01*
X141238669Y-48430562D01*
X141245074Y-48431066D01*
X141245079Y-48431067D01*
X141273542Y-48433307D01*
X141273550Y-48433307D01*
X141275998Y-48433500D01*
X143059002Y-48433500D01*
X143061450Y-48433307D01*
X143061458Y-48433307D01*
X143089921Y-48431067D01*
X143089926Y-48431066D01*
X143096331Y-48430562D01*
X143196269Y-48401528D01*
X143248488Y-48386357D01*
X143248490Y-48386356D01*
X143256101Y-48384145D01*
X143310318Y-48352081D01*
X143392480Y-48303491D01*
X143392483Y-48303489D01*
X143399307Y-48299453D01*
X143516953Y-48181807D01*
X143520989Y-48174983D01*
X143520991Y-48174980D01*
X143597608Y-48045427D01*
X143601645Y-48038601D01*
X143612417Y-48001525D01*
X143646267Y-47885008D01*
X143648062Y-47878831D01*
X143651000Y-47841502D01*
X143651000Y-47408498D01*
X143648062Y-47371169D01*
X143615082Y-47257649D01*
X143603857Y-47219012D01*
X143603856Y-47219010D01*
X143601645Y-47211399D01*
X143516953Y-47068193D01*
X143514271Y-47065511D01*
X143488998Y-47001139D01*
X143502900Y-46931516D01*
X143513072Y-46915688D01*
X143516953Y-46911807D01*
X143601645Y-46768601D01*
X143648062Y-46608831D01*
X143651000Y-46571502D01*
X143651000Y-46138498D01*
X143648062Y-46101169D01*
X143601645Y-45941399D01*
X143516953Y-45798193D01*
X143514271Y-45795511D01*
X143488998Y-45731139D01*
X143502900Y-45661516D01*
X143513072Y-45645688D01*
X143516953Y-45641807D01*
X143601645Y-45498601D01*
X143648062Y-45338831D01*
X143651000Y-45301502D01*
X143651000Y-44868498D01*
X143648062Y-44831169D01*
X143601645Y-44671399D01*
X143516953Y-44528193D01*
X143514013Y-44525253D01*
X143488680Y-44460734D01*
X143502579Y-44391111D01*
X143514626Y-44372364D01*
X143520590Y-44364676D01*
X143597148Y-44235221D01*
X143603393Y-44220790D01*
X143642439Y-44086395D01*
X143642399Y-44072294D01*
X143635130Y-44069000D01*
X140705622Y-44069000D01*
X140692091Y-44072973D01*
X140690956Y-44080871D01*
X140731607Y-44220790D01*
X140737852Y-44235221D01*
X140814411Y-44364677D01*
X140820371Y-44372360D01*
X140846320Y-44438444D01*
X140832422Y-44508067D01*
X140822079Y-44524161D01*
X140818047Y-44528193D01*
X140733355Y-44671399D01*
X140686938Y-44831169D01*
X140684000Y-44868498D01*
X140684000Y-45301502D01*
X140686938Y-45338831D01*
X140733355Y-45498601D01*
X140818047Y-45641807D01*
X140820729Y-45644489D01*
X140846002Y-45708861D01*
X140832100Y-45778484D01*
X140821928Y-45794312D01*
X140818047Y-45798193D01*
X140733355Y-45941399D01*
X140686938Y-46101169D01*
X140684000Y-46138498D01*
X140684000Y-46571502D01*
X140686938Y-46608831D01*
X140733355Y-46768601D01*
X140752731Y-46801363D01*
X140770189Y-46870178D01*
X140747672Y-46937509D01*
X140692327Y-46981978D01*
X140644276Y-46991500D01*
X139389153Y-46991500D01*
X139377970Y-46990973D01*
X139370477Y-46989298D01*
X139362551Y-46989547D01*
X139362550Y-46989547D01*
X139302387Y-46991438D01*
X139298429Y-46991500D01*
X139270530Y-46991500D01*
X139266540Y-46992004D01*
X139254706Y-46992936D01*
X139210497Y-46994326D01*
X139202883Y-46996538D01*
X139202878Y-46996539D01*
X139191045Y-46999977D01*
X139171682Y-47003988D01*
X139151589Y-47006526D01*
X139144222Y-47009443D01*
X139144217Y-47009444D01*
X139110478Y-47022802D01*
X139099251Y-47026646D01*
X139056793Y-47038982D01*
X139049967Y-47043019D01*
X139039358Y-47049293D01*
X139021610Y-47057988D01*
X139002769Y-47065448D01*
X138996353Y-47070110D01*
X138996352Y-47070110D01*
X138966999Y-47091436D01*
X138957079Y-47097952D01*
X138925851Y-47116420D01*
X138925848Y-47116422D01*
X138919024Y-47120458D01*
X138904703Y-47134779D01*
X138889670Y-47147619D01*
X138873279Y-47159528D01*
X138868228Y-47165634D01*
X138845088Y-47193605D01*
X138837098Y-47202384D01*
X80887747Y-105151734D01*
X80879461Y-105159274D01*
X80872982Y-105163386D01*
X80867557Y-105169163D01*
X80826357Y-105213037D01*
X80823602Y-105215879D01*
X80803865Y-105235616D01*
X80801385Y-105238813D01*
X80793682Y-105247833D01*
X80763414Y-105280065D01*
X80759595Y-105287011D01*
X80759593Y-105287014D01*
X80753652Y-105297820D01*
X80742801Y-105314339D01*
X80730386Y-105330345D01*
X80727241Y-105337614D01*
X80727238Y-105337618D01*
X80712826Y-105370923D01*
X80707609Y-105381573D01*
X80686305Y-105420326D01*
X80684334Y-105428001D01*
X80684334Y-105428002D01*
X80681267Y-105439948D01*
X80674863Y-105458652D01*
X80666819Y-105477241D01*
X80665580Y-105485064D01*
X80665577Y-105485074D01*
X80659901Y-105520910D01*
X80657495Y-105532530D01*
X80646500Y-105575356D01*
X80646500Y-105595610D01*
X80644949Y-105615320D01*
X80641780Y-105635329D01*
X80642526Y-105643221D01*
X80645941Y-105679347D01*
X80646500Y-105691205D01*
X80646500Y-133917476D01*
X80626498Y-133985597D01*
X80614142Y-134001779D01*
X80540960Y-134083056D01*
X80445473Y-134248444D01*
X80386458Y-134430072D01*
X80366496Y-134620000D01*
X69041818Y-134620000D01*
X63517983Y-127024727D01*
X63495350Y-126969778D01*
X58423599Y-94003391D01*
X58425134Y-93956899D01*
X63494573Y-71144424D01*
X63514350Y-71099501D01*
X72390976Y-58418605D01*
X81267605Y-45737707D01*
X81297588Y-45707437D01*
X84326953Y-43543605D01*
X140692561Y-43543605D01*
X140692601Y-43557706D01*
X140699870Y-43561000D01*
X141895385Y-43561000D01*
X141910624Y-43556525D01*
X141911829Y-43555135D01*
X141913500Y-43547452D01*
X141913500Y-43542885D01*
X142421500Y-43542885D01*
X142425975Y-43558124D01*
X142427365Y-43559329D01*
X142435048Y-43561000D01*
X143629378Y-43561000D01*
X143642909Y-43557027D01*
X143644044Y-43549129D01*
X143603393Y-43409210D01*
X143597148Y-43394779D01*
X143520589Y-43265322D01*
X143510949Y-43252896D01*
X143404604Y-43146551D01*
X143392178Y-43136911D01*
X143262721Y-43060352D01*
X143248290Y-43054107D01*
X143102435Y-43011731D01*
X143089833Y-43009430D01*
X143061416Y-43007193D01*
X143056486Y-43007000D01*
X142439615Y-43007000D01*
X142424376Y-43011475D01*
X142423171Y-43012865D01*
X142421500Y-43020548D01*
X142421500Y-43542885D01*
X141913500Y-43542885D01*
X141913500Y-43025116D01*
X141909025Y-43009877D01*
X141907635Y-43008672D01*
X141899952Y-43007001D01*
X141278517Y-43007001D01*
X141273580Y-43007195D01*
X141245164Y-43009430D01*
X141232569Y-43011730D01*
X141086710Y-43054107D01*
X141072279Y-43060352D01*
X140942822Y-43136911D01*
X140930396Y-43146551D01*
X140824051Y-43252896D01*
X140814411Y-43265322D01*
X140737852Y-43394779D01*
X140731607Y-43409210D01*
X140692561Y-43543605D01*
X84326953Y-43543605D01*
X87994728Y-40923766D01*
X142872000Y-40923766D01*
X142872337Y-40930282D01*
X142882075Y-41024132D01*
X142884968Y-41037528D01*
X142935488Y-41188953D01*
X142941653Y-41202115D01*
X143025426Y-41337492D01*
X143034460Y-41348890D01*
X143147129Y-41461363D01*
X143158540Y-41470375D01*
X143294063Y-41553912D01*
X143307241Y-41560056D01*
X143458766Y-41610315D01*
X143472132Y-41613181D01*
X143564770Y-41622672D01*
X143571185Y-41623000D01*
X143645385Y-41623000D01*
X143660624Y-41618525D01*
X143661829Y-41617135D01*
X143663500Y-41609452D01*
X143663500Y-41604885D01*
X144171500Y-41604885D01*
X144175975Y-41620124D01*
X144177365Y-41621329D01*
X144185048Y-41623000D01*
X144263766Y-41623000D01*
X144270282Y-41622663D01*
X144364132Y-41612925D01*
X144377528Y-41610032D01*
X144528953Y-41559512D01*
X144542115Y-41553347D01*
X144677492Y-41469574D01*
X144688894Y-41460536D01*
X144690567Y-41458861D01*
X144691993Y-41458081D01*
X144694627Y-41455993D01*
X144694984Y-41456444D01*
X144752849Y-41424781D01*
X144823669Y-41429784D01*
X144868754Y-41458701D01*
X144870593Y-41460536D01*
X144876997Y-41466929D01*
X144883227Y-41470769D01*
X144883228Y-41470770D01*
X144925783Y-41497001D01*
X145025080Y-41558209D01*
X145190191Y-41612974D01*
X145197027Y-41613674D01*
X145197030Y-41613675D01*
X145244370Y-41618525D01*
X145292928Y-41623500D01*
X145677905Y-41623500D01*
X145746026Y-41643502D01*
X145767001Y-41660405D01*
X146447096Y-42340501D01*
X146481121Y-42402813D01*
X146484000Y-42429596D01*
X146484000Y-42880500D01*
X146463998Y-42948621D01*
X146410342Y-42995114D01*
X146358000Y-43006500D01*
X146225998Y-43006500D01*
X146223550Y-43006693D01*
X146223542Y-43006693D01*
X146195079Y-43008933D01*
X146195074Y-43008934D01*
X146188669Y-43009438D01*
X146088731Y-43038472D01*
X146036512Y-43053643D01*
X146036510Y-43053644D01*
X146028899Y-43055855D01*
X146022072Y-43059892D01*
X146022073Y-43059892D01*
X145892520Y-43136509D01*
X145892517Y-43136511D01*
X145885693Y-43140547D01*
X145768047Y-43258193D01*
X145764011Y-43265017D01*
X145764009Y-43265020D01*
X145700393Y-43372589D01*
X145683355Y-43401399D01*
X145681144Y-43409010D01*
X145681143Y-43409012D01*
X145665972Y-43461231D01*
X145636938Y-43561169D01*
X145634000Y-43598498D01*
X145634000Y-44031502D01*
X145636938Y-44068831D01*
X145638733Y-44075008D01*
X145681086Y-44220790D01*
X145683355Y-44228601D01*
X145768047Y-44371807D01*
X145770729Y-44374489D01*
X145796002Y-44438861D01*
X145782100Y-44508484D01*
X145771928Y-44524312D01*
X145768047Y-44528193D01*
X145683355Y-44671399D01*
X145636938Y-44831169D01*
X145634000Y-44868498D01*
X145634000Y-45301502D01*
X145636938Y-45338831D01*
X145683355Y-45498601D01*
X145768047Y-45641807D01*
X145770729Y-45644489D01*
X145796002Y-45708861D01*
X145782100Y-45778484D01*
X145771928Y-45794312D01*
X145768047Y-45798193D01*
X145683355Y-45941399D01*
X145636938Y-46101169D01*
X145634000Y-46138498D01*
X145634000Y-46571502D01*
X145636938Y-46608831D01*
X145683355Y-46768601D01*
X145768047Y-46911807D01*
X145770729Y-46914489D01*
X145796002Y-46978861D01*
X145782100Y-47048484D01*
X145771928Y-47064312D01*
X145768047Y-47068193D01*
X145683355Y-47211399D01*
X145681144Y-47219010D01*
X145681143Y-47219012D01*
X145669918Y-47257649D01*
X145636938Y-47371169D01*
X145634000Y-47408498D01*
X145634000Y-47841502D01*
X145636938Y-47878831D01*
X145638733Y-47885008D01*
X145672584Y-48001525D01*
X145683355Y-48038601D01*
X145687392Y-48045427D01*
X145764009Y-48174980D01*
X145764011Y-48174983D01*
X145768047Y-48181807D01*
X145885693Y-48299453D01*
X145892517Y-48303489D01*
X145892520Y-48303491D01*
X145974682Y-48352081D01*
X146028899Y-48384145D01*
X146036510Y-48386356D01*
X146036512Y-48386357D01*
X146088731Y-48401528D01*
X146188669Y-48430562D01*
X146195074Y-48431066D01*
X146195079Y-48431067D01*
X146223542Y-48433307D01*
X146223550Y-48433307D01*
X146225998Y-48433500D01*
X148009002Y-48433500D01*
X148011450Y-48433307D01*
X148011458Y-48433307D01*
X148039921Y-48431067D01*
X148039926Y-48431066D01*
X148046331Y-48430562D01*
X148146269Y-48401528D01*
X148198488Y-48386357D01*
X148198490Y-48386356D01*
X148206101Y-48384145D01*
X148260318Y-48352081D01*
X148342480Y-48303491D01*
X148342483Y-48303489D01*
X148349307Y-48299453D01*
X148466953Y-48181807D01*
X148470989Y-48174983D01*
X148470991Y-48174980D01*
X148547608Y-48045427D01*
X148551645Y-48038601D01*
X148562417Y-48001525D01*
X148596267Y-47885008D01*
X148598062Y-47878831D01*
X148601000Y-47841502D01*
X148601000Y-47408498D01*
X148598062Y-47371169D01*
X148565082Y-47257649D01*
X148553857Y-47219012D01*
X148553856Y-47219010D01*
X148551645Y-47211399D01*
X148466953Y-47068193D01*
X148464271Y-47065511D01*
X148438998Y-47001139D01*
X148452900Y-46931516D01*
X148463072Y-46915688D01*
X148466953Y-46911807D01*
X148551645Y-46768601D01*
X148598062Y-46608831D01*
X148601000Y-46571502D01*
X148601000Y-46138498D01*
X148598062Y-46101169D01*
X148551645Y-45941399D01*
X148466953Y-45798193D01*
X148464271Y-45795511D01*
X148438998Y-45731139D01*
X148452900Y-45661516D01*
X148463072Y-45645688D01*
X148466953Y-45641807D01*
X148551645Y-45498601D01*
X148598062Y-45338831D01*
X148601000Y-45301502D01*
X148601000Y-44868498D01*
X148598062Y-44831169D01*
X148551645Y-44671399D01*
X148466953Y-44528193D01*
X148464271Y-44525511D01*
X148438998Y-44461139D01*
X148452900Y-44391516D01*
X148463072Y-44375688D01*
X148466953Y-44371807D01*
X148551645Y-44228601D01*
X148553915Y-44220790D01*
X148596267Y-44075008D01*
X148598062Y-44068831D01*
X148601000Y-44031502D01*
X148601000Y-43598498D01*
X148598062Y-43561169D01*
X148569028Y-43461231D01*
X148553857Y-43409012D01*
X148553856Y-43409010D01*
X148551645Y-43401399D01*
X148534607Y-43372589D01*
X148470991Y-43265020D01*
X148470989Y-43265017D01*
X148466953Y-43258193D01*
X148349307Y-43140547D01*
X148342483Y-43136511D01*
X148342480Y-43136509D01*
X148212927Y-43059892D01*
X148212928Y-43059892D01*
X148206101Y-43055855D01*
X148198490Y-43053644D01*
X148198488Y-43053643D01*
X148146269Y-43038472D01*
X148046331Y-43009438D01*
X148039926Y-43008934D01*
X148039921Y-43008933D01*
X148011458Y-43006693D01*
X148011450Y-43006693D01*
X148009002Y-43006500D01*
X147877000Y-43006500D01*
X147808879Y-42986498D01*
X147762386Y-42932842D01*
X147751000Y-42880500D01*
X147751000Y-42193767D01*
X147751527Y-42182584D01*
X147753202Y-42175091D01*
X147751062Y-42107014D01*
X147751000Y-42103055D01*
X147751000Y-42075144D01*
X147750495Y-42071144D01*
X147749562Y-42059301D01*
X147748422Y-42023030D01*
X147748173Y-42015111D01*
X147742521Y-41995657D01*
X147738513Y-41976300D01*
X147736968Y-41964070D01*
X147736968Y-41964069D01*
X147735974Y-41956203D01*
X147733055Y-41948830D01*
X147719696Y-41915088D01*
X147715851Y-41903858D01*
X147705729Y-41869017D01*
X147705729Y-41869016D01*
X147703518Y-41861407D01*
X147699485Y-41854588D01*
X147699483Y-41854583D01*
X147693207Y-41843972D01*
X147684512Y-41826224D01*
X147677052Y-41807383D01*
X147651064Y-41771613D01*
X147644548Y-41761693D01*
X147626080Y-41730465D01*
X147626078Y-41730462D01*
X147622042Y-41723638D01*
X147607721Y-41709317D01*
X147594877Y-41694279D01*
X147586319Y-41682499D01*
X147562463Y-41615631D01*
X147578546Y-41546480D01*
X147629462Y-41497001D01*
X147637010Y-41493335D01*
X147770719Y-41433805D01*
X147770726Y-41433801D01*
X147776752Y-41431118D01*
X147931253Y-41318866D01*
X148059040Y-41176944D01*
X148154527Y-41011556D01*
X148213542Y-40829928D01*
X148233504Y-40640000D01*
X148213542Y-40450072D01*
X148154527Y-40268444D01*
X148059040Y-40103056D01*
X148042855Y-40085080D01*
X147935675Y-39966045D01*
X147935674Y-39966044D01*
X147931253Y-39961134D01*
X147776752Y-39848882D01*
X147770724Y-39846198D01*
X147770722Y-39846197D01*
X147608319Y-39773891D01*
X147608318Y-39773891D01*
X147602288Y-39771206D01*
X147508888Y-39751353D01*
X147421944Y-39732872D01*
X147421939Y-39732872D01*
X147415487Y-39731500D01*
X147224513Y-39731500D01*
X147218061Y-39732872D01*
X147218056Y-39732872D01*
X147131112Y-39751353D01*
X147037712Y-39771206D01*
X147031682Y-39773891D01*
X147031681Y-39773891D01*
X146869278Y-39846197D01*
X146869276Y-39846198D01*
X146863248Y-39848882D01*
X146857907Y-39852762D01*
X146857906Y-39852763D01*
X146741969Y-39936997D01*
X146708747Y-39961134D01*
X146707551Y-39959488D01*
X146652220Y-39986035D01*
X146581767Y-39977263D01*
X146533930Y-39940516D01*
X146531116Y-39935969D01*
X146525935Y-39930797D01*
X146413184Y-39818242D01*
X146413179Y-39818238D01*
X146408003Y-39813071D01*
X146259920Y-39721791D01*
X146094809Y-39667026D01*
X146087973Y-39666326D01*
X146087970Y-39666325D01*
X146036474Y-39661049D01*
X145992072Y-39656500D01*
X145292928Y-39656500D01*
X145289682Y-39656837D01*
X145289678Y-39656837D01*
X145195765Y-39666581D01*
X145195761Y-39666582D01*
X145188907Y-39667293D01*
X145182371Y-39669474D01*
X145182369Y-39669474D01*
X145049605Y-39713768D01*
X145023893Y-39722346D01*
X144875969Y-39813884D01*
X144870797Y-39819065D01*
X144868727Y-39821139D01*
X144866962Y-39822105D01*
X144865059Y-39823613D01*
X144864801Y-39823287D01*
X144806446Y-39855219D01*
X144735625Y-39850218D01*
X144690530Y-39821292D01*
X144687869Y-39818636D01*
X144676460Y-39809625D01*
X144540937Y-39726088D01*
X144527759Y-39719944D01*
X144376234Y-39669685D01*
X144362868Y-39666819D01*
X144270230Y-39657328D01*
X144263815Y-39657000D01*
X144189615Y-39657000D01*
X144174376Y-39661475D01*
X144173171Y-39662865D01*
X144171500Y-39670548D01*
X144171500Y-41604885D01*
X143663500Y-41604885D01*
X143663500Y-40912115D01*
X143659025Y-40896876D01*
X143657635Y-40895671D01*
X143649952Y-40894000D01*
X142890115Y-40894000D01*
X142874876Y-40898475D01*
X142873671Y-40899865D01*
X142872000Y-40907548D01*
X142872000Y-40923766D01*
X87994728Y-40923766D01*
X88772961Y-40367885D01*
X142872000Y-40367885D01*
X142876475Y-40383124D01*
X142877865Y-40384329D01*
X142885548Y-40386000D01*
X143645385Y-40386000D01*
X143660624Y-40381525D01*
X143661829Y-40380135D01*
X143663500Y-40372452D01*
X143663500Y-39675115D01*
X143659025Y-39659876D01*
X143657635Y-39658671D01*
X143649952Y-39657000D01*
X143571234Y-39657000D01*
X143564718Y-39657337D01*
X143470868Y-39667075D01*
X143457472Y-39669968D01*
X143306047Y-39720488D01*
X143292885Y-39726653D01*
X143157508Y-39810426D01*
X143146110Y-39819460D01*
X143033637Y-39932129D01*
X143024625Y-39943540D01*
X142941088Y-40079063D01*
X142934944Y-40092241D01*
X142884685Y-40243766D01*
X142881819Y-40257132D01*
X142872328Y-40349770D01*
X142872000Y-40356185D01*
X142872000Y-40367885D01*
X88772961Y-40367885D01*
X99041660Y-33033100D01*
X99081743Y-33014070D01*
X126397017Y-25564450D01*
X126468001Y-25565823D01*
G37*
%TD.AperFunction*%
%TD*%
M02*
